G04 #@! TF.GenerationSoftware,KiCad,Pcbnew,(6.0.1)*
G04 #@! TF.CreationDate,2022-07-28T02:40:33-06:00*
G04 #@! TF.ProjectId,nue-pcb,6e75652d-7063-4622-9e6b-696361645f70,0.1*
G04 #@! TF.SameCoordinates,Original*
G04 #@! TF.FileFunction,Copper,L2,Bot*
G04 #@! TF.FilePolarity,Positive*
%FSLAX46Y46*%
G04 Gerber Fmt 4.6, Leading zero omitted, Abs format (unit mm)*
G04 Created by KiCad (PCBNEW (6.0.1)) date 2022-07-28 02:40:33*
%MOMM*%
%LPD*%
G01*
G04 APERTURE LIST*
G04 #@! TA.AperFunction,EtchedComponent*
%ADD10C,0.010000*%
G04 #@! TD*
G04 #@! TA.AperFunction,ComponentPad*
%ADD11C,2.540000*%
G04 #@! TD*
G04 #@! TA.AperFunction,ComponentPad*
%ADD12R,1.524000X1.524000*%
G04 #@! TD*
G04 #@! TA.AperFunction,ComponentPad*
%ADD13O,1.524000X1.524000*%
G04 #@! TD*
G04 #@! TA.AperFunction,ViaPad*
%ADD14C,0.508000*%
G04 #@! TD*
G04 #@! TA.AperFunction,Conductor*
%ADD15C,0.381000*%
G04 #@! TD*
G04 #@! TA.AperFunction,Conductor*
%ADD16C,0.254000*%
G04 #@! TD*
G04 APERTURE END LIST*
D10*
X242069839Y-138816567D02*
X242194419Y-138846041D01*
X242194419Y-138846041D02*
X242298982Y-138902246D01*
X242298982Y-138902246D02*
X242341524Y-138940869D01*
X242341524Y-138940869D02*
X242364795Y-138977502D01*
X242364795Y-138977502D02*
X242398941Y-139045920D01*
X242398941Y-139045920D02*
X242440321Y-139138142D01*
X242440321Y-139138142D02*
X242485298Y-139246185D01*
X242485298Y-139246185D02*
X242514068Y-139319369D01*
X242514068Y-139319369D02*
X242554308Y-139424195D01*
X242554308Y-139424195D02*
X242606491Y-139560198D01*
X242606491Y-139560198D02*
X242667413Y-139719026D01*
X242667413Y-139719026D02*
X242733872Y-139892323D01*
X242733872Y-139892323D02*
X242802662Y-140071738D01*
X242802662Y-140071738D02*
X242870580Y-140248916D01*
X242870580Y-140248916D02*
X242887348Y-140292666D01*
X242887348Y-140292666D02*
X242997621Y-140579566D01*
X242997621Y-140579566D02*
X243094894Y-140830481D01*
X243094894Y-140830481D02*
X243180843Y-141049138D01*
X243180843Y-141049138D02*
X243257142Y-141239262D01*
X243257142Y-141239262D02*
X243325466Y-141404577D01*
X243325466Y-141404577D02*
X243387490Y-141548810D01*
X243387490Y-141548810D02*
X243444887Y-141675685D01*
X243444887Y-141675685D02*
X243499333Y-141788928D01*
X243499333Y-141788928D02*
X243552502Y-141892263D01*
X243552502Y-141892263D02*
X243606069Y-141989417D01*
X243606069Y-141989417D02*
X243661707Y-142084114D01*
X243661707Y-142084114D02*
X243721092Y-142180079D01*
X243721092Y-142180079D02*
X243770400Y-142257142D01*
X243770400Y-142257142D02*
X243832358Y-142355459D01*
X243832358Y-142355459D02*
X243886896Y-142446715D01*
X243886896Y-142446715D02*
X243929190Y-142522490D01*
X243929190Y-142522490D02*
X243954419Y-142574366D01*
X243954419Y-142574366D02*
X243958258Y-142585086D01*
X243958258Y-142585086D02*
X243975504Y-142692374D01*
X243975504Y-142692374D02*
X243976641Y-142827135D01*
X243976641Y-142827135D02*
X243963089Y-142978303D01*
X243963089Y-142978303D02*
X243936264Y-143134816D01*
X243936264Y-143134816D02*
X243897585Y-143285610D01*
X243897585Y-143285610D02*
X243852450Y-143410478D01*
X243852450Y-143410478D02*
X243794632Y-143525280D01*
X243794632Y-143525280D02*
X243727057Y-143627713D01*
X243727057Y-143627713D02*
X243657342Y-143707275D01*
X243657342Y-143707275D02*
X243610342Y-143744352D01*
X243610342Y-143744352D02*
X243534020Y-143772327D01*
X243534020Y-143772327D02*
X243431371Y-143784529D01*
X243431371Y-143784529D02*
X243315328Y-143781025D01*
X243315328Y-143781025D02*
X243198824Y-143761878D01*
X243198824Y-143761878D02*
X243131323Y-143741926D01*
X243131323Y-143741926D02*
X242994284Y-143678495D01*
X242994284Y-143678495D02*
X242839207Y-143580040D01*
X242839207Y-143580040D02*
X242665067Y-143445863D01*
X242665067Y-143445863D02*
X242538250Y-143336553D01*
X242538250Y-143336553D02*
X242464246Y-143269618D01*
X242464246Y-143269618D02*
X242394068Y-143204146D01*
X242394068Y-143204146D02*
X242324652Y-143136798D01*
X242324652Y-143136798D02*
X242252932Y-143064233D01*
X242252932Y-143064233D02*
X242175844Y-142983109D01*
X242175844Y-142983109D02*
X242090322Y-142890087D01*
X242090322Y-142890087D02*
X241993300Y-142781826D01*
X241993300Y-142781826D02*
X241881714Y-142654986D01*
X241881714Y-142654986D02*
X241752499Y-142506224D01*
X241752499Y-142506224D02*
X241602589Y-142332202D01*
X241602589Y-142332202D02*
X241428920Y-142129578D01*
X241428920Y-142129578D02*
X241403070Y-142099363D01*
X241403070Y-142099363D02*
X241169013Y-141827402D01*
X241169013Y-141827402D02*
X240960348Y-141588505D01*
X240960348Y-141588505D02*
X240776625Y-141382204D01*
X240776625Y-141382204D02*
X240617393Y-141208034D01*
X240617393Y-141208034D02*
X240482201Y-141065528D01*
X240482201Y-141065528D02*
X240370599Y-140954219D01*
X240370599Y-140954219D02*
X240282136Y-140873641D01*
X240282136Y-140873641D02*
X240216361Y-140823328D01*
X240216361Y-140823328D02*
X240172824Y-140802813D01*
X240172824Y-140802813D02*
X240154410Y-140806784D01*
X240154410Y-140806784D02*
X240156556Y-140830378D01*
X240156556Y-140830378D02*
X240174627Y-140877377D01*
X240174627Y-140877377D02*
X240186922Y-140902917D01*
X240186922Y-140902917D02*
X240226514Y-140996272D01*
X240226514Y-140996272D02*
X240267311Y-141119875D01*
X240267311Y-141119875D02*
X240306034Y-141261881D01*
X240306034Y-141261881D02*
X240339402Y-141410443D01*
X240339402Y-141410443D02*
X240360786Y-141530916D01*
X240360786Y-141530916D02*
X240377307Y-141679091D01*
X240377307Y-141679091D02*
X240386992Y-141853634D01*
X240386992Y-141853634D02*
X240390043Y-142043194D01*
X240390043Y-142043194D02*
X240386662Y-142236420D01*
X240386662Y-142236420D02*
X240377052Y-142421961D01*
X240377052Y-142421961D02*
X240361414Y-142588465D01*
X240361414Y-142588465D02*
X240339952Y-142724581D01*
X240339952Y-142724581D02*
X240339482Y-142726833D01*
X240339482Y-142726833D02*
X240287522Y-142925106D01*
X240287522Y-142925106D02*
X240221320Y-143097085D01*
X240221320Y-143097085D02*
X240142986Y-143239334D01*
X240142986Y-143239334D02*
X240054631Y-143348418D01*
X240054631Y-143348418D02*
X239958366Y-143420900D01*
X239958366Y-143420900D02*
X239897926Y-143445326D01*
X239897926Y-143445326D02*
X239764408Y-143465441D01*
X239764408Y-143465441D02*
X239608917Y-143460748D01*
X239608917Y-143460748D02*
X239442725Y-143432647D01*
X239442725Y-143432647D02*
X239277106Y-143382539D01*
X239277106Y-143382539D02*
X239225483Y-143361833D01*
X239225483Y-143361833D02*
X239083141Y-143289048D01*
X239083141Y-143289048D02*
X238916580Y-143182255D01*
X238916580Y-143182255D02*
X238726283Y-143041829D01*
X238726283Y-143041829D02*
X238512732Y-142868141D01*
X238512732Y-142868141D02*
X238276408Y-142661565D01*
X238276408Y-142661565D02*
X238048676Y-142451632D01*
X238048676Y-142451632D02*
X237781852Y-142200354D01*
X237781852Y-142200354D02*
X237736049Y-142371486D01*
X237736049Y-142371486D02*
X237664147Y-142589880D01*
X237664147Y-142589880D02*
X237575739Y-142769997D01*
X237575739Y-142769997D02*
X237471110Y-142911612D01*
X237471110Y-142911612D02*
X237350545Y-143014499D01*
X237350545Y-143014499D02*
X237214329Y-143078434D01*
X237214329Y-143078434D02*
X237062746Y-143103191D01*
X237062746Y-143103191D02*
X236896080Y-143088546D01*
X236896080Y-143088546D02*
X236844417Y-143076754D01*
X236844417Y-143076754D02*
X236733740Y-143044423D01*
X236733740Y-143044423D02*
X236627549Y-143004525D01*
X236627549Y-143004525D02*
X236521475Y-142954156D01*
X236521475Y-142954156D02*
X236411146Y-142890415D01*
X236411146Y-142890415D02*
X236292194Y-142810400D01*
X236292194Y-142810400D02*
X236160246Y-142711207D01*
X236160246Y-142711207D02*
X236010933Y-142589934D01*
X236010933Y-142589934D02*
X235839885Y-142443679D01*
X235839885Y-142443679D02*
X235682861Y-142305315D01*
X235682861Y-142305315D02*
X235566146Y-142201843D01*
X235566146Y-142201843D02*
X235457049Y-142105831D01*
X235457049Y-142105831D02*
X235360369Y-142021447D01*
X235360369Y-142021447D02*
X235280907Y-141952860D01*
X235280907Y-141952860D02*
X235223462Y-141904239D01*
X235223462Y-141904239D02*
X235193086Y-141879931D01*
X235193086Y-141879931D02*
X235134617Y-141838297D01*
X235134617Y-141838297D02*
X235173372Y-142012690D01*
X235173372Y-142012690D02*
X235219283Y-142264598D01*
X235219283Y-142264598D02*
X235240864Y-142495283D01*
X235240864Y-142495283D02*
X235238119Y-142701203D01*
X235238119Y-142701203D02*
X235211052Y-142878817D01*
X235211052Y-142878817D02*
X235172364Y-142997042D01*
X235172364Y-142997042D02*
X235129566Y-143070235D01*
X235129566Y-143070235D02*
X235062560Y-143155672D01*
X235062560Y-143155672D02*
X234981174Y-143243356D01*
X234981174Y-143243356D02*
X234895236Y-143323288D01*
X234895236Y-143323288D02*
X234814573Y-143385470D01*
X234814573Y-143385470D02*
X234761115Y-143415439D01*
X234761115Y-143415439D02*
X234616528Y-143453986D01*
X234616528Y-143453986D02*
X234452310Y-143459169D01*
X234452310Y-143459169D02*
X234273148Y-143432274D01*
X234273148Y-143432274D02*
X234083731Y-143374585D01*
X234083731Y-143374585D02*
X233888750Y-143287388D01*
X233888750Y-143287388D02*
X233692893Y-143171969D01*
X233692893Y-143171969D02*
X233579268Y-143091489D01*
X233579268Y-143091489D02*
X233475118Y-143009484D01*
X233475118Y-143009484D02*
X233348735Y-142904560D01*
X233348735Y-142904560D02*
X233207977Y-142783576D01*
X233207977Y-142783576D02*
X233060699Y-142653390D01*
X233060699Y-142653390D02*
X232914759Y-142520860D01*
X232914759Y-142520860D02*
X232778015Y-142392845D01*
X232778015Y-142392845D02*
X232768656Y-142383910D01*
X232768656Y-142383910D02*
X232598145Y-142220897D01*
X232598145Y-142220897D02*
X232607191Y-142410111D01*
X232607191Y-142410111D02*
X232601549Y-142613037D01*
X232601549Y-142613037D02*
X232562935Y-142791619D01*
X232562935Y-142791619D02*
X232489857Y-142949816D01*
X232489857Y-142949816D02*
X232380824Y-143091586D01*
X232380824Y-143091586D02*
X232332408Y-143139434D01*
X232332408Y-143139434D02*
X232235535Y-143221048D01*
X232235535Y-143221048D02*
X232141950Y-143279513D01*
X232141950Y-143279513D02*
X232041625Y-143318175D01*
X232041625Y-143318175D02*
X231924534Y-143340381D01*
X231924534Y-143340381D02*
X231780649Y-143349476D01*
X231780649Y-143349476D02*
X231700917Y-143350174D01*
X231700917Y-143350174D02*
X231600033Y-143349442D01*
X231600033Y-143349442D02*
X231521562Y-143346634D01*
X231521562Y-143346634D02*
X231454694Y-143339733D01*
X231454694Y-143339733D02*
X231388618Y-143326726D01*
X231388618Y-143326726D02*
X231312526Y-143305599D01*
X231312526Y-143305599D02*
X231215608Y-143274336D01*
X231215608Y-143274336D02*
X231118834Y-143241699D01*
X231118834Y-143241699D02*
X230839228Y-143140786D01*
X230839228Y-143140786D02*
X230528996Y-143017572D01*
X230528996Y-143017572D02*
X230192259Y-142873936D01*
X230192259Y-142873936D02*
X229833138Y-142711758D01*
X229833138Y-142711758D02*
X229455755Y-142532915D01*
X229455755Y-142532915D02*
X229064232Y-142339286D01*
X229064232Y-142339286D02*
X228662690Y-142132751D01*
X228662690Y-142132751D02*
X228515334Y-142054993D01*
X228515334Y-142054993D02*
X228329059Y-141955286D01*
X228329059Y-141955286D02*
X228176093Y-141871221D01*
X228176093Y-141871221D02*
X228051866Y-141799543D01*
X228051866Y-141799543D02*
X227951805Y-141736996D01*
X227951805Y-141736996D02*
X227871339Y-141680325D01*
X227871339Y-141680325D02*
X227805897Y-141626274D01*
X227805897Y-141626274D02*
X227750906Y-141571587D01*
X227750906Y-141571587D02*
X227701797Y-141513008D01*
X227701797Y-141513008D02*
X227653997Y-141447282D01*
X227653997Y-141447282D02*
X227646282Y-141436056D01*
X227646282Y-141436056D02*
X227583297Y-141333756D01*
X227583297Y-141333756D02*
X227547694Y-141249034D01*
X227547694Y-141249034D02*
X227536595Y-141194742D01*
X227536595Y-141194742D02*
X227532050Y-141134478D01*
X227532050Y-141134478D02*
X227539784Y-141102032D01*
X227539784Y-141102032D02*
X227565193Y-141083453D01*
X227565193Y-141083453D02*
X227582348Y-141076461D01*
X227582348Y-141076461D02*
X227650332Y-141070461D01*
X227650332Y-141070461D02*
X227747880Y-141091936D01*
X227747880Y-141091936D02*
X227872961Y-141140189D01*
X227872961Y-141140189D02*
X228023539Y-141214525D01*
X228023539Y-141214525D02*
X228085484Y-141248600D01*
X228085484Y-141248600D02*
X228372400Y-141400776D01*
X228372400Y-141400776D02*
X228691369Y-141553008D01*
X228691369Y-141553008D02*
X229032309Y-141701286D01*
X229032309Y-141701286D02*
X229385135Y-141841600D01*
X229385135Y-141841600D02*
X229739764Y-141969940D01*
X229739764Y-141969940D02*
X230086112Y-142082296D01*
X230086112Y-142082296D02*
X230414095Y-142174657D01*
X230414095Y-142174657D02*
X230414158Y-142174674D01*
X230414158Y-142174674D02*
X230680429Y-142236859D01*
X230680429Y-142236859D02*
X230911471Y-142277628D01*
X230911471Y-142277628D02*
X231107102Y-142297010D01*
X231107102Y-142297010D02*
X231267139Y-142295035D01*
X231267139Y-142295035D02*
X231391398Y-142271732D01*
X231391398Y-142271732D02*
X231479697Y-142227131D01*
X231479697Y-142227131D02*
X231531852Y-142161263D01*
X231531852Y-142161263D02*
X231547680Y-142074156D01*
X231547680Y-142074156D02*
X231535059Y-141992861D01*
X231535059Y-141992861D02*
X231512042Y-141922967D01*
X231512042Y-141922967D02*
X231485092Y-141862566D01*
X231485092Y-141862566D02*
X231477226Y-141849187D01*
X231477226Y-141849187D02*
X231444433Y-141799140D01*
X231444433Y-141799140D02*
X231355717Y-141895765D01*
X231355717Y-141895765D02*
X231242561Y-141993417D01*
X231242561Y-141993417D02*
X231117733Y-142051483D01*
X231117733Y-142051483D02*
X230979315Y-142070377D01*
X230979315Y-142070377D02*
X230825389Y-142050510D01*
X230825389Y-142050510D02*
X230744875Y-142027140D01*
X230744875Y-142027140D02*
X230667256Y-141997078D01*
X230667256Y-141997078D02*
X230560156Y-141950089D01*
X230560156Y-141950089D02*
X230431031Y-141889932D01*
X230431031Y-141889932D02*
X230287334Y-141820365D01*
X230287334Y-141820365D02*
X230136522Y-141745147D01*
X230136522Y-141745147D02*
X229986047Y-141668036D01*
X229986047Y-141668036D02*
X229843366Y-141592793D01*
X229843366Y-141592793D02*
X229715933Y-141523174D01*
X229715933Y-141523174D02*
X229611203Y-141462940D01*
X229611203Y-141462940D02*
X229548918Y-141424130D01*
X229548918Y-141424130D02*
X229399531Y-141316043D01*
X229399531Y-141316043D02*
X229262391Y-141198899D01*
X229262391Y-141198899D02*
X229144279Y-141079485D01*
X229144279Y-141079485D02*
X229051976Y-140964587D01*
X229051976Y-140964587D02*
X228997062Y-140871706D01*
X228997062Y-140871706D02*
X228959781Y-140777019D01*
X228959781Y-140777019D02*
X228943247Y-140687938D01*
X228943247Y-140687938D02*
X228940988Y-140610166D01*
X228940988Y-140610166D02*
X228948159Y-140554341D01*
X228948159Y-140554341D02*
X230092250Y-140554341D01*
X230092250Y-140554341D02*
X230107624Y-140598578D01*
X230107624Y-140598578D02*
X230148713Y-140659912D01*
X230148713Y-140659912D02*
X230207964Y-140729259D01*
X230207964Y-140729259D02*
X230277826Y-140797532D01*
X230277826Y-140797532D02*
X230330472Y-140840935D01*
X230330472Y-140840935D02*
X230386432Y-140878679D01*
X230386432Y-140878679D02*
X230462777Y-140924266D01*
X230462777Y-140924266D02*
X230550040Y-140972740D01*
X230550040Y-140972740D02*
X230638755Y-141019147D01*
X230638755Y-141019147D02*
X230719454Y-141058534D01*
X230719454Y-141058534D02*
X230782670Y-141085944D01*
X230782670Y-141085944D02*
X230818650Y-141096417D01*
X230818650Y-141096417D02*
X230819653Y-141082112D01*
X230819653Y-141082112D02*
X230799654Y-141046199D01*
X230799654Y-141046199D02*
X230794473Y-141038727D01*
X230794473Y-141038727D02*
X230742205Y-140976435D01*
X230742205Y-140976435D02*
X230666543Y-140899939D01*
X230666543Y-140899939D02*
X230578625Y-140819520D01*
X230578625Y-140819520D02*
X230489591Y-140745461D01*
X230489591Y-140745461D02*
X230425023Y-140697687D01*
X230425023Y-140697687D02*
X230345489Y-140647479D01*
X230345489Y-140647479D02*
X230265168Y-140603831D01*
X230265168Y-140603831D02*
X230192002Y-140570164D01*
X230192002Y-140570164D02*
X230133936Y-140549900D01*
X230133936Y-140549900D02*
X230098911Y-140546459D01*
X230098911Y-140546459D02*
X230092250Y-140554341D01*
X230092250Y-140554341D02*
X228948159Y-140554341D01*
X228948159Y-140554341D02*
X228960681Y-140456861D01*
X228960681Y-140456861D02*
X229012875Y-140291668D01*
X229012875Y-140291668D02*
X229092500Y-140122204D01*
X229092500Y-140122204D02*
X229194482Y-139956085D01*
X229194482Y-139956085D02*
X229313752Y-139800926D01*
X229313752Y-139800926D02*
X229445236Y-139664341D01*
X229445236Y-139664341D02*
X229583863Y-139553948D01*
X229583863Y-139553948D02*
X229682926Y-139496094D01*
X229682926Y-139496094D02*
X229748930Y-139466090D01*
X229748930Y-139466090D02*
X229806324Y-139448187D01*
X229806324Y-139448187D02*
X229870138Y-139439600D01*
X229870138Y-139439600D02*
X229955403Y-139437544D01*
X229955403Y-139437544D02*
X229997000Y-139437902D01*
X229997000Y-139437902D02*
X230205679Y-139460642D01*
X230205679Y-139460642D02*
X230422355Y-139522040D01*
X230422355Y-139522040D02*
X230644152Y-139619842D01*
X230644152Y-139619842D02*
X230868196Y-139751791D01*
X230868196Y-139751791D02*
X231091612Y-139915633D01*
X231091612Y-139915633D02*
X231311526Y-140109113D01*
X231311526Y-140109113D02*
X231525062Y-140329975D01*
X231525062Y-140329975D02*
X231729347Y-140575964D01*
X231729347Y-140575964D02*
X231921506Y-140844825D01*
X231921506Y-140844825D02*
X232048290Y-141047165D01*
X232048290Y-141047165D02*
X232103703Y-141138659D01*
X232103703Y-141138659D02*
X232154939Y-141219514D01*
X232154939Y-141219514D02*
X232196409Y-141281150D01*
X232196409Y-141281150D02*
X232222525Y-141314986D01*
X232222525Y-141314986D02*
X232223091Y-141315559D01*
X232223091Y-141315559D02*
X232252141Y-141338781D01*
X232252141Y-141338781D02*
X232310562Y-141381001D01*
X232310562Y-141381001D02*
X232392313Y-141438017D01*
X232392313Y-141438017D02*
X232491355Y-141505627D01*
X232491355Y-141505627D02*
X232601649Y-141579628D01*
X232601649Y-141579628D02*
X232621667Y-141592928D01*
X232621667Y-141592928D02*
X232912976Y-141783815D01*
X232912976Y-141783815D02*
X233172018Y-141948487D01*
X233172018Y-141948487D02*
X233399473Y-142087315D01*
X233399473Y-142087315D02*
X233596021Y-142200668D01*
X233596021Y-142200668D02*
X233762341Y-142288916D01*
X233762341Y-142288916D02*
X233899111Y-142352428D01*
X233899111Y-142352428D02*
X234007012Y-142391573D01*
X234007012Y-142391573D02*
X234086723Y-142406722D01*
X234086723Y-142406722D02*
X234115280Y-142405561D01*
X234115280Y-142405561D02*
X234128489Y-142400669D01*
X234128489Y-142400669D02*
X234133894Y-142387952D01*
X234133894Y-142387952D02*
X234129667Y-142362761D01*
X234129667Y-142362761D02*
X234113983Y-142320446D01*
X234113983Y-142320446D02*
X234085013Y-142256360D01*
X234085013Y-142256360D02*
X234040931Y-142165852D01*
X234040931Y-142165852D02*
X233979909Y-142044273D01*
X233979909Y-142044273D02*
X233950398Y-141986000D01*
X233950398Y-141986000D02*
X233771302Y-141640038D01*
X233771302Y-141640038D02*
X233592758Y-141310615D01*
X233592758Y-141310615D02*
X233405576Y-140981164D01*
X233405576Y-140981164D02*
X233205690Y-140643619D01*
X233205690Y-140643619D02*
X233120064Y-140501461D01*
X233120064Y-140501461D02*
X233053868Y-140390858D01*
X233053868Y-140390858D02*
X233004781Y-140307049D01*
X233004781Y-140307049D02*
X232970483Y-140245269D01*
X232970483Y-140245269D02*
X232948654Y-140200755D01*
X232948654Y-140200755D02*
X232936973Y-140168746D01*
X232936973Y-140168746D02*
X232933120Y-140144477D01*
X232933120Y-140144477D02*
X232934775Y-140123185D01*
X232934775Y-140123185D02*
X232939617Y-140100109D01*
X232939617Y-140100109D02*
X232940022Y-140098275D01*
X232940022Y-140098275D02*
X232973993Y-140025087D01*
X232973993Y-140025087D02*
X233042261Y-139944082D01*
X233042261Y-139944082D02*
X233138854Y-139860505D01*
X233138854Y-139860505D02*
X233257801Y-139779598D01*
X233257801Y-139779598D02*
X233377442Y-139714175D01*
X233377442Y-139714175D02*
X233518918Y-139651523D01*
X233518918Y-139651523D02*
X233659003Y-139601492D01*
X233659003Y-139601492D02*
X233786910Y-139567388D01*
X233786910Y-139567388D02*
X233891854Y-139552519D01*
X233891854Y-139552519D02*
X233905918Y-139552146D01*
X233905918Y-139552146D02*
X233977657Y-139572523D01*
X233977657Y-139572523D02*
X234051018Y-139633144D01*
X234051018Y-139633144D02*
X234123958Y-139732080D01*
X234123958Y-139732080D02*
X234156251Y-139788870D01*
X234156251Y-139788870D02*
X234246848Y-139947331D01*
X234246848Y-139947331D02*
X234352529Y-140107179D01*
X234352529Y-140107179D02*
X234476713Y-140272592D01*
X234476713Y-140272592D02*
X234622822Y-140447746D01*
X234622822Y-140447746D02*
X234794275Y-140636821D01*
X234794275Y-140636821D02*
X234994493Y-140843992D01*
X234994493Y-140843992D02*
X235132974Y-140981786D01*
X235132974Y-140981786D02*
X235253932Y-141098904D01*
X235253932Y-141098904D02*
X235384841Y-141222562D01*
X235384841Y-141222562D02*
X235521911Y-141349451D01*
X235521911Y-141349451D02*
X235661351Y-141476263D01*
X235661351Y-141476263D02*
X235799370Y-141599689D01*
X235799370Y-141599689D02*
X235932178Y-141716420D01*
X235932178Y-141716420D02*
X236055984Y-141823149D01*
X236055984Y-141823149D02*
X236166998Y-141916565D01*
X236166998Y-141916565D02*
X236261428Y-141993360D01*
X236261428Y-141993360D02*
X236335485Y-142050225D01*
X236335485Y-142050225D02*
X236385378Y-142083853D01*
X236385378Y-142083853D02*
X236404691Y-142091833D01*
X236404691Y-142091833D02*
X236419750Y-142074237D01*
X236419750Y-142074237D02*
X236415211Y-142024028D01*
X236415211Y-142024028D02*
X236392949Y-141945080D01*
X236392949Y-141945080D02*
X236354839Y-141841262D01*
X236354839Y-141841262D02*
X236302756Y-141716446D01*
X236302756Y-141716446D02*
X236238575Y-141574504D01*
X236238575Y-141574504D02*
X236164170Y-141419306D01*
X236164170Y-141419306D02*
X236081418Y-141254724D01*
X236081418Y-141254724D02*
X235992193Y-141084629D01*
X235992193Y-141084629D02*
X235898370Y-140912893D01*
X235898370Y-140912893D02*
X235801824Y-140743387D01*
X235801824Y-140743387D02*
X235704430Y-140579981D01*
X235704430Y-140579981D02*
X235608063Y-140426548D01*
X235608063Y-140426548D02*
X235570014Y-140368518D01*
X235570014Y-140368518D02*
X235469430Y-140210611D01*
X235469430Y-140210611D02*
X235396217Y-140079258D01*
X235396217Y-140079258D02*
X235348881Y-139970046D01*
X235348881Y-139970046D02*
X235325926Y-139878564D01*
X235325926Y-139878564D02*
X235325858Y-139800398D01*
X235325858Y-139800398D02*
X235347182Y-139731137D01*
X235347182Y-139731137D02*
X235351284Y-139722873D01*
X235351284Y-139722873D02*
X235405322Y-139659939D01*
X235405322Y-139659939D02*
X235495324Y-139604040D01*
X235495324Y-139604040D02*
X235615234Y-139557074D01*
X235615234Y-139557074D02*
X235758996Y-139520935D01*
X235758996Y-139520935D02*
X235920554Y-139497518D01*
X235920554Y-139497518D02*
X236093852Y-139488719D01*
X236093852Y-139488719D02*
X236099502Y-139488700D01*
X236099502Y-139488700D02*
X236241495Y-139492014D01*
X236241495Y-139492014D02*
X236349992Y-139504198D01*
X236349992Y-139504198D02*
X236433345Y-139527718D01*
X236433345Y-139527718D02*
X236499903Y-139565036D01*
X236499903Y-139565036D02*
X236558017Y-139618617D01*
X236558017Y-139618617D02*
X236564489Y-139625878D01*
X236564489Y-139625878D02*
X236593827Y-139666826D01*
X236593827Y-139666826D02*
X236639891Y-139740633D01*
X236639891Y-139740633D02*
X236700047Y-139842511D01*
X236700047Y-139842511D02*
X236771665Y-139967671D01*
X236771665Y-139967671D02*
X236852112Y-140111323D01*
X236852112Y-140111323D02*
X236938756Y-140268678D01*
X236938756Y-140268678D02*
X237028965Y-140434948D01*
X237028965Y-140434948D02*
X237120108Y-140605343D01*
X237120108Y-140605343D02*
X237209553Y-140775075D01*
X237209553Y-140775075D02*
X237294667Y-140939354D01*
X237294667Y-140939354D02*
X237372819Y-141093392D01*
X237372819Y-141093392D02*
X237390841Y-141129499D01*
X237390841Y-141129499D02*
X237517523Y-141384249D01*
X237517523Y-141384249D02*
X237810678Y-141566714D01*
X237810678Y-141566714D02*
X238004941Y-141685421D01*
X238004941Y-141685421D02*
X238199835Y-141800397D01*
X238199835Y-141800397D02*
X238390328Y-141908947D01*
X238390328Y-141908947D02*
X238571386Y-142008373D01*
X238571386Y-142008373D02*
X238737976Y-142095977D01*
X238737976Y-142095977D02*
X238885065Y-142169063D01*
X238885065Y-142169063D02*
X239007621Y-142224932D01*
X239007621Y-142224932D02*
X239100609Y-142260887D01*
X239100609Y-142260887D02*
X239113524Y-142264947D01*
X239113524Y-142264947D02*
X239170411Y-142278036D01*
X239170411Y-142278036D02*
X239207104Y-142272089D01*
X239207104Y-142272089D02*
X239235183Y-142251549D01*
X239235183Y-142251549D02*
X239275306Y-142189735D01*
X239275306Y-142189735D02*
X239301674Y-142092252D01*
X239301674Y-142092252D02*
X239314231Y-141963487D01*
X239314231Y-141963487D02*
X239312918Y-141807827D01*
X239312918Y-141807827D02*
X239297678Y-141629660D01*
X239297678Y-141629660D02*
X239268453Y-141433374D01*
X239268453Y-141433374D02*
X239247374Y-141323981D01*
X239247374Y-141323981D02*
X239229313Y-141240324D01*
X239229313Y-141240324D02*
X239210313Y-141161197D01*
X239210313Y-141161197D02*
X239188364Y-141080165D01*
X239188364Y-141080165D02*
X239161454Y-140990795D01*
X239161454Y-140990795D02*
X239127572Y-140886652D01*
X239127572Y-140886652D02*
X239084707Y-140761304D01*
X239084707Y-140761304D02*
X239030847Y-140608316D01*
X239030847Y-140608316D02*
X238973405Y-140447512D01*
X238973405Y-140447512D02*
X238916241Y-140248869D01*
X238916241Y-140248869D02*
X238894630Y-140071822D01*
X238894630Y-140071822D02*
X238908268Y-139917013D01*
X238908268Y-139917013D02*
X238956848Y-139785083D01*
X238956848Y-139785083D02*
X239040065Y-139676673D01*
X239040065Y-139676673D02*
X239157614Y-139592424D01*
X239157614Y-139592424D02*
X239309188Y-139532977D01*
X239309188Y-139532977D02*
X239420841Y-139508739D01*
X239420841Y-139508739D02*
X239523013Y-139503427D01*
X239523013Y-139503427D02*
X239630495Y-139521636D01*
X239630495Y-139521636D02*
X239747484Y-139565305D01*
X239747484Y-139565305D02*
X239878176Y-139636376D01*
X239878176Y-139636376D02*
X240026767Y-139736789D01*
X240026767Y-139736789D02*
X240195872Y-139867208D01*
X240195872Y-139867208D02*
X240257168Y-139916869D01*
X240257168Y-139916869D02*
X240312083Y-139961953D01*
X240312083Y-139961953D02*
X240364443Y-140005924D01*
X240364443Y-140005924D02*
X240418072Y-140052243D01*
X240418072Y-140052243D02*
X240476795Y-140104374D01*
X240476795Y-140104374D02*
X240544438Y-140165779D01*
X240544438Y-140165779D02*
X240624825Y-140239922D01*
X240624825Y-140239922D02*
X240721781Y-140330264D01*
X240721781Y-140330264D02*
X240839132Y-140440268D01*
X240839132Y-140440268D02*
X240980702Y-140573397D01*
X240980702Y-140573397D02*
X241098917Y-140684703D01*
X241098917Y-140684703D02*
X241229210Y-140807253D01*
X241229210Y-140807253D02*
X241357973Y-140928072D01*
X241357973Y-140928072D02*
X241479739Y-141042050D01*
X241479739Y-141042050D02*
X241589040Y-141144081D01*
X241589040Y-141144081D02*
X241680412Y-141229056D01*
X241680412Y-141229056D02*
X241748386Y-141291867D01*
X241748386Y-141291867D02*
X241765667Y-141307697D01*
X241765667Y-141307697D02*
X241848140Y-141381535D01*
X241848140Y-141381535D02*
X241940440Y-141461823D01*
X241940440Y-141461823D02*
X242037106Y-141544082D01*
X242037106Y-141544082D02*
X242132679Y-141623831D01*
X242132679Y-141623831D02*
X242221698Y-141696590D01*
X242221698Y-141696590D02*
X242298704Y-141757879D01*
X242298704Y-141757879D02*
X242358235Y-141803217D01*
X242358235Y-141803217D02*
X242394833Y-141828124D01*
X242394833Y-141828124D02*
X242403721Y-141831251D01*
X242403721Y-141831251D02*
X242399874Y-141808878D01*
X242399874Y-141808878D02*
X242382351Y-141753121D01*
X242382351Y-141753121D02*
X242353366Y-141669833D01*
X242353366Y-141669833D02*
X242315132Y-141564868D01*
X242315132Y-141564868D02*
X242269862Y-141444078D01*
X242269862Y-141444078D02*
X242219770Y-141313318D01*
X242219770Y-141313318D02*
X242167069Y-141178442D01*
X242167069Y-141178442D02*
X242113972Y-141045302D01*
X242113972Y-141045302D02*
X242062693Y-140919753D01*
X242062693Y-140919753D02*
X242026044Y-140832416D01*
X242026044Y-140832416D02*
X241928322Y-140612396D01*
X241928322Y-140612396D02*
X241821695Y-140389069D01*
X241821695Y-140389069D02*
X241710946Y-140171609D01*
X241710946Y-140171609D02*
X241600855Y-139969188D01*
X241600855Y-139969188D02*
X241496205Y-139790977D01*
X241496205Y-139790977D02*
X241426227Y-139681790D01*
X241426227Y-139681790D02*
X241367064Y-139593353D01*
X241367064Y-139593353D02*
X241314548Y-139514088D01*
X241314548Y-139514088D02*
X241274338Y-139452591D01*
X241274338Y-139452591D02*
X241252098Y-139417458D01*
X241252098Y-139417458D02*
X241251948Y-139417206D01*
X241251948Y-139417206D02*
X241234179Y-139347732D01*
X241234179Y-139347732D02*
X241248525Y-139259878D01*
X241248525Y-139259878D02*
X241293411Y-139160898D01*
X241293411Y-139160898D02*
X241315065Y-139126422D01*
X241315065Y-139126422D02*
X241404847Y-139023507D01*
X241404847Y-139023507D02*
X241518870Y-138939322D01*
X241518870Y-138939322D02*
X241649757Y-138875203D01*
X241649757Y-138875203D02*
X241790132Y-138832482D01*
X241790132Y-138832482D02*
X241932618Y-138812492D01*
X241932618Y-138812492D02*
X242069839Y-138816567D01*
X242069839Y-138816567D02*
X242069839Y-138816567D01*
G36*
X229012875Y-140291668D02*
G01*
X229092500Y-140122204D01*
X229194482Y-139956085D01*
X229313752Y-139800926D01*
X229445236Y-139664341D01*
X229583863Y-139553948D01*
X229682926Y-139496094D01*
X229748930Y-139466090D01*
X229806324Y-139448187D01*
X229870138Y-139439600D01*
X229955403Y-139437544D01*
X229997000Y-139437902D01*
X230205679Y-139460642D01*
X230422355Y-139522040D01*
X230644152Y-139619842D01*
X230868196Y-139751791D01*
X231091612Y-139915633D01*
X231311526Y-140109113D01*
X231525062Y-140329975D01*
X231729347Y-140575964D01*
X231921506Y-140844825D01*
X232048290Y-141047165D01*
X232103703Y-141138659D01*
X232154939Y-141219514D01*
X232196409Y-141281150D01*
X232222525Y-141314986D01*
X232223091Y-141315559D01*
X232252141Y-141338781D01*
X232310562Y-141381001D01*
X232392313Y-141438017D01*
X232491355Y-141505627D01*
X232601649Y-141579628D01*
X232621667Y-141592928D01*
X232912976Y-141783815D01*
X233172018Y-141948487D01*
X233399473Y-142087315D01*
X233596021Y-142200668D01*
X233762341Y-142288916D01*
X233899111Y-142352428D01*
X234007012Y-142391573D01*
X234086723Y-142406722D01*
X234115280Y-142405561D01*
X234128489Y-142400669D01*
X234133894Y-142387952D01*
X234129667Y-142362761D01*
X234113983Y-142320446D01*
X234085013Y-142256360D01*
X234040931Y-142165852D01*
X233979909Y-142044273D01*
X233950398Y-141986000D01*
X233771302Y-141640038D01*
X233592758Y-141310615D01*
X233405576Y-140981164D01*
X233205690Y-140643619D01*
X233120064Y-140501461D01*
X233053868Y-140390858D01*
X233004781Y-140307049D01*
X232970483Y-140245269D01*
X232948654Y-140200755D01*
X232936973Y-140168746D01*
X232933120Y-140144477D01*
X232934775Y-140123185D01*
X232939617Y-140100109D01*
X232940022Y-140098275D01*
X232973993Y-140025087D01*
X233042261Y-139944082D01*
X233138854Y-139860505D01*
X233257801Y-139779598D01*
X233377442Y-139714175D01*
X233518918Y-139651523D01*
X233659003Y-139601492D01*
X233786910Y-139567388D01*
X233891854Y-139552519D01*
X233905918Y-139552146D01*
X233977657Y-139572523D01*
X234051018Y-139633144D01*
X234123958Y-139732080D01*
X234156251Y-139788870D01*
X234246848Y-139947331D01*
X234352529Y-140107179D01*
X234476713Y-140272592D01*
X234622822Y-140447746D01*
X234794275Y-140636821D01*
X234994493Y-140843992D01*
X235132974Y-140981786D01*
X235253932Y-141098904D01*
X235384841Y-141222562D01*
X235521911Y-141349451D01*
X235661351Y-141476263D01*
X235799370Y-141599689D01*
X235932178Y-141716420D01*
X236055984Y-141823149D01*
X236166998Y-141916565D01*
X236261428Y-141993360D01*
X236335485Y-142050225D01*
X236385378Y-142083853D01*
X236404691Y-142091833D01*
X236419750Y-142074237D01*
X236415211Y-142024028D01*
X236392949Y-141945080D01*
X236354839Y-141841262D01*
X236302756Y-141716446D01*
X236238575Y-141574504D01*
X236164170Y-141419306D01*
X236081418Y-141254724D01*
X235992193Y-141084629D01*
X235898370Y-140912893D01*
X235801824Y-140743387D01*
X235704430Y-140579981D01*
X235608063Y-140426548D01*
X235570014Y-140368518D01*
X235469430Y-140210611D01*
X235396217Y-140079258D01*
X235348881Y-139970046D01*
X235325926Y-139878564D01*
X235325858Y-139800398D01*
X235347182Y-139731137D01*
X235351284Y-139722873D01*
X235405322Y-139659939D01*
X235495324Y-139604040D01*
X235615234Y-139557074D01*
X235758996Y-139520935D01*
X235920554Y-139497518D01*
X236093852Y-139488719D01*
X236099502Y-139488700D01*
X236241495Y-139492014D01*
X236349992Y-139504198D01*
X236433345Y-139527718D01*
X236499903Y-139565036D01*
X236558017Y-139618617D01*
X236564489Y-139625878D01*
X236593827Y-139666826D01*
X236639891Y-139740633D01*
X236700047Y-139842511D01*
X236771665Y-139967671D01*
X236852112Y-140111323D01*
X236938756Y-140268678D01*
X237028965Y-140434948D01*
X237120108Y-140605343D01*
X237209553Y-140775075D01*
X237294667Y-140939354D01*
X237372819Y-141093392D01*
X237390841Y-141129499D01*
X237517523Y-141384249D01*
X237810678Y-141566714D01*
X238004941Y-141685421D01*
X238199835Y-141800397D01*
X238390328Y-141908947D01*
X238571386Y-142008373D01*
X238737976Y-142095977D01*
X238885065Y-142169063D01*
X239007621Y-142224932D01*
X239100609Y-142260887D01*
X239113524Y-142264947D01*
X239170411Y-142278036D01*
X239207104Y-142272089D01*
X239235183Y-142251549D01*
X239275306Y-142189735D01*
X239301674Y-142092252D01*
X239314231Y-141963487D01*
X239312918Y-141807827D01*
X239297678Y-141629660D01*
X239268453Y-141433374D01*
X239247374Y-141323981D01*
X239229313Y-141240324D01*
X239210313Y-141161197D01*
X239188364Y-141080165D01*
X239161454Y-140990795D01*
X239127572Y-140886652D01*
X239084707Y-140761304D01*
X239030847Y-140608316D01*
X238973405Y-140447512D01*
X238916241Y-140248869D01*
X238894630Y-140071822D01*
X238908268Y-139917013D01*
X238956848Y-139785083D01*
X239040065Y-139676673D01*
X239157614Y-139592424D01*
X239309188Y-139532977D01*
X239420841Y-139508739D01*
X239523013Y-139503427D01*
X239630495Y-139521636D01*
X239747484Y-139565305D01*
X239878176Y-139636376D01*
X240026767Y-139736789D01*
X240195872Y-139867208D01*
X240257168Y-139916869D01*
X240312083Y-139961953D01*
X240364443Y-140005924D01*
X240418072Y-140052243D01*
X240476795Y-140104374D01*
X240544438Y-140165779D01*
X240624825Y-140239922D01*
X240721781Y-140330264D01*
X240839132Y-140440268D01*
X240980702Y-140573397D01*
X241098917Y-140684703D01*
X241229210Y-140807253D01*
X241357973Y-140928072D01*
X241479739Y-141042050D01*
X241589040Y-141144081D01*
X241680412Y-141229056D01*
X241748386Y-141291867D01*
X241765667Y-141307697D01*
X241848140Y-141381535D01*
X241940440Y-141461823D01*
X242037106Y-141544082D01*
X242132679Y-141623831D01*
X242221698Y-141696590D01*
X242298704Y-141757879D01*
X242358235Y-141803217D01*
X242394833Y-141828124D01*
X242403721Y-141831251D01*
X242399874Y-141808878D01*
X242382351Y-141753121D01*
X242353366Y-141669833D01*
X242315132Y-141564868D01*
X242269862Y-141444078D01*
X242219770Y-141313318D01*
X242167069Y-141178442D01*
X242113972Y-141045302D01*
X242062693Y-140919753D01*
X242026044Y-140832416D01*
X241928322Y-140612396D01*
X241821695Y-140389069D01*
X241710946Y-140171609D01*
X241600855Y-139969188D01*
X241496205Y-139790977D01*
X241426227Y-139681790D01*
X241367064Y-139593353D01*
X241314548Y-139514088D01*
X241274338Y-139452591D01*
X241252098Y-139417458D01*
X241251948Y-139417206D01*
X241234179Y-139347732D01*
X241248525Y-139259878D01*
X241293411Y-139160898D01*
X241315065Y-139126422D01*
X241404847Y-139023507D01*
X241518870Y-138939322D01*
X241649757Y-138875203D01*
X241790132Y-138832482D01*
X241932618Y-138812492D01*
X242069839Y-138816567D01*
X242194419Y-138846041D01*
X242298982Y-138902246D01*
X242341524Y-138940869D01*
X242364795Y-138977502D01*
X242398941Y-139045920D01*
X242440321Y-139138142D01*
X242485298Y-139246185D01*
X242514068Y-139319369D01*
X242554308Y-139424195D01*
X242606491Y-139560198D01*
X242667413Y-139719026D01*
X242733872Y-139892323D01*
X242802662Y-140071738D01*
X242870580Y-140248916D01*
X242887348Y-140292666D01*
X242997621Y-140579566D01*
X243094894Y-140830481D01*
X243180843Y-141049138D01*
X243257142Y-141239262D01*
X243325466Y-141404577D01*
X243387490Y-141548810D01*
X243444887Y-141675685D01*
X243499333Y-141788928D01*
X243552502Y-141892263D01*
X243606069Y-141989417D01*
X243661707Y-142084114D01*
X243721092Y-142180079D01*
X243770400Y-142257142D01*
X243832358Y-142355459D01*
X243886896Y-142446715D01*
X243929190Y-142522490D01*
X243954419Y-142574366D01*
X243958258Y-142585086D01*
X243975504Y-142692374D01*
X243976641Y-142827135D01*
X243963089Y-142978303D01*
X243936264Y-143134816D01*
X243897585Y-143285610D01*
X243852450Y-143410478D01*
X243794632Y-143525280D01*
X243727057Y-143627713D01*
X243657342Y-143707275D01*
X243610342Y-143744352D01*
X243534020Y-143772327D01*
X243431371Y-143784529D01*
X243315328Y-143781025D01*
X243198824Y-143761878D01*
X243131323Y-143741926D01*
X242994284Y-143678495D01*
X242839207Y-143580040D01*
X242665067Y-143445863D01*
X242538250Y-143336553D01*
X242464246Y-143269618D01*
X242394068Y-143204146D01*
X242324652Y-143136798D01*
X242252932Y-143064233D01*
X242175844Y-142983109D01*
X242090322Y-142890087D01*
X241993300Y-142781826D01*
X241881714Y-142654986D01*
X241752499Y-142506224D01*
X241602589Y-142332202D01*
X241428920Y-142129578D01*
X241403070Y-142099363D01*
X241169013Y-141827402D01*
X240960348Y-141588505D01*
X240776625Y-141382204D01*
X240617393Y-141208034D01*
X240482201Y-141065528D01*
X240370599Y-140954219D01*
X240282136Y-140873641D01*
X240216361Y-140823328D01*
X240172824Y-140802813D01*
X240154410Y-140806784D01*
X240156556Y-140830378D01*
X240174627Y-140877377D01*
X240186922Y-140902917D01*
X240226514Y-140996272D01*
X240267311Y-141119875D01*
X240306034Y-141261881D01*
X240339402Y-141410443D01*
X240360786Y-141530916D01*
X240377307Y-141679091D01*
X240386992Y-141853634D01*
X240390043Y-142043194D01*
X240386662Y-142236420D01*
X240377052Y-142421961D01*
X240361414Y-142588465D01*
X240339952Y-142724581D01*
X240339482Y-142726833D01*
X240287522Y-142925106D01*
X240221320Y-143097085D01*
X240142986Y-143239334D01*
X240054631Y-143348418D01*
X239958366Y-143420900D01*
X239897926Y-143445326D01*
X239764408Y-143465441D01*
X239608917Y-143460748D01*
X239442725Y-143432647D01*
X239277106Y-143382539D01*
X239225483Y-143361833D01*
X239083141Y-143289048D01*
X238916580Y-143182255D01*
X238726283Y-143041829D01*
X238512732Y-142868141D01*
X238276408Y-142661565D01*
X238048676Y-142451632D01*
X237781852Y-142200354D01*
X237736049Y-142371486D01*
X237664147Y-142589880D01*
X237575739Y-142769997D01*
X237471110Y-142911612D01*
X237350545Y-143014499D01*
X237214329Y-143078434D01*
X237062746Y-143103191D01*
X236896080Y-143088546D01*
X236844417Y-143076754D01*
X236733740Y-143044423D01*
X236627549Y-143004525D01*
X236521475Y-142954156D01*
X236411146Y-142890415D01*
X236292194Y-142810400D01*
X236160246Y-142711207D01*
X236010933Y-142589934D01*
X235839885Y-142443679D01*
X235682861Y-142305315D01*
X235566146Y-142201843D01*
X235457049Y-142105831D01*
X235360369Y-142021447D01*
X235280907Y-141952860D01*
X235223462Y-141904239D01*
X235193086Y-141879931D01*
X235134617Y-141838297D01*
X235173372Y-142012690D01*
X235219283Y-142264598D01*
X235240864Y-142495283D01*
X235238119Y-142701203D01*
X235211052Y-142878817D01*
X235172364Y-142997042D01*
X235129566Y-143070235D01*
X235062560Y-143155672D01*
X234981174Y-143243356D01*
X234895236Y-143323288D01*
X234814573Y-143385470D01*
X234761115Y-143415439D01*
X234616528Y-143453986D01*
X234452310Y-143459169D01*
X234273148Y-143432274D01*
X234083731Y-143374585D01*
X233888750Y-143287388D01*
X233692893Y-143171969D01*
X233579268Y-143091489D01*
X233475118Y-143009484D01*
X233348735Y-142904560D01*
X233207977Y-142783576D01*
X233060699Y-142653390D01*
X232914759Y-142520860D01*
X232778015Y-142392845D01*
X232768656Y-142383910D01*
X232598145Y-142220897D01*
X232607191Y-142410111D01*
X232601549Y-142613037D01*
X232562935Y-142791619D01*
X232489857Y-142949816D01*
X232380824Y-143091586D01*
X232332408Y-143139434D01*
X232235535Y-143221048D01*
X232141950Y-143279513D01*
X232041625Y-143318175D01*
X231924534Y-143340381D01*
X231780649Y-143349476D01*
X231700917Y-143350174D01*
X231600033Y-143349442D01*
X231521562Y-143346634D01*
X231454694Y-143339733D01*
X231388618Y-143326726D01*
X231312526Y-143305599D01*
X231215608Y-143274336D01*
X231118834Y-143241699D01*
X230839228Y-143140786D01*
X230528996Y-143017572D01*
X230192259Y-142873936D01*
X229833138Y-142711758D01*
X229455755Y-142532915D01*
X229064232Y-142339286D01*
X228662690Y-142132751D01*
X228515334Y-142054993D01*
X228329059Y-141955286D01*
X228176093Y-141871221D01*
X228051866Y-141799543D01*
X227951805Y-141736996D01*
X227871339Y-141680325D01*
X227805897Y-141626274D01*
X227750906Y-141571587D01*
X227701797Y-141513008D01*
X227653997Y-141447282D01*
X227646282Y-141436056D01*
X227583297Y-141333756D01*
X227547694Y-141249034D01*
X227536595Y-141194742D01*
X227532050Y-141134478D01*
X227539784Y-141102032D01*
X227565193Y-141083453D01*
X227582348Y-141076461D01*
X227650332Y-141070461D01*
X227747880Y-141091936D01*
X227872961Y-141140189D01*
X228023539Y-141214525D01*
X228085484Y-141248600D01*
X228372400Y-141400776D01*
X228691369Y-141553008D01*
X229032309Y-141701286D01*
X229385135Y-141841600D01*
X229739764Y-141969940D01*
X230086112Y-142082296D01*
X230414095Y-142174657D01*
X230414158Y-142174674D01*
X230680429Y-142236859D01*
X230911471Y-142277628D01*
X231107102Y-142297010D01*
X231267139Y-142295035D01*
X231391398Y-142271732D01*
X231479697Y-142227131D01*
X231531852Y-142161263D01*
X231547680Y-142074156D01*
X231535059Y-141992861D01*
X231512042Y-141922967D01*
X231485092Y-141862566D01*
X231477226Y-141849187D01*
X231444433Y-141799140D01*
X231355717Y-141895765D01*
X231242561Y-141993417D01*
X231117733Y-142051483D01*
X230979315Y-142070377D01*
X230825389Y-142050510D01*
X230744875Y-142027140D01*
X230667256Y-141997078D01*
X230560156Y-141950089D01*
X230431031Y-141889932D01*
X230287334Y-141820365D01*
X230136522Y-141745147D01*
X229986047Y-141668036D01*
X229843366Y-141592793D01*
X229715933Y-141523174D01*
X229611203Y-141462940D01*
X229548918Y-141424130D01*
X229399531Y-141316043D01*
X229262391Y-141198899D01*
X229144279Y-141079485D01*
X229051976Y-140964587D01*
X228997062Y-140871706D01*
X228959781Y-140777019D01*
X228943247Y-140687938D01*
X228940988Y-140610166D01*
X228948159Y-140554341D01*
X230092250Y-140554341D01*
X230107624Y-140598578D01*
X230148713Y-140659912D01*
X230207964Y-140729259D01*
X230277826Y-140797532D01*
X230330472Y-140840935D01*
X230386432Y-140878679D01*
X230462777Y-140924266D01*
X230550040Y-140972740D01*
X230638755Y-141019147D01*
X230719454Y-141058534D01*
X230782670Y-141085944D01*
X230818650Y-141096417D01*
X230819653Y-141082112D01*
X230799654Y-141046199D01*
X230794473Y-141038727D01*
X230742205Y-140976435D01*
X230666543Y-140899939D01*
X230578625Y-140819520D01*
X230489591Y-140745461D01*
X230425023Y-140697687D01*
X230345489Y-140647479D01*
X230265168Y-140603831D01*
X230192002Y-140570164D01*
X230133936Y-140549900D01*
X230098911Y-140546459D01*
X230092250Y-140554341D01*
X228948159Y-140554341D01*
X228960681Y-140456861D01*
X229012875Y-140291668D01*
G37*
X229012875Y-140291668D02*
X229092500Y-140122204D01*
X229194482Y-139956085D01*
X229313752Y-139800926D01*
X229445236Y-139664341D01*
X229583863Y-139553948D01*
X229682926Y-139496094D01*
X229748930Y-139466090D01*
X229806324Y-139448187D01*
X229870138Y-139439600D01*
X229955403Y-139437544D01*
X229997000Y-139437902D01*
X230205679Y-139460642D01*
X230422355Y-139522040D01*
X230644152Y-139619842D01*
X230868196Y-139751791D01*
X231091612Y-139915633D01*
X231311526Y-140109113D01*
X231525062Y-140329975D01*
X231729347Y-140575964D01*
X231921506Y-140844825D01*
X232048290Y-141047165D01*
X232103703Y-141138659D01*
X232154939Y-141219514D01*
X232196409Y-141281150D01*
X232222525Y-141314986D01*
X232223091Y-141315559D01*
X232252141Y-141338781D01*
X232310562Y-141381001D01*
X232392313Y-141438017D01*
X232491355Y-141505627D01*
X232601649Y-141579628D01*
X232621667Y-141592928D01*
X232912976Y-141783815D01*
X233172018Y-141948487D01*
X233399473Y-142087315D01*
X233596021Y-142200668D01*
X233762341Y-142288916D01*
X233899111Y-142352428D01*
X234007012Y-142391573D01*
X234086723Y-142406722D01*
X234115280Y-142405561D01*
X234128489Y-142400669D01*
X234133894Y-142387952D01*
X234129667Y-142362761D01*
X234113983Y-142320446D01*
X234085013Y-142256360D01*
X234040931Y-142165852D01*
X233979909Y-142044273D01*
X233950398Y-141986000D01*
X233771302Y-141640038D01*
X233592758Y-141310615D01*
X233405576Y-140981164D01*
X233205690Y-140643619D01*
X233120064Y-140501461D01*
X233053868Y-140390858D01*
X233004781Y-140307049D01*
X232970483Y-140245269D01*
X232948654Y-140200755D01*
X232936973Y-140168746D01*
X232933120Y-140144477D01*
X232934775Y-140123185D01*
X232939617Y-140100109D01*
X232940022Y-140098275D01*
X232973993Y-140025087D01*
X233042261Y-139944082D01*
X233138854Y-139860505D01*
X233257801Y-139779598D01*
X233377442Y-139714175D01*
X233518918Y-139651523D01*
X233659003Y-139601492D01*
X233786910Y-139567388D01*
X233891854Y-139552519D01*
X233905918Y-139552146D01*
X233977657Y-139572523D01*
X234051018Y-139633144D01*
X234123958Y-139732080D01*
X234156251Y-139788870D01*
X234246848Y-139947331D01*
X234352529Y-140107179D01*
X234476713Y-140272592D01*
X234622822Y-140447746D01*
X234794275Y-140636821D01*
X234994493Y-140843992D01*
X235132974Y-140981786D01*
X235253932Y-141098904D01*
X235384841Y-141222562D01*
X235521911Y-141349451D01*
X235661351Y-141476263D01*
X235799370Y-141599689D01*
X235932178Y-141716420D01*
X236055984Y-141823149D01*
X236166998Y-141916565D01*
X236261428Y-141993360D01*
X236335485Y-142050225D01*
X236385378Y-142083853D01*
X236404691Y-142091833D01*
X236419750Y-142074237D01*
X236415211Y-142024028D01*
X236392949Y-141945080D01*
X236354839Y-141841262D01*
X236302756Y-141716446D01*
X236238575Y-141574504D01*
X236164170Y-141419306D01*
X236081418Y-141254724D01*
X235992193Y-141084629D01*
X235898370Y-140912893D01*
X235801824Y-140743387D01*
X235704430Y-140579981D01*
X235608063Y-140426548D01*
X235570014Y-140368518D01*
X235469430Y-140210611D01*
X235396217Y-140079258D01*
X235348881Y-139970046D01*
X235325926Y-139878564D01*
X235325858Y-139800398D01*
X235347182Y-139731137D01*
X235351284Y-139722873D01*
X235405322Y-139659939D01*
X235495324Y-139604040D01*
X235615234Y-139557074D01*
X235758996Y-139520935D01*
X235920554Y-139497518D01*
X236093852Y-139488719D01*
X236099502Y-139488700D01*
X236241495Y-139492014D01*
X236349992Y-139504198D01*
X236433345Y-139527718D01*
X236499903Y-139565036D01*
X236558017Y-139618617D01*
X236564489Y-139625878D01*
X236593827Y-139666826D01*
X236639891Y-139740633D01*
X236700047Y-139842511D01*
X236771665Y-139967671D01*
X236852112Y-140111323D01*
X236938756Y-140268678D01*
X237028965Y-140434948D01*
X237120108Y-140605343D01*
X237209553Y-140775075D01*
X237294667Y-140939354D01*
X237372819Y-141093392D01*
X237390841Y-141129499D01*
X237517523Y-141384249D01*
X237810678Y-141566714D01*
X238004941Y-141685421D01*
X238199835Y-141800397D01*
X238390328Y-141908947D01*
X238571386Y-142008373D01*
X238737976Y-142095977D01*
X238885065Y-142169063D01*
X239007621Y-142224932D01*
X239100609Y-142260887D01*
X239113524Y-142264947D01*
X239170411Y-142278036D01*
X239207104Y-142272089D01*
X239235183Y-142251549D01*
X239275306Y-142189735D01*
X239301674Y-142092252D01*
X239314231Y-141963487D01*
X239312918Y-141807827D01*
X239297678Y-141629660D01*
X239268453Y-141433374D01*
X239247374Y-141323981D01*
X239229313Y-141240324D01*
X239210313Y-141161197D01*
X239188364Y-141080165D01*
X239161454Y-140990795D01*
X239127572Y-140886652D01*
X239084707Y-140761304D01*
X239030847Y-140608316D01*
X238973405Y-140447512D01*
X238916241Y-140248869D01*
X238894630Y-140071822D01*
X238908268Y-139917013D01*
X238956848Y-139785083D01*
X239040065Y-139676673D01*
X239157614Y-139592424D01*
X239309188Y-139532977D01*
X239420841Y-139508739D01*
X239523013Y-139503427D01*
X239630495Y-139521636D01*
X239747484Y-139565305D01*
X239878176Y-139636376D01*
X240026767Y-139736789D01*
X240195872Y-139867208D01*
X240257168Y-139916869D01*
X240312083Y-139961953D01*
X240364443Y-140005924D01*
X240418072Y-140052243D01*
X240476795Y-140104374D01*
X240544438Y-140165779D01*
X240624825Y-140239922D01*
X240721781Y-140330264D01*
X240839132Y-140440268D01*
X240980702Y-140573397D01*
X241098917Y-140684703D01*
X241229210Y-140807253D01*
X241357973Y-140928072D01*
X241479739Y-141042050D01*
X241589040Y-141144081D01*
X241680412Y-141229056D01*
X241748386Y-141291867D01*
X241765667Y-141307697D01*
X241848140Y-141381535D01*
X241940440Y-141461823D01*
X242037106Y-141544082D01*
X242132679Y-141623831D01*
X242221698Y-141696590D01*
X242298704Y-141757879D01*
X242358235Y-141803217D01*
X242394833Y-141828124D01*
X242403721Y-141831251D01*
X242399874Y-141808878D01*
X242382351Y-141753121D01*
X242353366Y-141669833D01*
X242315132Y-141564868D01*
X242269862Y-141444078D01*
X242219770Y-141313318D01*
X242167069Y-141178442D01*
X242113972Y-141045302D01*
X242062693Y-140919753D01*
X242026044Y-140832416D01*
X241928322Y-140612396D01*
X241821695Y-140389069D01*
X241710946Y-140171609D01*
X241600855Y-139969188D01*
X241496205Y-139790977D01*
X241426227Y-139681790D01*
X241367064Y-139593353D01*
X241314548Y-139514088D01*
X241274338Y-139452591D01*
X241252098Y-139417458D01*
X241251948Y-139417206D01*
X241234179Y-139347732D01*
X241248525Y-139259878D01*
X241293411Y-139160898D01*
X241315065Y-139126422D01*
X241404847Y-139023507D01*
X241518870Y-138939322D01*
X241649757Y-138875203D01*
X241790132Y-138832482D01*
X241932618Y-138812492D01*
X242069839Y-138816567D01*
X242194419Y-138846041D01*
X242298982Y-138902246D01*
X242341524Y-138940869D01*
X242364795Y-138977502D01*
X242398941Y-139045920D01*
X242440321Y-139138142D01*
X242485298Y-139246185D01*
X242514068Y-139319369D01*
X242554308Y-139424195D01*
X242606491Y-139560198D01*
X242667413Y-139719026D01*
X242733872Y-139892323D01*
X242802662Y-140071738D01*
X242870580Y-140248916D01*
X242887348Y-140292666D01*
X242997621Y-140579566D01*
X243094894Y-140830481D01*
X243180843Y-141049138D01*
X243257142Y-141239262D01*
X243325466Y-141404577D01*
X243387490Y-141548810D01*
X243444887Y-141675685D01*
X243499333Y-141788928D01*
X243552502Y-141892263D01*
X243606069Y-141989417D01*
X243661707Y-142084114D01*
X243721092Y-142180079D01*
X243770400Y-142257142D01*
X243832358Y-142355459D01*
X243886896Y-142446715D01*
X243929190Y-142522490D01*
X243954419Y-142574366D01*
X243958258Y-142585086D01*
X243975504Y-142692374D01*
X243976641Y-142827135D01*
X243963089Y-142978303D01*
X243936264Y-143134816D01*
X243897585Y-143285610D01*
X243852450Y-143410478D01*
X243794632Y-143525280D01*
X243727057Y-143627713D01*
X243657342Y-143707275D01*
X243610342Y-143744352D01*
X243534020Y-143772327D01*
X243431371Y-143784529D01*
X243315328Y-143781025D01*
X243198824Y-143761878D01*
X243131323Y-143741926D01*
X242994284Y-143678495D01*
X242839207Y-143580040D01*
X242665067Y-143445863D01*
X242538250Y-143336553D01*
X242464246Y-143269618D01*
X242394068Y-143204146D01*
X242324652Y-143136798D01*
X242252932Y-143064233D01*
X242175844Y-142983109D01*
X242090322Y-142890087D01*
X241993300Y-142781826D01*
X241881714Y-142654986D01*
X241752499Y-142506224D01*
X241602589Y-142332202D01*
X241428920Y-142129578D01*
X241403070Y-142099363D01*
X241169013Y-141827402D01*
X240960348Y-141588505D01*
X240776625Y-141382204D01*
X240617393Y-141208034D01*
X240482201Y-141065528D01*
X240370599Y-140954219D01*
X240282136Y-140873641D01*
X240216361Y-140823328D01*
X240172824Y-140802813D01*
X240154410Y-140806784D01*
X240156556Y-140830378D01*
X240174627Y-140877377D01*
X240186922Y-140902917D01*
X240226514Y-140996272D01*
X240267311Y-141119875D01*
X240306034Y-141261881D01*
X240339402Y-141410443D01*
X240360786Y-141530916D01*
X240377307Y-141679091D01*
X240386992Y-141853634D01*
X240390043Y-142043194D01*
X240386662Y-142236420D01*
X240377052Y-142421961D01*
X240361414Y-142588465D01*
X240339952Y-142724581D01*
X240339482Y-142726833D01*
X240287522Y-142925106D01*
X240221320Y-143097085D01*
X240142986Y-143239334D01*
X240054631Y-143348418D01*
X239958366Y-143420900D01*
X239897926Y-143445326D01*
X239764408Y-143465441D01*
X239608917Y-143460748D01*
X239442725Y-143432647D01*
X239277106Y-143382539D01*
X239225483Y-143361833D01*
X239083141Y-143289048D01*
X238916580Y-143182255D01*
X238726283Y-143041829D01*
X238512732Y-142868141D01*
X238276408Y-142661565D01*
X238048676Y-142451632D01*
X237781852Y-142200354D01*
X237736049Y-142371486D01*
X237664147Y-142589880D01*
X237575739Y-142769997D01*
X237471110Y-142911612D01*
X237350545Y-143014499D01*
X237214329Y-143078434D01*
X237062746Y-143103191D01*
X236896080Y-143088546D01*
X236844417Y-143076754D01*
X236733740Y-143044423D01*
X236627549Y-143004525D01*
X236521475Y-142954156D01*
X236411146Y-142890415D01*
X236292194Y-142810400D01*
X236160246Y-142711207D01*
X236010933Y-142589934D01*
X235839885Y-142443679D01*
X235682861Y-142305315D01*
X235566146Y-142201843D01*
X235457049Y-142105831D01*
X235360369Y-142021447D01*
X235280907Y-141952860D01*
X235223462Y-141904239D01*
X235193086Y-141879931D01*
X235134617Y-141838297D01*
X235173372Y-142012690D01*
X235219283Y-142264598D01*
X235240864Y-142495283D01*
X235238119Y-142701203D01*
X235211052Y-142878817D01*
X235172364Y-142997042D01*
X235129566Y-143070235D01*
X235062560Y-143155672D01*
X234981174Y-143243356D01*
X234895236Y-143323288D01*
X234814573Y-143385470D01*
X234761115Y-143415439D01*
X234616528Y-143453986D01*
X234452310Y-143459169D01*
X234273148Y-143432274D01*
X234083731Y-143374585D01*
X233888750Y-143287388D01*
X233692893Y-143171969D01*
X233579268Y-143091489D01*
X233475118Y-143009484D01*
X233348735Y-142904560D01*
X233207977Y-142783576D01*
X233060699Y-142653390D01*
X232914759Y-142520860D01*
X232778015Y-142392845D01*
X232768656Y-142383910D01*
X232598145Y-142220897D01*
X232607191Y-142410111D01*
X232601549Y-142613037D01*
X232562935Y-142791619D01*
X232489857Y-142949816D01*
X232380824Y-143091586D01*
X232332408Y-143139434D01*
X232235535Y-143221048D01*
X232141950Y-143279513D01*
X232041625Y-143318175D01*
X231924534Y-143340381D01*
X231780649Y-143349476D01*
X231700917Y-143350174D01*
X231600033Y-143349442D01*
X231521562Y-143346634D01*
X231454694Y-143339733D01*
X231388618Y-143326726D01*
X231312526Y-143305599D01*
X231215608Y-143274336D01*
X231118834Y-143241699D01*
X230839228Y-143140786D01*
X230528996Y-143017572D01*
X230192259Y-142873936D01*
X229833138Y-142711758D01*
X229455755Y-142532915D01*
X229064232Y-142339286D01*
X228662690Y-142132751D01*
X228515334Y-142054993D01*
X228329059Y-141955286D01*
X228176093Y-141871221D01*
X228051866Y-141799543D01*
X227951805Y-141736996D01*
X227871339Y-141680325D01*
X227805897Y-141626274D01*
X227750906Y-141571587D01*
X227701797Y-141513008D01*
X227653997Y-141447282D01*
X227646282Y-141436056D01*
X227583297Y-141333756D01*
X227547694Y-141249034D01*
X227536595Y-141194742D01*
X227532050Y-141134478D01*
X227539784Y-141102032D01*
X227565193Y-141083453D01*
X227582348Y-141076461D01*
X227650332Y-141070461D01*
X227747880Y-141091936D01*
X227872961Y-141140189D01*
X228023539Y-141214525D01*
X228085484Y-141248600D01*
X228372400Y-141400776D01*
X228691369Y-141553008D01*
X229032309Y-141701286D01*
X229385135Y-141841600D01*
X229739764Y-141969940D01*
X230086112Y-142082296D01*
X230414095Y-142174657D01*
X230414158Y-142174674D01*
X230680429Y-142236859D01*
X230911471Y-142277628D01*
X231107102Y-142297010D01*
X231267139Y-142295035D01*
X231391398Y-142271732D01*
X231479697Y-142227131D01*
X231531852Y-142161263D01*
X231547680Y-142074156D01*
X231535059Y-141992861D01*
X231512042Y-141922967D01*
X231485092Y-141862566D01*
X231477226Y-141849187D01*
X231444433Y-141799140D01*
X231355717Y-141895765D01*
X231242561Y-141993417D01*
X231117733Y-142051483D01*
X230979315Y-142070377D01*
X230825389Y-142050510D01*
X230744875Y-142027140D01*
X230667256Y-141997078D01*
X230560156Y-141950089D01*
X230431031Y-141889932D01*
X230287334Y-141820365D01*
X230136522Y-141745147D01*
X229986047Y-141668036D01*
X229843366Y-141592793D01*
X229715933Y-141523174D01*
X229611203Y-141462940D01*
X229548918Y-141424130D01*
X229399531Y-141316043D01*
X229262391Y-141198899D01*
X229144279Y-141079485D01*
X229051976Y-140964587D01*
X228997062Y-140871706D01*
X228959781Y-140777019D01*
X228943247Y-140687938D01*
X228940988Y-140610166D01*
X228948159Y-140554341D01*
X230092250Y-140554341D01*
X230107624Y-140598578D01*
X230148713Y-140659912D01*
X230207964Y-140729259D01*
X230277826Y-140797532D01*
X230330472Y-140840935D01*
X230386432Y-140878679D01*
X230462777Y-140924266D01*
X230550040Y-140972740D01*
X230638755Y-141019147D01*
X230719454Y-141058534D01*
X230782670Y-141085944D01*
X230818650Y-141096417D01*
X230819653Y-141082112D01*
X230799654Y-141046199D01*
X230794473Y-141038727D01*
X230742205Y-140976435D01*
X230666543Y-140899939D01*
X230578625Y-140819520D01*
X230489591Y-140745461D01*
X230425023Y-140697687D01*
X230345489Y-140647479D01*
X230265168Y-140603831D01*
X230192002Y-140570164D01*
X230133936Y-140549900D01*
X230098911Y-140546459D01*
X230092250Y-140554341D01*
X228948159Y-140554341D01*
X228960681Y-140456861D01*
X229012875Y-140291668D01*
D11*
X329247500Y-60007500D03*
X335597500Y-62547500D03*
X310197500Y-60007500D03*
X316547500Y-62547500D03*
X291147500Y-60007500D03*
X297497500Y-62547500D03*
X272097500Y-60007500D03*
X278447500Y-62547500D03*
X253047500Y-60007500D03*
X259397500Y-62547500D03*
X233997500Y-60007500D03*
X240347500Y-62547500D03*
X214947500Y-60007500D03*
X221297500Y-62547500D03*
X195897500Y-60007500D03*
X202247500Y-62547500D03*
X176847500Y-60007500D03*
X183197500Y-62547500D03*
X157797500Y-60007500D03*
X164147500Y-62547500D03*
X138747500Y-60007500D03*
X145097500Y-62547500D03*
X119697500Y-60007500D03*
X126047500Y-62547500D03*
X100647500Y-60007500D03*
X106997500Y-62547500D03*
X72072500Y-60007500D03*
X78422500Y-62547500D03*
X300672500Y-79057500D03*
X307022500Y-81597500D03*
X281622500Y-79057500D03*
X287972500Y-81597500D03*
X262572500Y-79057500D03*
X268922500Y-81597500D03*
X243522500Y-79057500D03*
X249872500Y-81597500D03*
X224472500Y-79057500D03*
X230822500Y-81597500D03*
X205422500Y-79057500D03*
X211772500Y-81597500D03*
X186372500Y-79057500D03*
X192722500Y-81597500D03*
X167322500Y-79057500D03*
X173672500Y-81597500D03*
X148272500Y-79057500D03*
X154622500Y-81597500D03*
X129222500Y-79057500D03*
X135572500Y-81597500D03*
X110172500Y-79057500D03*
X116522500Y-81597500D03*
X91122500Y-79057500D03*
X97472500Y-81597500D03*
X62547500Y-60007500D03*
X68897500Y-62547500D03*
X276860000Y-98107500D03*
X283210000Y-100647500D03*
X257810000Y-98107500D03*
X264160000Y-100647500D03*
X238760000Y-98107500D03*
X245110000Y-100647500D03*
X219710000Y-98107500D03*
X226060000Y-100647500D03*
X181610000Y-98107500D03*
X187960000Y-100647500D03*
X162560000Y-98107500D03*
X168910000Y-100647500D03*
X143510000Y-98107500D03*
X149860000Y-100647500D03*
X124460000Y-98107500D03*
X130810000Y-100647500D03*
X105410000Y-98107500D03*
X111760000Y-100647500D03*
X67310000Y-79057500D03*
X73660000Y-81597500D03*
X317341250Y-117157500D03*
X323691250Y-119697500D03*
X286385000Y-117157500D03*
X292735000Y-119697500D03*
X267335000Y-117157500D03*
X273685000Y-119697500D03*
X210185000Y-117157500D03*
X216535000Y-119697500D03*
X191135000Y-117157500D03*
X197485000Y-119697500D03*
X172085000Y-117157500D03*
X178435000Y-119697500D03*
X153035000Y-117157500D03*
X159385000Y-119697500D03*
X133985000Y-117157500D03*
X140335000Y-119697500D03*
X114935000Y-117157500D03*
X121285000Y-119697500D03*
X79216250Y-117157500D03*
X85566250Y-119697500D03*
X62547500Y-117157500D03*
X68897500Y-119697500D03*
X326866250Y-136207500D03*
X333216250Y-138747500D03*
X303053750Y-136207500D03*
X309403750Y-138747500D03*
X279241250Y-136207500D03*
X285591250Y-138747500D03*
X136366250Y-136207500D03*
X142716250Y-138747500D03*
X112553750Y-136207500D03*
X118903750Y-138747500D03*
X64928750Y-136207500D03*
X71278750Y-138747500D03*
X81597500Y-60007500D03*
X87947500Y-62547500D03*
X64928750Y-88582500D03*
X71278750Y-91122500D03*
X326866250Y-117157500D03*
X333216250Y-119697500D03*
X88741250Y-117157500D03*
X95091250Y-119697500D03*
X324485000Y-136207500D03*
X330835000Y-138747500D03*
X300672500Y-136207500D03*
X307022500Y-138747500D03*
X114935000Y-136207500D03*
X121285000Y-138747500D03*
X91122500Y-136207500D03*
X97472500Y-138747500D03*
X67310000Y-136207500D03*
X73660000Y-138747500D03*
X305435000Y-117157500D03*
X311785000Y-119697500D03*
X86360000Y-98107500D03*
X92710000Y-100647500D03*
X195897500Y-136207500D03*
X202247500Y-138747500D03*
X207803750Y-136207500D03*
X214153750Y-138747500D03*
X229235000Y-117157500D03*
X235585000Y-119697500D03*
X248285000Y-117157500D03*
X254635000Y-119697500D03*
D12*
X324802500Y-109918500D03*
D13*
X324802500Y-112458500D03*
X322262500Y-109918500D03*
X322262500Y-112458500D03*
X319722500Y-109918500D03*
X319722500Y-112458500D03*
D11*
X74453750Y-98107500D03*
X80803750Y-100647500D03*
X322103750Y-98107500D03*
X328453750Y-100647500D03*
X324485000Y-79057500D03*
X330835000Y-81597500D03*
X326866250Y-98107500D03*
X333216250Y-100647500D03*
X200660000Y-98107500D03*
X207010000Y-100647500D03*
X295910000Y-98107500D03*
X302260000Y-100647500D03*
X276860000Y-136207500D03*
X283210000Y-138747500D03*
X88741250Y-136207500D03*
X95091250Y-138747500D03*
D14*
X318071500Y-98361500D03*
X306451000Y-99314000D03*
X306451000Y-97536000D03*
X322643500Y-91503500D03*
X315912500Y-73850500D03*
X315244750Y-76931250D03*
X320929000Y-87757000D03*
X308706250Y-106425000D03*
X314072000Y-106425000D03*
X313372500Y-112077500D03*
X316706250Y-130397250D03*
X316992000Y-98933000D03*
X308292500Y-97218500D03*
X318389000Y-91757500D03*
X319722500Y-97218500D03*
X308292500Y-89725500D03*
X315912500Y-97726500D03*
X318008000Y-86614000D03*
X335216500Y-109283500D03*
X312102500Y-109664500D03*
X324696901Y-87164099D03*
X313880500Y-109664500D03*
X325882000Y-90424000D03*
X325247000Y-90932000D03*
X330644500Y-109537500D03*
X326453500Y-89979500D03*
D15*
X319722500Y-112458500D02*
X318071500Y-110807500D01*
X318071500Y-110807500D02*
X318071500Y-98361500D01*
X306451000Y-97536000D02*
X306451000Y-99314000D01*
D16*
X322643500Y-88433986D02*
X315912500Y-81702986D01*
X315912500Y-81702986D02*
X315912500Y-73850500D01*
X322643500Y-91503500D02*
X322643500Y-88433986D01*
X320929000Y-87503000D02*
X315244750Y-81818750D01*
X320929000Y-87757000D02*
X320929000Y-87503000D01*
X315244750Y-81818750D02*
X315244750Y-76931250D01*
X313945000Y-106425000D02*
X308706250Y-106425000D01*
X313372500Y-117157500D02*
X316649090Y-120434090D01*
X316649090Y-130340090D02*
X316649090Y-120434090D01*
X313372500Y-112077500D02*
X313372500Y-117157500D01*
X316706250Y-130397250D02*
X316649090Y-130340090D01*
X324485000Y-64770000D02*
X324485000Y-79057500D01*
X329247500Y-60007500D02*
X324485000Y-64770000D01*
X317341250Y-118014750D02*
X317055500Y-118300500D01*
X317055500Y-128778000D02*
X324485000Y-136207500D01*
X317055500Y-118300500D02*
X317055500Y-128778000D01*
X324040500Y-96170750D02*
X324040500Y-79502000D01*
X317341250Y-117157500D02*
X317341250Y-99282250D01*
X324040500Y-79502000D02*
X324485000Y-79057500D01*
X324485000Y-136207500D02*
X326866250Y-136207500D01*
X317341250Y-117157500D02*
X317341250Y-118014750D01*
X322103750Y-98107500D02*
X324040500Y-96170750D01*
X316992000Y-98933000D02*
X317341250Y-99282250D01*
X300672500Y-79057500D02*
X300672500Y-79946500D01*
X300164500Y-80200500D02*
X300164500Y-93853000D01*
X295910000Y-98107500D02*
X295910000Y-98933000D01*
X295402000Y-99441000D02*
X295402000Y-107124500D01*
X304927000Y-134334250D02*
X303053750Y-136207500D01*
X308401449Y-60007500D02*
X300672500Y-67736449D01*
X300164500Y-93853000D02*
X295910000Y-98107500D01*
X303053750Y-136207500D02*
X300672500Y-136207500D01*
X300672500Y-67736449D02*
X300672500Y-79057500D01*
X300672500Y-79692500D02*
X300164500Y-80200500D01*
X310197500Y-60007500D02*
X308401449Y-60007500D01*
X295910000Y-98933000D02*
X295402000Y-99441000D01*
X305435000Y-117157500D02*
X305435000Y-118364000D01*
X304927000Y-118872000D02*
X304927000Y-134334250D01*
X305435000Y-118364000D02*
X304927000Y-118872000D01*
X295402000Y-107124500D02*
X305435000Y-117157500D01*
X281622500Y-67500500D02*
X281622500Y-79057500D01*
X286385000Y-117157500D02*
X286385000Y-117983000D01*
X281051000Y-80264000D02*
X281051000Y-93916500D01*
X291147500Y-60007500D02*
X289115500Y-60007500D01*
X289115500Y-60007500D02*
X281622500Y-67500500D01*
X276860000Y-98107500D02*
X276860000Y-98933000D01*
X286385000Y-117983000D02*
X285877000Y-118491000D01*
X276860000Y-98933000D02*
X276352000Y-99441000D01*
X279241250Y-136207500D02*
X276860000Y-136207500D01*
X281622500Y-79057500D02*
X281622500Y-79692500D01*
X276352000Y-99441000D02*
X276352000Y-107124500D01*
X281622500Y-79692500D02*
X281051000Y-80264000D01*
X281051000Y-93916500D02*
X276860000Y-98107500D01*
X285877000Y-118491000D02*
X285877000Y-129571750D01*
X276352000Y-107124500D02*
X286385000Y-117157500D01*
X285877000Y-129571750D02*
X279241250Y-136207500D01*
X262001000Y-93916500D02*
X257810000Y-98107500D01*
X272097500Y-60007500D02*
X270301449Y-60007500D01*
X262572500Y-67736449D02*
X262572500Y-79057500D01*
X257810000Y-98107500D02*
X257810000Y-98806000D01*
X262001000Y-80518000D02*
X262001000Y-93916500D01*
X262572500Y-79057500D02*
X262572500Y-79946500D01*
X257302000Y-99314000D02*
X257302000Y-107124500D01*
X257810000Y-98806000D02*
X257302000Y-99314000D01*
X262572500Y-79946500D02*
X262001000Y-80518000D01*
X257302000Y-107124500D02*
X267335000Y-117157500D01*
X270301449Y-60007500D02*
X262572500Y-67736449D01*
X238760000Y-98107500D02*
X238760000Y-99060000D01*
X243522500Y-67736449D02*
X243522500Y-79057500D01*
X238125000Y-106997500D02*
X248285000Y-117157500D01*
X253047500Y-60007500D02*
X251251449Y-60007500D01*
X243522500Y-80073500D02*
X242951000Y-80645000D01*
X243522500Y-79057500D02*
X243522500Y-80073500D01*
X242951000Y-93916500D02*
X238760000Y-98107500D01*
X238125000Y-99695000D02*
X238125000Y-106997500D01*
X242951000Y-80645000D02*
X242951000Y-93916500D01*
X238760000Y-99060000D02*
X238125000Y-99695000D01*
X251251449Y-60007500D02*
X243522500Y-67736449D01*
X219710000Y-98107500D02*
X219710000Y-98806000D01*
X223901000Y-80391000D02*
X223901000Y-93916500D01*
X224472500Y-79819500D02*
X223901000Y-80391000D01*
X224472500Y-67736449D02*
X224472500Y-79057500D01*
X219202000Y-99314000D02*
X219202000Y-107124500D01*
X232201449Y-60007500D02*
X224472500Y-67736449D01*
X219710000Y-98806000D02*
X219202000Y-99314000D01*
X224472500Y-79057500D02*
X224472500Y-79819500D01*
X223901000Y-93916500D02*
X219710000Y-98107500D01*
X233997500Y-60007500D02*
X232201449Y-60007500D01*
X219202000Y-107124500D02*
X229235000Y-117157500D01*
X205422500Y-67736449D02*
X205422500Y-79057500D01*
X210185000Y-117983000D02*
X209677000Y-118491000D01*
X200660000Y-98806000D02*
X200152000Y-99314000D01*
X205422500Y-80200500D02*
X204978000Y-80645000D01*
X209677000Y-134334250D02*
X207803750Y-136207500D01*
X205422500Y-79057500D02*
X205422500Y-80200500D01*
X204978000Y-80645000D02*
X204978000Y-93789500D01*
X214947500Y-60007500D02*
X213151449Y-60007500D01*
X209677000Y-118491000D02*
X209677000Y-134334250D01*
X204978000Y-93789500D02*
X200660000Y-98107500D01*
X213151449Y-60007500D02*
X205422500Y-67736449D01*
X200660000Y-98107500D02*
X200660000Y-98806000D01*
X200152000Y-99314000D02*
X200152000Y-107124500D01*
X200152000Y-107124500D02*
X210185000Y-117157500D01*
X185801000Y-93916500D02*
X181610000Y-98107500D01*
X181610000Y-98107500D02*
X181610000Y-98806000D01*
X185801000Y-80518000D02*
X185801000Y-93916500D01*
X181610000Y-98806000D02*
X181102000Y-99314000D01*
X181102000Y-99314000D02*
X181102000Y-107124500D01*
X181102000Y-107124500D02*
X191135000Y-117157500D01*
X186372500Y-79057500D02*
X186372500Y-79946500D01*
X194101449Y-60007500D02*
X186372500Y-67736449D01*
X195897500Y-60007500D02*
X194101449Y-60007500D01*
X186372500Y-79946500D02*
X185801000Y-80518000D01*
X186372500Y-67736449D02*
X186372500Y-79057500D01*
X166751000Y-80518000D02*
X166751000Y-93916500D01*
X175051449Y-60007500D02*
X167322500Y-67736449D01*
X166751000Y-93916500D02*
X162560000Y-98107500D01*
X162560000Y-98107500D02*
X162560000Y-98679000D01*
X176847500Y-60007500D02*
X175051449Y-60007500D01*
X167322500Y-79057500D02*
X167322500Y-79946500D01*
X167322500Y-67736449D02*
X167322500Y-79057500D01*
X162052000Y-107124500D02*
X172085000Y-117157500D01*
X167322500Y-79946500D02*
X166751000Y-80518000D01*
X162052000Y-99187000D02*
X162052000Y-107124500D01*
X162560000Y-98679000D02*
X162052000Y-99187000D01*
X147701000Y-93916500D02*
X143510000Y-98107500D01*
X147701000Y-80518000D02*
X147701000Y-93916500D01*
X153035000Y-117157500D02*
X153035000Y-117983000D01*
X148272500Y-67500500D02*
X148272500Y-79057500D01*
X143510000Y-98552000D02*
X143002000Y-99060000D01*
X144716500Y-136207500D02*
X136366250Y-136207500D01*
X152463500Y-128460500D02*
X144716500Y-136207500D01*
X148272500Y-79946500D02*
X147701000Y-80518000D01*
X143002000Y-107124500D02*
X153035000Y-117157500D01*
X152463500Y-118554500D02*
X152463500Y-128460500D01*
X153035000Y-117983000D02*
X152463500Y-118554500D01*
X155765500Y-60007500D02*
X148272500Y-67500500D01*
X143510000Y-98107500D02*
X143510000Y-98552000D01*
X143002000Y-99060000D02*
X143002000Y-107124500D01*
X148272500Y-79057500D02*
X148272500Y-79946500D01*
X157797500Y-60007500D02*
X155765500Y-60007500D01*
X125412500Y-136207500D02*
X114935000Y-136207500D01*
X128651000Y-93916500D02*
X124460000Y-98107500D01*
X123952000Y-99568000D02*
X123952000Y-107124500D01*
X138747500Y-60007500D02*
X136951449Y-60007500D01*
X129222500Y-79819500D02*
X128651000Y-80391000D01*
X129222500Y-79057500D02*
X129222500Y-79819500D01*
X124460000Y-98107500D02*
X124460000Y-99060000D01*
X136951449Y-60007500D02*
X129222500Y-67736449D01*
X133413500Y-128206500D02*
X125412500Y-136207500D01*
X133985000Y-117157500D02*
X133985000Y-117856000D01*
X129222500Y-67736449D02*
X129222500Y-79057500D01*
X123952000Y-107124500D02*
X133985000Y-117157500D01*
X124460000Y-99060000D02*
X123952000Y-99568000D01*
X128651000Y-80391000D02*
X128651000Y-93916500D01*
X133985000Y-117856000D02*
X133413500Y-118427500D01*
X114935000Y-136207500D02*
X112553750Y-136207500D01*
X133413500Y-118427500D02*
X133413500Y-128206500D01*
X104902000Y-99314000D02*
X104902000Y-107124500D01*
X109601000Y-93916500D02*
X105410000Y-98107500D01*
X119697500Y-60007500D02*
X117792500Y-60007500D01*
X110172500Y-67627500D02*
X110172500Y-79057500D01*
X91122500Y-136207500D02*
X88741250Y-136207500D01*
X114935000Y-117157500D02*
X114935000Y-117729000D01*
X109601000Y-80391000D02*
X109601000Y-93916500D01*
X105410000Y-98806000D02*
X104902000Y-99314000D01*
X91122500Y-136207500D02*
X105473500Y-136207500D01*
X105410000Y-98107500D02*
X105410000Y-98806000D01*
X114363500Y-127317500D02*
X105473500Y-136207500D01*
X110172500Y-79819500D02*
X109601000Y-80391000D01*
X114935000Y-117729000D02*
X114363500Y-118300500D01*
X104902000Y-107124500D02*
X114935000Y-117157500D01*
X110172500Y-79057500D02*
X110172500Y-79819500D01*
X117792500Y-60007500D02*
X110172500Y-67627500D01*
X114363500Y-118300500D02*
X114363500Y-127317500D01*
X91122500Y-67736449D02*
X91122500Y-79057500D01*
X91122500Y-79057500D02*
X91122500Y-88455500D01*
X79216250Y-118268750D02*
X78613000Y-118872000D01*
X78613000Y-118872000D02*
X78613000Y-128905000D01*
X95440500Y-108902500D02*
X88741250Y-115601750D01*
X91122500Y-88455500D02*
X95440500Y-92773500D01*
X95440500Y-92773500D02*
X95440500Y-108902500D01*
X88741250Y-115601750D02*
X88741250Y-117157500D01*
X71310500Y-136207500D02*
X64928750Y-136207500D01*
X79216250Y-117157500D02*
X79216250Y-118268750D01*
X98851449Y-60007500D02*
X91122500Y-67736449D01*
X100647500Y-60007500D02*
X98851449Y-60007500D01*
X78613000Y-128905000D02*
X71310500Y-136207500D01*
X58039000Y-112649000D02*
X58039000Y-64516000D01*
X86360000Y-98107500D02*
X74453750Y-98107500D01*
X58039000Y-64516000D02*
X62547500Y-60007500D01*
X58039000Y-112649000D02*
X62547500Y-117157500D01*
X72072500Y-60007500D02*
X81597500Y-60007500D01*
D15*
X308292500Y-89725500D02*
X308292500Y-87249000D01*
X318389000Y-91757500D02*
X318389000Y-86995000D01*
X318389000Y-86995000D02*
X318008000Y-86614000D01*
X308292500Y-97345500D02*
X308292500Y-97218500D01*
X308292500Y-97218500D02*
X308292500Y-89725500D01*
X319722500Y-97218500D02*
X319214500Y-97726500D01*
X308927500Y-86614000D02*
X308292500Y-87249000D01*
X318008000Y-86614000D02*
X308927500Y-86614000D01*
X319214500Y-97726500D02*
X308673500Y-97726500D01*
X308673500Y-97726500D02*
X308292500Y-97345500D01*
D16*
X338315316Y-106001858D02*
X338315318Y-94094318D01*
X327341230Y-89808428D02*
X324696901Y-87164099D01*
X313880500Y-109664500D02*
X312102500Y-109664500D01*
X335220256Y-89808428D02*
X338315316Y-92903488D01*
X335220256Y-89808428D02*
X327341230Y-89808428D01*
X335252087Y-109065087D02*
X335216500Y-109100674D01*
X338315318Y-94094318D02*
X338315316Y-92903488D01*
X338315316Y-106001858D02*
X335252087Y-109065087D01*
X335216500Y-109100674D02*
X335216500Y-109283500D01*
X337502499Y-93240171D02*
X337502498Y-105666560D01*
X325882000Y-90424000D02*
X326079248Y-90621248D01*
X326079248Y-90621248D02*
X334883576Y-90621248D01*
X337502498Y-105666560D02*
X334241637Y-108927420D01*
X323532500Y-111188500D02*
X322262500Y-112458500D01*
X334241637Y-108927420D02*
X329882500Y-108927420D01*
X327621420Y-111188500D02*
X323532500Y-111188500D01*
X329882500Y-108927420D02*
X327621420Y-111188500D01*
X334883576Y-90621248D02*
X337502499Y-93240171D01*
X337096089Y-93408511D02*
X334715236Y-91027658D01*
X325342658Y-91027658D02*
X325247000Y-90932000D01*
X337096089Y-105498911D02*
X337096089Y-93408511D01*
X322262500Y-109918500D02*
X323659500Y-108521500D01*
X334073500Y-108521500D02*
X337096089Y-105498911D01*
X323659500Y-108521500D02*
X334073500Y-108521500D01*
X334715236Y-91027658D02*
X325342658Y-91027658D01*
X335051916Y-90214838D02*
X337908907Y-93071829D01*
X326453500Y-89979500D02*
X326490824Y-89979500D01*
X326490824Y-89979500D02*
X326726162Y-90214838D01*
X334409774Y-109333340D02*
X337908907Y-105834209D01*
X337908907Y-93071829D02*
X337908907Y-105834209D01*
X330848660Y-109333340D02*
X334409774Y-109333340D01*
X330848660Y-109333340D02*
X330708000Y-109474000D01*
X335051916Y-90214838D02*
X326726162Y-90214838D01*
X333216250Y-100647500D02*
X328453750Y-100647500D01*
X71278750Y-91122500D02*
X73025000Y-89376250D01*
X73025000Y-89376250D02*
X73025000Y-82232500D01*
X73450449Y-81807051D02*
X73450449Y-81597500D01*
X73025000Y-82232500D02*
X73450449Y-81807051D01*
X85566250Y-119697500D02*
X95091250Y-119697500D01*
X214153750Y-138747500D02*
X202247500Y-138747500D01*
M02*
