G04 #@! TF.GenerationSoftware,KiCad,Pcbnew,(6.0.1)*
G04 #@! TF.CreationDate,2022-07-28T02:40:33-06:00*
G04 #@! TF.ProjectId,nue-pcb,6e75652d-7063-4622-9e6b-696361645f70,0.1*
G04 #@! TF.SameCoordinates,Original*
G04 #@! TF.FileFunction,Paste,Top*
G04 #@! TF.FilePolarity,Positive*
%FSLAX46Y46*%
G04 Gerber Fmt 4.6, Leading zero omitted, Abs format (unit mm)*
G04 Created by KiCad (PCBNEW (6.0.1)) date 2022-07-28 02:40:33*
%MOMM*%
%LPD*%
G01*
G04 APERTURE LIST*
G04 Aperture macros list*
%AMRoundRect*
0 Rectangle with rounded corners*
0 $1 Rounding radius*
0 $2 $3 $4 $5 $6 $7 $8 $9 X,Y pos of 4 corners*
0 Add a 4 corners polygon primitive as box body*
4,1,4,$2,$3,$4,$5,$6,$7,$8,$9,$2,$3,0*
0 Add four circle primitives for the rounded corners*
1,1,$1+$1,$2,$3*
1,1,$1+$1,$4,$5*
1,1,$1+$1,$6,$7*
1,1,$1+$1,$8,$9*
0 Add four rect primitives between the rounded corners*
20,1,$1+$1,$2,$3,$4,$5,0*
20,1,$1+$1,$4,$5,$6,$7,0*
20,1,$1+$1,$6,$7,$8,$9,0*
20,1,$1+$1,$8,$9,$2,$3,0*%
G04 Aperture macros list end*
%ADD10R,1.200000X0.900000*%
%ADD11R,1.200000X0.600000*%
%ADD12R,1.800000X0.800000*%
%ADD13RoundRect,0.225000X-0.250000X0.225000X-0.250000X-0.225000X0.250000X-0.225000X0.250000X0.225000X0*%
%ADD14RoundRect,0.225000X0.250000X-0.225000X0.250000X0.225000X-0.250000X0.225000X-0.250000X-0.225000X0*%
%ADD15RoundRect,0.225000X0.225000X0.250000X-0.225000X0.250000X-0.225000X-0.250000X0.225000X-0.250000X0*%
%ADD16RoundRect,0.200000X0.275000X-0.200000X0.275000X0.200000X-0.275000X0.200000X-0.275000X-0.200000X0*%
%ADD17RoundRect,0.200000X-0.200000X-0.275000X0.200000X-0.275000X0.200000X0.275000X-0.200000X0.275000X0*%
%ADD18R,1.500000X0.550000*%
%ADD19RoundRect,0.225000X-0.225000X-0.250000X0.225000X-0.250000X0.225000X0.250000X-0.225000X0.250000X0*%
%ADD20RoundRect,0.250000X0.275000X0.275000X-0.275000X0.275000X-0.275000X-0.275000X0.275000X-0.275000X0*%
%ADD21RoundRect,0.062500X0.475000X0.062500X-0.475000X0.062500X-0.475000X-0.062500X0.475000X-0.062500X0*%
%ADD22RoundRect,0.062500X0.062500X0.475000X-0.062500X0.475000X-0.062500X-0.475000X0.062500X-0.475000X0*%
%ADD23R,1.150000X1.000000*%
G04 APERTURE END LIST*
D10*
X334899000Y-68325000D03*
X334899000Y-65025000D03*
X319881250Y-68325000D03*
X319881250Y-65025000D03*
X300831250Y-68325000D03*
X300831250Y-65025000D03*
X281781250Y-68325000D03*
X281781250Y-65025000D03*
X262731250Y-68325000D03*
X262731250Y-65025000D03*
X243681250Y-68325000D03*
X243681250Y-65025000D03*
X224631250Y-68325000D03*
X224631250Y-65025000D03*
X205581250Y-68325000D03*
X205581250Y-65025000D03*
X186531250Y-68325000D03*
X186531250Y-65025000D03*
X167481250Y-68325000D03*
X167481250Y-65025000D03*
X148431250Y-68325000D03*
X148431250Y-65025000D03*
X129381250Y-68325000D03*
X129381250Y-65025000D03*
X110331250Y-68325000D03*
X110331250Y-65025000D03*
X92868750Y-68325000D03*
X92868750Y-65025000D03*
X320675000Y-76931250D03*
X320675000Y-80231250D03*
X304101500Y-76931250D03*
X304101500Y-80231250D03*
X292893750Y-76931250D03*
X292893750Y-80231250D03*
X273843750Y-76931250D03*
X273843750Y-80231250D03*
X254793750Y-76931250D03*
X254793750Y-80231250D03*
X235743750Y-76931250D03*
X235743750Y-80231250D03*
X216693750Y-76931250D03*
X216693750Y-80231250D03*
X197643750Y-76931250D03*
X197643750Y-80231250D03*
X178593750Y-76931250D03*
X178593750Y-80231250D03*
X159543750Y-76931250D03*
X159543750Y-80231250D03*
X140493750Y-76931250D03*
X140493750Y-80231250D03*
X121443750Y-76931250D03*
X121443750Y-80231250D03*
X102393750Y-76931250D03*
X102393750Y-80231250D03*
X336550000Y-106425000D03*
X336550000Y-103125000D03*
X305593750Y-106425000D03*
X305593750Y-103125000D03*
X286543750Y-106425000D03*
X286543750Y-103125000D03*
X267493750Y-106425000D03*
X267493750Y-103125000D03*
X248443750Y-106425000D03*
X248443750Y-103125000D03*
X229393750Y-106425000D03*
X229393750Y-103125000D03*
X210343750Y-106425000D03*
X210343750Y-103125000D03*
X191293750Y-106425000D03*
X191293750Y-103125000D03*
X172243750Y-106425000D03*
X172243750Y-103125000D03*
X153193750Y-106425000D03*
X153193750Y-103125000D03*
X134143750Y-106425000D03*
X134143750Y-103125000D03*
X96043750Y-106425000D03*
X96043750Y-103125000D03*
X336867500Y-125538500D03*
X336867500Y-122238500D03*
X300831250Y-125475000D03*
X300831250Y-122175000D03*
X296068750Y-125475000D03*
X296068750Y-122175000D03*
X277018750Y-125475000D03*
X277018750Y-122175000D03*
X257968750Y-125475000D03*
X257968750Y-122175000D03*
X238918750Y-125475000D03*
X238918750Y-122175000D03*
X219868750Y-125475000D03*
X219868750Y-122175000D03*
X200818750Y-125475000D03*
X200818750Y-122175000D03*
X181768750Y-125475000D03*
X181768750Y-122175000D03*
X162718750Y-125475000D03*
X162718750Y-122175000D03*
X143668750Y-125475000D03*
X143668750Y-122175000D03*
X124618750Y-125475000D03*
X124618750Y-122175000D03*
X99218750Y-125475000D03*
X99218750Y-122175000D03*
X78613000Y-125475000D03*
X78613000Y-122175000D03*
X336550000Y-133287500D03*
X336550000Y-136587500D03*
X316706250Y-133287500D03*
X316706250Y-136587500D03*
X293687500Y-133287500D03*
X293687500Y-136587500D03*
X223043750Y-130906250D03*
X223043750Y-134206250D03*
X150812500Y-130906250D03*
X150812500Y-134206250D03*
X103981250Y-133287500D03*
X103981250Y-136587500D03*
X80962500Y-133287500D03*
X80962500Y-136587500D03*
X71818500Y-76643500D03*
X71818500Y-73343500D03*
X127000000Y-133287500D03*
X127000000Y-136587500D03*
D11*
X333181250Y-71525000D03*
X333181250Y-72525000D03*
X333181250Y-73525000D03*
X333181250Y-74525000D03*
D12*
X330081250Y-70225000D03*
X330081250Y-75825000D03*
D13*
X318579500Y-94919500D03*
X318579500Y-96469500D03*
D14*
X318071500Y-85674500D03*
X318071500Y-84124500D03*
D15*
X307162500Y-96329500D03*
X305612500Y-96329500D03*
D16*
X333692500Y-111251500D03*
X333692500Y-109601500D03*
D17*
X305562500Y-94805500D03*
X307212500Y-94805500D03*
X335661500Y-72326500D03*
X337311500Y-72326500D03*
X335661500Y-73850500D03*
X337311500Y-73850500D03*
D18*
X310356250Y-100768750D03*
X310356250Y-104018750D03*
D19*
X319455500Y-92011500D03*
X321005500Y-92011500D03*
D15*
X306895500Y-89979500D03*
X305345500Y-89979500D03*
D20*
X315235500Y-90351000D03*
X311335500Y-91651000D03*
X313935500Y-92951000D03*
X313935500Y-94251000D03*
X315235500Y-91651000D03*
X311335500Y-90351000D03*
X311335500Y-94251000D03*
X312635500Y-94251000D03*
X315235500Y-94251000D03*
X315235500Y-92951000D03*
X311335500Y-92951000D03*
X312635500Y-90351000D03*
X312635500Y-92951000D03*
X313935500Y-90351000D03*
X312635500Y-91651000D03*
X313935500Y-91651000D03*
D21*
X316623000Y-94801000D03*
X316623000Y-94301000D03*
X316623000Y-93801000D03*
X316623000Y-93301000D03*
X316623000Y-92801000D03*
X316623000Y-92301000D03*
X316623000Y-91801000D03*
X316623000Y-91301000D03*
X316623000Y-90801000D03*
X316623000Y-90301000D03*
X316623000Y-89801000D03*
D22*
X315785500Y-88963500D03*
X315285500Y-88963500D03*
X314785500Y-88963500D03*
X314285500Y-88963500D03*
X313785500Y-88963500D03*
X313285500Y-88963500D03*
X312785500Y-88963500D03*
X312285500Y-88963500D03*
X311785500Y-88963500D03*
X311285500Y-88963500D03*
X310785500Y-88963500D03*
D21*
X309948000Y-89801000D03*
X309948000Y-90301000D03*
X309948000Y-90801000D03*
X309948000Y-91301000D03*
X309948000Y-91801000D03*
X309948000Y-92301000D03*
X309948000Y-92801000D03*
X309948000Y-93301000D03*
X309948000Y-93801000D03*
X309948000Y-94301000D03*
X309948000Y-94801000D03*
D22*
X310785500Y-95638500D03*
X311285500Y-95638500D03*
X311785500Y-95638500D03*
X312285500Y-95638500D03*
X312785500Y-95638500D03*
X313285500Y-95638500D03*
X313785500Y-95638500D03*
X314285500Y-95638500D03*
X314785500Y-95638500D03*
X315285500Y-95638500D03*
X315785500Y-95638500D03*
D15*
X315036500Y-81216500D03*
X313486500Y-81216500D03*
D14*
X311721500Y-84277500D03*
X311721500Y-82727500D03*
D23*
X313386500Y-84202500D03*
X315136500Y-84202500D03*
X315136500Y-82802500D03*
X313386500Y-82802500D03*
D10*
X80137000Y-106425000D03*
X80137000Y-103125000D03*
X115093750Y-106425000D03*
X115093750Y-103125000D03*
M02*
