G04 #@! TF.GenerationSoftware,KiCad,Pcbnew,(6.0.1)*
G04 #@! TF.CreationDate,2022-07-28T02:40:33-06:00*
G04 #@! TF.ProjectId,nue-pcb,6e75652d-7063-4622-9e6b-696361645f70,0.1*
G04 #@! TF.SameCoordinates,Original*
G04 #@! TF.FileFunction,Profile,NP*
%FSLAX46Y46*%
G04 Gerber Fmt 4.6, Leading zero omitted, Abs format (unit mm)*
G04 Created by KiCad (PCBNEW (6.0.1)) date 2022-07-28 02:40:33*
%MOMM*%
%LPD*%
G01*
G04 APERTURE LIST*
G04 #@! TA.AperFunction,Profile*
%ADD10C,0.200000*%
G04 #@! TD*
G04 APERTURE END LIST*
D10*
X104062500Y-54687500D02*
X83262500Y-54687500D01*
X341587601Y-70487826D02*
G75*
G03*
X340987601Y-71087826I0J-600000D01*
G01*
X140856249Y-55287527D02*
G75*
G03*
X142856253Y-53287531I4J2000000D01*
G01*
X340987601Y-91887826D02*
X340987601Y-71087826D01*
X142856253Y-153087468D02*
G75*
G03*
X140856249Y-151087472I-2000000J-4D01*
G01*
X108762500Y-53037500D02*
X108762500Y-53287500D01*
X51487499Y-94737499D02*
G75*
G03*
X53037499Y-96287499I1549998J-2D01*
G01*
X173056253Y-153087412D02*
X173056253Y-153337412D01*
X168966818Y-151087499D02*
G75*
G03*
X168366818Y-150487499I-600000J0D01*
G01*
X107212500Y-154887499D02*
X80112500Y-154887499D01*
X292812499Y-54687500D02*
X313612499Y-54687500D01*
X342187601Y-71087826D02*
X342187601Y-91887826D01*
X341587499Y-142287500D02*
X341587496Y-149087500D01*
X256018750Y-55287527D02*
X286112499Y-55287500D01*
X221818750Y-55287591D02*
G75*
G03*
X223818746Y-53287587I-4J2000000D01*
G01*
X171506256Y-154887415D02*
G75*
G03*
X173056253Y-153337412I-3J1550000D01*
G01*
X320312499Y-151087499D02*
G75*
G03*
X318312499Y-153087499I-1J-1999999D01*
G01*
X288112499Y-153337499D02*
G75*
G03*
X289662499Y-154887499I1549998J-2D01*
G01*
X288112499Y-153337499D02*
X288112499Y-153087499D01*
X228508181Y-55887500D02*
X249308181Y-55887500D01*
X249908181Y-55287500D02*
G75*
G03*
X249308181Y-54687500I-600000J0D01*
G01*
X254018745Y-53037531D02*
X254018746Y-53287531D01*
X343587499Y-66087499D02*
X343837499Y-66087499D01*
X345387499Y-111637500D02*
X345387499Y-138737500D01*
X144406256Y-51487534D02*
G75*
G03*
X142856253Y-53037531I-3J-1550000D01*
G01*
X76562500Y-55287500D02*
G75*
G03*
X78562500Y-53287500I1J1999999D01*
G01*
X108762500Y-153087499D02*
X108762500Y-153337499D01*
X54687397Y-135287173D02*
X54687397Y-114487173D01*
X286112499Y-151087499D02*
X256018750Y-151087472D01*
X142856253Y-53287531D02*
X142856253Y-53037531D01*
X55287397Y-70487826D02*
G75*
G03*
X54687397Y-71087826I0J-600000D01*
G01*
X53287500Y-140287500D02*
X53037499Y-140287500D01*
X249308181Y-55887500D02*
G75*
G03*
X249908181Y-55287500I0J600000D01*
G01*
X339587496Y-151087500D02*
G75*
G03*
X341587496Y-149087500I1J1999999D01*
G01*
X53037499Y-66087499D02*
X53287500Y-66087499D01*
X316762499Y-154887499D02*
G75*
G03*
X318312499Y-153337499I2J1549998D01*
G01*
X345387499Y-111637500D02*
G75*
G03*
X343837499Y-110087500I-1549998J2D01*
G01*
X168966818Y-55287500D02*
G75*
G03*
X168366818Y-54687500I-600000J0D01*
G01*
X147566818Y-151687499D02*
X168366818Y-151687499D01*
X249308181Y-151687499D02*
G75*
G03*
X249908181Y-151087499I0J600000D01*
G01*
X82662500Y-55287500D02*
G75*
G03*
X83262500Y-55887500I600000J0D01*
G01*
X55887397Y-114487173D02*
X55887397Y-135287173D01*
X144406256Y-51487534D02*
X171506256Y-51487584D01*
X55287397Y-92487826D02*
G75*
G03*
X55887397Y-91887826I0J600000D01*
G01*
X147566818Y-150487499D02*
G75*
G03*
X146966818Y-151087499I0J-600000D01*
G01*
X110762500Y-151087499D02*
G75*
G03*
X108762500Y-153087499I-1J-1999999D01*
G01*
X249308181Y-151687499D02*
X228508181Y-151687499D01*
X341587496Y-57287500D02*
X341587499Y-64087499D01*
X55287500Y-64087499D02*
X55287500Y-57287500D01*
X82662500Y-151087499D02*
G75*
G03*
X83262500Y-151687499I600000J0D01*
G01*
X288112499Y-153087499D02*
G75*
G03*
X286112499Y-151087499I-1999999J1D01*
G01*
X78562500Y-153337499D02*
X78562500Y-153087499D01*
X57287500Y-55287500D02*
X76562500Y-55287500D01*
X168366818Y-151687499D02*
G75*
G03*
X168966818Y-151087499I0J600000D01*
G01*
X53287500Y-96287499D02*
X53037499Y-96287499D01*
X140856249Y-151087472D02*
X110762500Y-151087499D01*
X53037499Y-110087500D02*
X53287500Y-110087500D01*
X318312499Y-153087499D02*
X318312499Y-153337499D01*
X313612499Y-151687499D02*
G75*
G03*
X314212499Y-151087499I0J600000D01*
G01*
X341587601Y-135887173D02*
G75*
G03*
X342187601Y-135287173I0J600000D01*
G01*
X57287500Y-55287500D02*
G75*
G03*
X55287500Y-57287500I-1J-1999999D01*
G01*
X345387499Y-67637499D02*
X345387499Y-94737499D01*
X343837499Y-140287500D02*
X343587499Y-140287500D01*
X289662499Y-51487500D02*
X316762499Y-51487500D01*
X342187601Y-71087826D02*
G75*
G03*
X341587601Y-70487826I-600000J0D01*
G01*
X292812499Y-151687499D02*
X313612499Y-151687499D01*
X340987601Y-91887826D02*
G75*
G03*
X341587601Y-92487826I600000J0D01*
G01*
X252468743Y-154887465D02*
X225368743Y-154887415D01*
X54687397Y-91887826D02*
G75*
G03*
X55287397Y-92487826I600000J0D01*
G01*
X318312499Y-53287500D02*
G75*
G03*
X320312499Y-55287500I1999999J-1D01*
G01*
X51487499Y-138737500D02*
G75*
G03*
X53037499Y-140287500I1549998J-2D01*
G01*
X173056253Y-53037587D02*
G75*
G03*
X171506256Y-51487584I-1550000J3D01*
G01*
X341587499Y-64087499D02*
G75*
G03*
X343587499Y-66087499I1999999J-1D01*
G01*
X228508181Y-150487499D02*
G75*
G03*
X227908181Y-151087499I0J-600000D01*
G01*
X110762500Y-55287500D02*
X140856249Y-55287527D01*
X228508181Y-54687500D02*
G75*
G03*
X227908181Y-55287500I0J-600000D01*
G01*
X292212499Y-151087499D02*
G75*
G03*
X292812499Y-151687499I600000J0D01*
G01*
X53287500Y-66087499D02*
G75*
G03*
X55287500Y-64087499I1J1999999D01*
G01*
X83262500Y-150487499D02*
G75*
G03*
X82662500Y-151087499I0J-600000D01*
G01*
X343587499Y-96287499D02*
G75*
G03*
X341587499Y-98287499I-1J-1999999D01*
G01*
X53037499Y-66087499D02*
G75*
G03*
X51487499Y-67637499I-2J-1549998D01*
G01*
X55887397Y-91887826D02*
X55887397Y-71087826D01*
X254018745Y-53037531D02*
G75*
G03*
X252468742Y-51487534I-1550000J-3D01*
G01*
X223818746Y-53287587D02*
X223818745Y-53037587D01*
X343587499Y-110087500D02*
X343837499Y-110087500D01*
X341587601Y-113887173D02*
G75*
G03*
X340987601Y-114487173I0J-600000D01*
G01*
X221818750Y-151087408D02*
X175056249Y-151087408D01*
X288112499Y-53287500D02*
X288112499Y-53037500D01*
X249908181Y-151087499D02*
G75*
G03*
X249308181Y-150487499I-600000J0D01*
G01*
X256018750Y-151087472D02*
G75*
G03*
X254018746Y-153087468I-4J-2000000D01*
G01*
X313612499Y-55887500D02*
G75*
G03*
X314212499Y-55287500I0J600000D01*
G01*
X289662499Y-51487500D02*
G75*
G03*
X288112499Y-53037500I-2J-1549998D01*
G01*
X83262500Y-54687500D02*
G75*
G03*
X82662500Y-55287500I0J-600000D01*
G01*
X55287500Y-149087499D02*
G75*
G03*
X57287500Y-151087499I1999999J-1D01*
G01*
X227908181Y-151087499D02*
G75*
G03*
X228508181Y-151687499I600000J0D01*
G01*
X168366818Y-55887500D02*
X147566818Y-55887500D01*
X318312499Y-53037500D02*
X318312499Y-53287500D01*
X254018746Y-153087468D02*
X254018745Y-153337468D01*
X175056249Y-151087408D02*
G75*
G03*
X173056253Y-153087412I4J-2000000D01*
G01*
X108762500Y-53037500D02*
G75*
G03*
X107212500Y-51487500I-1549998J2D01*
G01*
X313612499Y-55887500D02*
X292812499Y-55887500D01*
X107212500Y-154887499D02*
G75*
G03*
X108762500Y-153337499I2J1549998D01*
G01*
X341587496Y-57287500D02*
G75*
G03*
X339587496Y-55287500I-1999999J1D01*
G01*
X286112499Y-55287500D02*
G75*
G03*
X288112499Y-53287500I1J1999999D01*
G01*
X168366818Y-55887500D02*
G75*
G03*
X168966818Y-55287500I0J600000D01*
G01*
X228508181Y-150487499D02*
X249308181Y-150487499D01*
X55287500Y-142287500D02*
G75*
G03*
X53287500Y-140287500I-1999999J1D01*
G01*
X254018746Y-53287531D02*
G75*
G03*
X256018750Y-55287527I2000000J4D01*
G01*
X227908181Y-55287500D02*
G75*
G03*
X228508181Y-55887500I600000J0D01*
G01*
X223818746Y-153087412D02*
G75*
G03*
X221818750Y-151087408I-2000000J4D01*
G01*
X249308181Y-54687500D02*
X228508181Y-54687500D01*
X83262500Y-150487499D02*
X104062500Y-150487499D01*
X147566818Y-54687500D02*
X168366818Y-54687500D01*
X225368743Y-51487584D02*
G75*
G03*
X223818745Y-53037586I2J-1550000D01*
G01*
X313612499Y-150487499D02*
X292812499Y-150487499D01*
X342187601Y-114487173D02*
G75*
G03*
X341587601Y-113887173I-600000J0D01*
G01*
X104062500Y-151687499D02*
G75*
G03*
X104662500Y-151087499I0J600000D01*
G01*
X142856253Y-153337468D02*
G75*
G03*
X144406256Y-154887465I1550000J3D01*
G01*
X147566818Y-54687500D02*
G75*
G03*
X146966818Y-55287500I0J-600000D01*
G01*
X340987601Y-114487173D02*
X340987601Y-135287173D01*
X146966818Y-55287500D02*
G75*
G03*
X147566818Y-55887500I600000J0D01*
G01*
X146966818Y-151087499D02*
G75*
G03*
X147566818Y-151687499I600000J0D01*
G01*
X343587499Y-140287500D02*
G75*
G03*
X341587499Y-142287500I-1J-1999999D01*
G01*
X292812499Y-54687500D02*
G75*
G03*
X292212499Y-55287500I0J-600000D01*
G01*
X173056253Y-53287587D02*
G75*
G03*
X175056249Y-55287591I2000000J-4D01*
G01*
X78562500Y-153337499D02*
G75*
G03*
X80112500Y-154887499I1549998J-2D01*
G01*
X54687397Y-135287173D02*
G75*
G03*
X55287397Y-135887173I600000J0D01*
G01*
X51487499Y-138737500D02*
X51487499Y-111637500D01*
X53037499Y-110087500D02*
G75*
G03*
X51487499Y-111637500I-2J-1549998D01*
G01*
X223818745Y-153337412D02*
X223818746Y-153087412D01*
X343837499Y-96287499D02*
X343587499Y-96287499D01*
X341587601Y-92487826D02*
G75*
G03*
X342187601Y-91887826I0J600000D01*
G01*
X318312499Y-53037500D02*
G75*
G03*
X316762499Y-51487500I-1549998J2D01*
G01*
X343837499Y-96287499D02*
G75*
G03*
X345387499Y-94737499I2J1549998D01*
G01*
X171506256Y-154887415D02*
X144406256Y-154887465D01*
X341587499Y-108087500D02*
G75*
G03*
X343587499Y-110087500I1999999J-1D01*
G01*
X53287500Y-110087500D02*
G75*
G03*
X55287500Y-108087500I1J1999999D01*
G01*
X78562500Y-153087499D02*
G75*
G03*
X76562500Y-151087499I-1999999J1D01*
G01*
X341587499Y-98287499D02*
X341587499Y-108087500D01*
X223818745Y-153337412D02*
G75*
G03*
X225368742Y-154887415I1550000J-3D01*
G01*
X78562500Y-53287500D02*
X78562500Y-53037500D01*
X314212499Y-55287500D02*
G75*
G03*
X313612499Y-54687500I-600000J0D01*
G01*
X55287500Y-108087500D02*
X55287500Y-98287499D01*
X175056249Y-55287591D02*
X221818750Y-55287591D01*
X55887397Y-71087826D02*
G75*
G03*
X55287397Y-70487826I-600000J0D01*
G01*
X173056253Y-53037587D02*
X173056253Y-53287587D01*
X314212499Y-151087499D02*
G75*
G03*
X313612499Y-150487499I-600000J0D01*
G01*
X51487499Y-94737499D02*
X51487499Y-67637499D01*
X55287500Y-149087499D02*
X55287500Y-142287500D01*
X55887397Y-114487173D02*
G75*
G03*
X55287397Y-113887173I-600000J0D01*
G01*
X292812499Y-150487499D02*
G75*
G03*
X292212499Y-151087499I0J-600000D01*
G01*
X252468743Y-154887465D02*
G75*
G03*
X254018745Y-153337467I2J1550000D01*
G01*
X55287397Y-113887173D02*
G75*
G03*
X54687397Y-114487173I0J-600000D01*
G01*
X104662500Y-55287500D02*
G75*
G03*
X104062500Y-54687500I-600000J0D01*
G01*
X104062500Y-151687499D02*
X83262500Y-151687499D01*
X83262500Y-55887500D02*
X104062500Y-55887500D01*
X342187601Y-135287173D02*
X342187601Y-114487173D01*
X339587496Y-151087500D02*
X320312499Y-151087499D01*
X80112500Y-51487500D02*
G75*
G03*
X78562500Y-53037500I-2J-1549998D01*
G01*
X55287500Y-98287499D02*
G75*
G03*
X53287500Y-96287499I-1999999J1D01*
G01*
X104662500Y-151087499D02*
G75*
G03*
X104062500Y-150487499I-600000J0D01*
G01*
X225368743Y-51487584D02*
X252468743Y-51487534D01*
X168366818Y-150487499D02*
X147566818Y-150487499D01*
X104062500Y-55887500D02*
G75*
G03*
X104662500Y-55287500I0J600000D01*
G01*
X76562500Y-151087499D02*
X57287500Y-151087499D01*
X80112500Y-51487500D02*
X107212500Y-51487500D01*
X320312499Y-55287500D02*
X339587496Y-55287500D01*
X54687397Y-71087826D02*
X54687397Y-91887826D01*
X343837499Y-140287500D02*
G75*
G03*
X345387499Y-138737500I2J1549998D01*
G01*
X292212499Y-55287500D02*
G75*
G03*
X292812499Y-55887500I600000J0D01*
G01*
X345387499Y-67637499D02*
G75*
G03*
X343837499Y-66087499I-1549998J2D01*
G01*
X55287397Y-135887173D02*
G75*
G03*
X55887397Y-135287173I0J600000D01*
G01*
X142856253Y-153337468D02*
X142856253Y-153087468D01*
X340987601Y-135287173D02*
G75*
G03*
X341587601Y-135887173I600000J0D01*
G01*
X316762499Y-154887499D02*
X289662499Y-154887499D01*
X108762501Y-53287501D02*
G75*
G03*
X110762500Y-55287500I1999999J0D01*
G01*
M02*
