0
SECTION
2
HEADER
9
$INSUNITS
70
4
9
$ACADVER
1
AC1014
9
$HANDSEED
5
FFFF
0
ENDSEC
0
SECTION
2
TABLES
0
TABLE
2
VPORT
5
8
100
AcDbSymbolTable
0
ENDTAB
0
TABLE
2
LTYPE
5
5
100
AcDbSymbolTable
0
LTYPE
5
14
100
AcDbSymbolTableRecord
100
AcDbLinetypeTableRecord
2
BYBLOCK
70
0
0
LTYPE
5
15
100
AcDbSymbolTableRecord
100
AcDbLinetypeTableRecord
2
BYLAYER
70
0
0
ENDTAB
0
TABLE
2
LAYER
5
2
100
AcDbSymbolTable
70
2
0
LAYER
5
50
100
AcDbSymbolTableRecord
100
AcDbLayerTableRecord
2
0
70
0
6
CONTINUOUS
0
ENDTAB
0
TABLE
2
STYLE
5
3
100
AcDbSymbolTable
70
1
0
STYLE
5
11
100
AcDbSymbolTableRecord
100
AcDbTextStyleTableRecord
2
STANDARD
70
0
0
ENDTAB
0
TABLE
2
VIEW
5
6
100
AcDbSymbolTable
70
0
0
ENDTAB
0
TABLE
2
UCS
5
7
100
AcDbSymbolTable
70
0
0
ENDTAB
0
TABLE
2
APPID
5
9
100
AcDbSymbolTable
70
2
0
APPID
5
12
100
AcDbSymbolTableRecord
100
AcDbRegAppTableRecord
2
ACAD
70
0
0
ENDTAB
0
TABLE
2
DIMSTYLE
5
A
100
AcDbSymbolTable
70
1
0
ENDTAB
0
TABLE
2
BLOCK_RECORD
5
1
100
AcDbSymbolTable
70
1
0
BLOCK_RECORD
5
1F
100
AcDbSymbolTableRecord
100
AcDbBlockTableRecord
2
*MODEL_SPACE
0
BLOCK_RECORD
5
1B
100
AcDbSymbolTableRecord
100
AcDbBlockTableRecord
2
*PAPER_SPACE
0
ENDTAB
0
ENDSEC
0
SECTION
2
BLOCKS
0
BLOCK
5
20
100
AcDbEntity
100
AcDbBlockBegin
2
*MODEL_SPACE
0
ENDBLK
5
21
100
AcDbEntity
100
AcDbBlockEnd
0
BLOCK
5
1C
100
AcDbEntity
100
AcDbBlockBegin
2
*PAPER_SPACE
0
ENDBLK
5
1D
100
AcDbEntity
100
AcDbBlockEnd
0
ENDSEC
0
SECTION
2
ENTITIES
0
LWPOLYLINE
5
100
100
AcDbEntity
8
0
100
AcDbPolyline
90
104
70
1
43
0.0
10
110.76250000000002
20
-55.287499999999994
42
-0.41421356237309503
10
108.76250000000002
20
-53.287500000000001
10
108.7625
20
-53.037500000000009
42
0.41421356237309503
10
107.21250000000001
20
-51.487500000000004
10
80.112500000000011
20
-51.487499999999997
42
0.41422112102550518
10
78.562500000000028
20
-53.037500000000009
10
78.5625
20
-53.287500000000001
42
-0.41421063345858411
10
76.5625
20
-55.287500000000009
10
57.287500000000009
20
-55.287500000000009
42
0.41421942030818221
10
55.287500000000009
20
-57.287499999999994
10
55.287500000000009
20
-64.087490000000003
42
-0.41421356243240726
10
53.287499999594992
20
-66.087490000000003
10
53.037489999999998
20
-66.087490000000003
42
0.41420770456998207
10
51.487489999910032
20
-67.637498999860014
10
51.487490000000008
20
-94.737489999999994
42
0.41421526309873102
10
53.037499000287411
20
-96.287489999973857
10
53.287500000000001
20
-96.287489999999991
42
-0.41421195146936429
10
55.28750000002475
20
-98.287498999999997
10
55.287500000000009
20
-108.08750000000002
42
-0.41421063345858283
10
53.287500000000001
20
-110.08750000000001
10
53.037489999999998
20
-110.08750000000001
42
0.4142135623738033
10
51.487489999999994
20
-111.63750000000375
10
51.487490000000008
20
-138.73750000000001
42
0.4142077045964338
10
53.037498999999997
20
-140.28750000008998
10
53.287500000000001
20
-140.28749999999999
42
-0.41421356237309503
10
55.287500000000009
20
-142.28749999999999
10
55.287500000000009
20
-149.08749
42
0.41421942027929703
10
57.287499999802741
20
-151.08749000000003
10
76.5625
20
-151.08749
42
-0.41421195146936429
10
78.562500000024741
20
-153.08749900000004
10
78.5625
20
-153.33749
42
0.41422112097683605
10
80.112499999742454
20
-154.88748999999999
10
107.21250000000001
20
-154.88749000000001
42
0.41421186170381508
10
108.76249999997387
20
-153.33749900000001
10
108.76250000000002
20
-153.08749
42
-0.4142135623746897
10
110.7625000000109
20
-151.08749
10
140.85624000000001
20
-151.08747
42
-0.41421473395307945
10
142.856250000024
20
-153.08746800004525
10
142.85624999999999
20
-153.33745999999999
42
0.41421469614821266
10
144.40625599997071
20
-154.88745999998838
10
171.50625000000002
20
-154.88740999999999
42
0.41421318445530902
10
173.05624999999873
20
-153.33741199995293
10
173.05625000000003
20
-153.08741000000001
42
-0.41421488039213228
10
175.05624899999276
20
-151.08739999997525
10
221.81875000000002
20
-151.08739999999997
42
-0.41421385527820487
10
223.81873999998902
20
-153.087412000081
10
223.81873999999999
20
-153.33741000000001
42
0.41421412925781131
10
225.36874299997092
20
-154.88740999999712
10
252.46874000000003
20
-154.88746
42
0.41421205069758577
10
254.0187399999794
20
-153.33746799983797
10
254.01873999999998
20
-153.08745999999999
42
-0.41421356237573809
10
256.01875000001803
20
-151.08747
10
286.11248999999998
20
-151.08749
42
-0.41421488043916593
10
288.11248999997974
20
-153.08749900031393
10
288.11248999999998
20
-153.33749
42
0.4142152630229039
10
289.66249899988617
20
-154.88748999997387
10
316.76249000000001
20
-154.88749000000001
42
0.41421942037456838
10
318.31249000009001
20
-153.33749899973873
10
318.31249000000003
20
-153.08749
42
-0.41421195146778911
10
320.31249899998926
20
-151.08748999997528
10
339.58749000000006
20
-151.08750000000001
42
0.41421356237393009
10
341.58749000000006
20
-149.08749999999432
10
341.58749
20
-142.28749999999999
42
-0.41421488039318849
10
343.58749899999998
20
-140.28750000002026
10
343.83749
20
-140.28749999999999
42
0.4142135623738033
10
345.38749000000001
20
-138.73749999999626
10
345.38749000000001
20
-111.6375
42
0.41421942032520104
10
343.83749899999998
20
-110.08749999991004
10
343.58749
20
-110.08750000000001
42
-0.41421063344527537
10
341.58749
20
-108.08750000009091
10
341.58749
20
-98.28749000000002
42
-0.41421195152719986
10
343.58749900039493
20
-96.28748999997525
10
343.83749
20
-96.287490000000005
42
0.41421942029874675
10
345.38749000009005
20
-94.737499000139962
10
345.38749000000001
20
-67.637490000000014
42
0.41421186175815944
10
343.83749899971241
20
-66.087490000026136
10
343.58749
20
-66.087490000000031
42
-0.41421224434306469
10
341.58749000002024
20
-64.087499000076207
10
341.58749
20
-57.287500000000009
42
0.41421854161637622
10
339.58749599999999
20
-55.287499999949006
10
320.31249000000003
20
-55.287499999999994
42
-0.41421063350307186
10
318.31249000000003
20
-53.287499999696244
10
318.31249000000003
20
-53.037500000000009
42
0.41421942032519438
10
316.76249900000005
20
-51.487499999910035
10
289.66248999999999
20
-51.487499999999997
42
0.41421356244962693
10
288.11248999999998
20
-53.037500000405018
10
288.11248999999998
20
-53.287500000000001
42
-0.41421224435421955
10
286.11249900000007
20
-55.287499999979758
10
256.01875000000001
20
-55.287519999999986
42
-0.41421341593927874
10
254.01874000000527
20
-53.287530999912747
10
254.01874000000004
20
-53.037530000000004
42
0.4142129954786703
10
252.46874300002349
20
-51.487530000002906
10
225.36874
20
-51.487580000000008
42
0.41421488514664195
10
223.81874000001579
20
-53.037587000155369
10
223.81873999999999
20
-53.287580000000005
42
-0.4142135623744933
10
221.81874999999047
20
-55.287590000000009
10
175.05624
20
-55.287590000000023
42
-0.41421253725428409
10
173.05624999997724
20
-53.287586999951628
10
173.05625000000003
20
-53.037580000000005
42
0.41421242858886337
10
171.50625600002374
20
-51.487580000011619
10
144.40625
20
-51.48753
42
0.41421375134460836
10
142.85625000000033
20
-53.037531000043046
10
142.85625000000002
20
-53.287529999999997
42
-0.41421224435422216
10
140.85624900000002
20
-55.287520000024756
0
LWPOLYLINE
5
101
100
AcDbEntity
8
0
100
AcDbPolyline
90
6
70
1
43
0.0
10
331.35805323531366
20
-140.8799446777129
42
-3.9205640988608166
10
331.3580532353015
20
-141.69505532221626
42
-0.54788361831763399
10
328.2156249999951
20
-142.88689029614002
42
-0.54788361831563948
10
325.07319676472468
20
-141.695055322217
42
-3.9205640987999257
10
325.07319676471297
20
-140.87994467771472
42
-0.54788361829641108
10
328.21562499997555
20
-139.68810970384905
42
-0.54788361830498267
0
LINE
5
102
100
AcDbEntity
8
0
100
AcDbLine
10
292.81249000000003
20
-150.48749000000001
30
0
11
313.61249900022943
21
-150.48749900000001
31
0
0
ARC
5
103
100
AcDbEntity
8
0
100
AcDbCircle
10
313.61248999999998
20
-151.08749
30
0
40
0.59999999999998721
210
0
220
0
230
1
100
AcDbArc
50
0
51
89.999140528504043
0
ARC
5
104
100
AcDbEntity
8
0
100
AcDbCircle
10
313.61250999999999
20
-151.08751000000001
30
0
40
0.59998000033299137
210
0
220
0
230
1
100
AcDbArc
50
-90.001909922981085
51
0.0019099229426251271
0
LINE
5
105
100
AcDbEntity
8
0
100
AcDbLine
10
313.61248999999998
20
-151.68748999999966
30
0
11
292.81249899977058
21
-151.68749899999997
31
0
0
ARC
5
106
100
AcDbEntity
8
0
100
AcDbCircle
10
292.81249000000003
20
-151.08749
30
0
40
0.59999999999998721
210
0
220
0
230
1
100
AcDbArc
50
180
51
270.00085940189143
0
ARC
5
107
100
AcDbEntity
8
0
100
AcDbCircle
10
292.8125
20
-151.08750000000001
30
0
40
0.6000100000833295
210
0
220
0
230
1
100
AcDbArc
50
90.000954913740813
51
179.99904508633207
0
LWPOLYLINE
5
108
100
AcDbEntity
8
0
100
AcDbPolyline
90
6
70
1
43
0.0
10
307.54555323531361
20
-140.8799446777129
42
-3.9205640988606603
10
307.5455532353015
20
-141.69505532221629
42
-0.54788361831763244
10
304.40312499999504
20
-142.88689029614002
42
-0.54788361831563948
10
301.26069676472463
20
-141.695055322217
42
-3.9205640987996855
10
301.26069676471292
20
-140.87994467771472
42
-0.54788361829640819
10
304.40312499997549
20
-139.68810970384905
42
-0.54788361830498267
0
LWPOLYLINE
5
109
100
AcDbEntity
8
0
100
AcDbPolyline
90
6
70
1
43
0.0
10
283.73305323531366
20
-140.8799446777129
42
-3.9205640988607362
10
283.73305323530144
20
-141.69505532221626
42
-0.54788361831763355
10
280.59062499999504
20
-142.88689029614002
42
-0.54788361831563948
10
277.44819676472463
20
-141.695055322217
42
-3.9205640987996855
10
277.44819676471292
20
-140.87994467771472
42
-0.54788361829640819
10
280.59062499997549
20
-139.68810970384902
42
-0.54788361830498677
0
LINE
5
110
100
AcDbEntity
8
0
100
AcDbLine
10
228.50818000000004
20
-150.48749000000001
30
0
11
249.30818100028193
21
-150.48749900000004
31
0
0
ARC
5
111
100
AcDbEntity
8
0
100
AcDbCircle
10
249.30817000000002
20
-151.08750000000001
30
0
40
0.60001000008300975
210
0
220
-0
230
1
100
AcDbArc
50
0.00095491366793856226
51
89.998949552205502
0
ARC
5
112
100
AcDbEntity
8
0
100
AcDbCircle
10
249.30818000000002
20
-151.08749
30
0
40
0.60000000000000497
210
0
220
0
230
1
100
AcDbArc
50
-90
51
0
0
LINE
5
113
100
AcDbEntity
8
0
100
AcDbLine
10
249.30818000000002
20
-151.68749000000003
30
0
11
228.50818099945556
21
-151.687499
31
0
0
ARC
5
114
100
AcDbEntity
8
0
100
AcDbCircle
10
228.50816000000003
20
-151.08751000000001
30
0
40
0.59998000033299137
210
0
220
0
230
1
100
AcDbArc
50
179.99809007705738
51
270.0020053370535
0
ARC
5
115
100
AcDbEntity
8
0
100
AcDbCircle
10
228.50818000000004
20
-151.08749
30
0
40
0.60000000000000497
210
0
220
-0
230
1
100
AcDbArc
50
90
51
180
0
LINE
5
116
100
AcDbEntity
8
0
100
AcDbLine
10
340.98759999999999
20
-135.28717
30
0
11
340.9876005002825
21
-114.48717300005434
31
0
0
ARC
5
117
100
AcDbEntity
8
0
100
AcDbCircle
10
341.58758
20
-114.48715
30
0
40
0.59998000033299137
210
0
220
-0
230
1
100
AcDbArc
50
89.998090077018915
51
180.00219641845419
0
ARC
5
118
100
AcDbEntity
8
0
100
AcDbCircle
10
341.58760000000001
20
-114.48717000000002
30
0
40
0.60000000000002274
210
0
220
0
230
1
100
AcDbArc
50
0
51
90
0
LINE
5
119
100
AcDbEntity
8
0
100
AcDbLine
10
342.18760000000003
20
-114.48717000000002
30
0
11
342.18760050019966
21
-135.28717299996927
31
0
0
ARC
5
120
100
AcDbEntity
8
0
100
AcDbCircle
10
341.58758999999998
20
-135.28716
30
0
40
0.60001000008299199
210
0
220
0
230
1
100
AcDbArc
50
270.00095491374623
51
359.99875861605426
0
ARC
5
121
100
AcDbEntity
8
0
100
AcDbCircle
10
341.58760000000001
20
-135.28717
30
0
40
0.60000000000002274
210
0
220
0
230
1
100
AcDbArc
50
180
51
270
0
ARC
5
122
100
AcDbEntity
8
0
100
AcDbCircle
10
324.96125000000001
20
-122.23750000000001
30
0
40
0.85089999999999977
210
0
220
0
230
1
100
AcDbArc
50
-111.90904978830922
51
111.90904978579702
0
ARC
5
123
100
AcDbEntity
8
0
100
AcDbCircle
10
324.32625000000002
20
-122.23750000000001
30
0
40
0.85090000002319099
210
0
220
-0
230
1
100
AcDbArc
50
68.090950210318056
51
291.90904978786892
0
LINE
5
124
100
AcDbEntity
8
0
100
AcDbLine
10
147.56681
20
-150.48749000000001
30
0
11
168.36681800020332
21
-150.48749900000001
31
0
0
ARC
5
125
100
AcDbEntity
8
0
100
AcDbCircle
10
168.36680999999999
20
-151.08749
30
0
40
0.59999999999998721
210
0
220
0
230
1
100
AcDbArc
50
0
51
89.999236025396343
0
ARC
5
126
100
AcDbEntity
8
0
100
AcDbCircle
10
168.36682999999999
20
-151.08751000000001
30
0
40
0.59998000033299137
210
0
220
0
230
1
100
AcDbArc
50
-90.001909922981085
51
0.0019099229426251271
0
LINE
5
127
100
AcDbEntity
8
0
100
AcDbLine
10
168.36680999999999
20
-151.68748999999966
30
0
11
147.56681799979685
21
-151.68749899999997
31
0
0
ARC
5
128
100
AcDbEntity
8
0
100
AcDbCircle
10
147.56681
20
-151.08749
30
0
40
0.60000000000000497
210
0
220
0
230
1
100
AcDbArc
50
180
51
270.00076391286871
0
ARC
5
129
100
AcDbEntity
8
0
100
AcDbCircle
10
147.56682000000001
20
-151.08750000000001
30
0
40
0.6000100000833295
210
0
220
0
230
1
100
AcDbArc
50
90.000954913743556
51
179.99904508633207
0
ARC
5
130
100
AcDbEntity
8
0
100
AcDbCircle
10
104.0625
20
-151.08749
30
0
40
0.60000000000000497
210
0
220
0
230
1
100
AcDbArc
50
-90
51
0
0
LINE
5
131
100
AcDbEntity
8
0
100
AcDbLine
10
104.0625
20
-151.68749000000003
30
0
11
83.262499999744335
21
-151.687499
31
0
0
ARC
5
132
100
AcDbEntity
8
0
100
AcDbCircle
10
83.262490000000014
20
-151.08749
30
0
40
0.60000000008299637
210
0
220
0
230
1
100
AcDbArc
50
180
51
270.00095489091956
0
ARC
5
133
100
AcDbEntity
8
0
100
AcDbCircle
10
83.262500000000003
20
-151.08750000000001
30
0
40
0.60001000008300664
210
0
220
-0
230
1
100
AcDbArc
50
90
51
179.99904508633207
0
LINE
5
134
100
AcDbEntity
8
0
100
AcDbLine
10
83.262500000000003
20
-150.48748999991699
30
0
11
104.06250000025568
21
-150.48749899998336
31
0
0
ARC
5
135
100
AcDbEntity
8
0
100
AcDbCircle
10
104.06249000000001
20
-151.08750000000001
30
0
40
0.6000100000833295
210
0
220
-0
230
1
100
AcDbArc
50
0.00095491366793856226
51
89.999045047518393
0
LWPOLYLINE
5
136
100
AcDbEntity
8
0
100
AcDbPolyline
90
6
70
1
43
0.0
10
119.42680323531363
20
-140.8799446777129
42
-3.9205640988607762
10
119.42680323530143
20
-141.69505532221629
42
-0.54788361831763066
10
116.28437499999499
20
-142.88689029614002
42
-0.54788361831563259
10
113.14194676472465
20
-141.69505532221694
42
-3.9205640987998893
10
113.14194676471297
20
-140.87994467771472
42
-0.54788361829640941
10
116.28437499997548
20
-139.68810970384902
42
-0.54788361830498156
0
LWPOLYLINE
5
137
100
AcDbEntity
8
0
100
AcDbPolyline
90
6
70
1
43
0.0
10
95.614303235314537
20
-140.87994467771122
42
-3.9205640988422705
10
95.614303235301122
20
-141.69505532221771
42
-0.54788361831738974
10
92.471874999995009
20
-142.88689029614002
42
-0.54788361831543442
10
89.329446764724224
20
-141.69505532221777
42
-3.9205640988092387
10
89.329446764712515
20
-140.87994467771688
42
-0.54788361829676635
10
92.471874999974744
20
-139.68810970384803
42
-0.54788361830474064
0
LWPOLYLINE
5
138
100
AcDbEntity
8
0
100
AcDbPolyline
90
6
70
1
43
0.0
10
71.801803235314537
20
-140.87994467771122
42
-3.9205640988422483
10
71.801803235301136
20
-141.69505532221774
42
-0.54788361831739119
10
68.659374999995009
20
-142.88689029614002
42
-0.54788361831543464
10
65.51694676472421
20
-141.69505532221777
42
-3.9205640988091988
10
65.516946764712515
20
-140.87994467771688
42
-0.5478836182967648
10
68.65937499997473
20
-139.68810970384803
42
-0.54788361830474286
0
ARC
5
139
100
AcDbEntity
8
0
100
AcDbCircle
10
86.836250000000007
20
-122.23750000000001
30
0
40
0.85089999999999999
210
0
220
0
230
1
100
AcDbArc
50
-111.90904978831473
51
111.9090497858018
0
ARC
5
140
100
AcDbEntity
8
0
100
AcDbCircle
10
86.201250000000002
20
-122.23750000000001
30
0
40
0.85090000002316135
210
0
220
-0
230
1
100
AcDbArc
50
68.090950210321239
51
291.90904978786642
0
ARC
5
141
100
AcDbEntity
8
0
100
AcDbCircle
10
55.287399999999998
20
-135.28716
30
0
40
0.60001000008300087
210
0
220
0
230
1
100
AcDbArc
50
180.00095491366793
51
269.99904508625781
0
LINE
5
142
100
AcDbEntity
8
0
100
AcDbLine
10
54.687390000000335
20
-135.28717
30
0
11
54.687396999999997
21
-114.48717300006534
31
0
0
ARC
5
143
100
AcDbEntity
8
0
100
AcDbCircle
10
55.287390000000009
20
-114.48717000000002
30
0
40
0.60000000000000497
210
0
220
-0
230
1
100
AcDbArc
50
90
51
180.00028648781483
0
ARC
5
144
100
AcDbEntity
8
0
100
AcDbCircle
10
55.287410000000001
20
-114.48715
30
0
40
0.59998000033300025
210
0
220
0
230
1
100
AcDbArc
50
-0.0019099229426104368
51
90.001909922979735
0
LINE
5
145
100
AcDbEntity
8
0
100
AcDbLine
10
55.887389999999655
20
-114.48717000000002
30
0
11
55.887396999999993
21
-135.28717299993463
31
0
0
ARC
5
146
100
AcDbEntity
8
0
100
AcDbCircle
10
55.287390000000009
20
-135.28717
30
0
40
0.59999999999968523
210
0
220
0
230
1
100
AcDbArc
50
270
51
359.99971353126847
0
ARC
5
147
100
AcDbEntity
8
0
100
AcDbCircle
10
75.723749999999995
20
-105.60050000000001
30
0
40
1.9939000000000029
210
0
220
0
230
1
100
AcDbArc
50
-250.89882357298413
51
15.381742370236118
0
ARC
5
148
100
AcDbEntity
8
0
100
AcDbCircle
10
76.993750000000006
20
-103.18750000000001
30
0
40
1.9938999999921276
210
0
220
0
230
1
100
AcDbArc
50
-70.898823572114793
51
195.38174236995357
0
LWPOLYLINE
5
149
100
AcDbEntity
8
0
100
AcDbPolyline
90
2
70
1
43
0.0
10
328.50759803488137
20
-101.40759498691901
42
-6.8952852947134069
10
328.91296804733435
20
-101.25558123225206
42
-18.367706160833087
0
ARC
5
150
100
AcDbEntity
8
0
100
AcDbCircle
10
341.58758
20
-91.887839999999997
30
0
40
0.59998000033299137
210
0
220
0
230
1
100
AcDbArc
50
179.99809007705738
51
270.00190992298104
0
LINE
5
151
100
AcDbEntity
8
0
100
AcDbLine
10
340.98760000000033
20
-91.887820000000019
30
0
11
340.98760050024367
21
-71.087826000014232
31
0
0
ARC
5
152
100
AcDbEntity
8
0
100
AcDbCircle
10
341.58760000000001
20
-71.087819999999994
30
0
40
0.59999999999999609
210
0
220
-0
230
1
100
AcDbArc
50
90
51
180.00057295909104
0
ARC
5
153
100
AcDbEntity
8
0
100
AcDbCircle
10
341.58758999999998
20
-71.087829999999997
30
0
40
0.60001000008297423
210
0
220
-0
230
1
100
AcDbArc
50
0.00095491366793856226
51
89.999045086253759
0
LINE
5
154
100
AcDbEntity
8
0
100
AcDbLine
10
342.18759999999963
20
-71.087819999999994
30
0
11
342.18760050021359
21
-91.887825999985836
31
0
0
ARC
5
155
100
AcDbEntity
8
0
100
AcDbCircle
10
341.58760000000001
20
-91.887820000000019
30
0
40
0.59999999999963194
210
0
220
0
230
1
100
AcDbArc
50
270
51
359.99942704408954
0
LWPOLYLINE
5
156
100
AcDbEntity
8
0
100
AcDbPolyline
90
6
70
1
43
0.0
10
292.21249000000006
20
-55.287500000000009
42
-0.41421356237309503
10
292.81249000000003
20
-54.687500000000007
10
313.61249900000007
20
-54.687499999767851
42
-0.41422869577478877
10
314.21249
20
-55.287500000000009
42
-0.41421356237309503
10
313.61248999999998
20
-55.887500000000003
10
292.812499
20
-55.887500000082461
42
-0.4142081927637824
0
LWPOLYLINE
5
157
100
AcDbEntity
8
0
100
AcDbPolyline
90
6
70
1
43
0.0
10
249.30818000000002
20
-54.687500000000014
42
-0.41421356237309503
10
249.90817999999967
20
-55.287500000000009
42
-0.41420331131844762
10
249.30818099999999
20
-55.887499999982175
10
228.50818000000004
20
-55.887499999999989
42
-0.41421356237309503
10
227.90818000000036
20
-55.287500000000009
42
-0.41423357755184481
10
228.50818100000001
20
-54.687500000034518
0
ARC
5
158
100
AcDbEntity
8
0
100
AcDbCircle
10
67.46875
20
-93.662499999999994
30
0
40
1.993900000000004
210
0
220
0
230
1
100
AcDbArc
50
-105.3817423700596
51
160.89882357201034
0
ARC
5
159
100
AcDbEntity
8
0
100
AcDbCircle
10
65.055750000000003
20
-94.932500000000019
30
0
40
1.993900000004162
210
0
220
-0
230
1
100
AcDbArc
50
74.618257629983049
51
340.89882357212684
0
LWPOLYLINE
5
160
100
AcDbEntity
8
0
100
AcDbPolyline
90
4
70
1
43
0.0
10
75.670122201556737
20
-83.71767868472071
42
-2.589662736468223
10
74.583640296489676
20
-83.360283321213927
42
-0.16338819557141107
10
73.827507256807962
20
-82.340860826864514
42
-1.3323653692090383
10
73.917388746494822
20
-80.880286619493631
42
-1.8512352352780752
0
LINE
5
161
100
AcDbEntity
8
0
100
AcDbLine
10
54.687390000000001
20
-91.887820000000019
30
0
11
54.687396999999997
21
-71.087825999922458
31
0
0
ARC
5
162
100
AcDbEntity
8
0
100
AcDbCircle
10
55.287399999999998
20
-71.087829999999997
30
0
40
0.60001000008300087
210
0
220
0
230
1
100
AcDbArc
50
90.000954913742191
51
179.99961802334997
0
ARC
5
163
100
AcDbEntity
8
0
100
AcDbCircle
10
55.287390000000009
20
-71.087819999999994
30
0
40
0.59999999999999609
210
0
220
0
230
1
100
AcDbArc
50
0
51
90
0
LINE
5
164
100
AcDbEntity
8
0
100
AcDbLine
10
55.887390000000003
20
-71.087819999999994
30
0
11
55.887397000000007
21
-91.887826000281706
31
0
0
ARC
5
165
100
AcDbEntity
8
0
100
AcDbCircle
10
55.287410000000001
20
-91.887839999999997
30
0
40
0.59998000033299137
210
0
220
0
230
1
100
AcDbArc
50
-90.001909922979763
51
0.0013369034856414797
0
ARC
5
166
100
AcDbEntity
8
0
100
AcDbCircle
10
55.287390000000009
20
-91.887820000000019
30
0
40
0.60000000000000497
210
0
220
0
230
1
100
AcDbArc
50
180
51
270
0
LWPOLYLINE
5
167
100
AcDbEntity
8
0
100
AcDbPolyline
90
6
70
1
43
0.0
10
146.96681000000001
20
-55.287500000000009
42
-0.41421356237309503
10
147.56681
20
-54.687500000000007
10
168.36681800000002
20
-54.687499999787015
42
-0.41422918395175695
10
168.96680999999998
20
-55.287500000000009
42
-0.41421356237309503
10
168.36680999999999
20
-55.887500000000003
10
147.56681800000001
20
-55.887500000080017
42
-0.41420770461848544
0
LWPOLYLINE
5
168
100
AcDbEntity
8
0
100
AcDbPolyline
90
6
70
1
43
0.0
10
83.262500000000003
20
-55.88750000000001
10
104.0625
20
-55.88750000000001
42
0.41420379946221952
10
104.66250000000001
20
-55.287500000000009
42
0.41421356237309503
10
104.0625
20
-54.6875
10
83.262500000000003
20
-54.68750000008334
42
0.41421844393516355
10
82.662490000083324
20
-55.287500000000009
42
0.41420868090922985
0
ARC
5
169
100
AcDbEntity
8
0
100
AcDbCircle
10
79.692499999999995
20
-65.087500000000006
30
0
40
0.85090000000000277
210
0
220
0
230
1
100
AcDbArc
50
-111.90904978806185
51
111.90904978806186
0
ARC
5
170
100
AcDbEntity
8
0
100
AcDbCircle
10
79.057500000000005
20
-65.087500000000006
30
0
40
0.85089999999991328
210
0
220
-0
230
1
100
AcDbArc
50
68.090950211952347
51
291.90904978804764
0
ARC
5
171
100
AcDbEntity
8
0
100
AcDbCircle
10
70.167500000000004
20
-65.087500000000006
30
0
40
0.8509000000000011
210
0
220
0
230
1
100
AcDbArc
50
-111.90904978806277
51
111.9090497880631
0
ARC
5
172
100
AcDbEntity
8
0
100
AcDbCircle
10
69.532499999999999
20
-65.087500000000006
30
0
40
0.8508999999999084
210
0
220
-0
230
1
100
AcDbArc
50
68.090950211951991
51
291.90904978804764
0
LWPOLYLINE
5
173
100
AcDbEntity
8
0
100
AcDbPolyline
90
2
70
1
43
0.0
10
62.00555087350395
20
-59.471836724900115
42
-5.0917774933474282
10
63.155758861009318
20
-59.548517257400427
42
-2.1867963234449035
0
CIRCLE
5
174
100
AcDbEntity
8
0
100
AcDbCircle
10
334.48624999999998
20
-141.28749999999999
30
0
40
0.85089999999999999
210
0
220
0
230
1
0
CIRCLE
5
175
100
AcDbEntity
8
0
100
AcDbCircle
10
321.94499999999999
20
-141.28749999999999
30
0
40
0.85089999999999999
210
0
220
0
230
1
0
CIRCLE
5
176
100
AcDbEntity
8
0
100
AcDbCircle
10
310.67374999999998
20
-141.28749999999999
30
0
40
0.85089999999999999
210
0
220
0
230
1
0
CIRCLE
5
177
100
AcDbEntity
8
0
100
AcDbCircle
10
298.13249999999999
20
-141.28749999999999
30
0
40
0.85089999999999999
210
0
220
0
230
1
0
CIRCLE
5
178
100
AcDbEntity
8
0
100
AcDbCircle
10
286.86124999999998
20
-141.28749999999999
30
0
40
0.85089999999999999
210
0
220
0
230
1
0
CIRCLE
5
179
100
AcDbEntity
8
0
100
AcDbCircle
10
274.32000000000005
20
-141.28749999999999
30
0
40
0.85089999999999999
210
0
220
0
230
1
0
CIRCLE
5
180
100
AcDbEntity
8
0
100
AcDbCircle
10
333.21625000000006
20
-138.7475
30
0
40
0.76200000000000001
210
0
220
0
230
1
0
CIRCLE
5
181
100
AcDbEntity
8
0
100
AcDbCircle
10
330.83500000000004
20
-138.7475
30
0
40
0.76200000000000001
210
0
220
0
230
1
0
CIRCLE
5
182
100
AcDbEntity
8
0
100
AcDbCircle
10
326.86624999999998
20
-136.20750000000001
30
0
40
0.76200000000000001
210
0
220
0
230
1
0
CIRCLE
5
183
100
AcDbEntity
8
0
100
AcDbCircle
10
324.48500000000001
20
-136.20750000000001
30
0
40
0.76200000000000001
210
0
220
0
230
1
0
CIRCLE
5
184
100
AcDbEntity
8
0
100
AcDbCircle
10
309.40375000000006
20
-138.7475
30
0
40
0.76200000000000001
210
0
220
0
230
1
0
CIRCLE
5
185
100
AcDbEntity
8
0
100
AcDbCircle
10
307.02249999999998
20
-138.7475
30
0
40
0.76200000000000001
210
0
220
0
230
1
0
CIRCLE
5
186
100
AcDbEntity
8
0
100
AcDbCircle
10
331.81925000000001
20
-130.49250000000001
30
0
40
1.9939
210
0
220
0
230
1
0
CIRCLE
5
187
100
AcDbEntity
8
0
100
AcDbCircle
10
307.94325000000003
20
-130.49250000000001
30
0
40
1.9939
210
0
220
0
230
1
0
CIRCLE
5
188
100
AcDbEntity
8
0
100
AcDbCircle
10
303.05374999999998
20
-136.20750000000001
30
0
40
0.76200000000000001
210
0
220
0
230
1
0
CIRCLE
5
189
100
AcDbEntity
8
0
100
AcDbCircle
10
300.67250000000001
20
-136.20750000000001
30
0
40
0.76200000000000001
210
0
220
0
230
1
0
CIRCLE
5
190
100
AcDbEntity
8
0
100
AcDbCircle
10
285.59125
20
-138.7475
30
0
40
0.76200000000000001
210
0
220
0
230
1
0
CIRCLE
5
191
100
AcDbEntity
8
0
100
AcDbCircle
10
283.20999999999998
20
-138.7475
30
0
40
0.76200000000000001
210
0
220
0
230
1
0
CIRCLE
5
192
100
AcDbEntity
8
0
100
AcDbCircle
10
279.24124999999998
20
-136.20750000000001
30
0
40
0.76200000000000001
210
0
220
0
230
1
0
CIRCLE
5
193
100
AcDbEntity
8
0
100
AcDbCircle
10
276.86000000000001
20
-136.20750000000001
30
0
40
0.76200000000000001
210
0
220
0
230
1
0
CIRCLE
5
194
100
AcDbEntity
8
0
100
AcDbCircle
10
260.38175000000001
20
-148.27250000000001
30
0
40
1.524
210
0
220
0
230
1
0
CIRCLE
5
195
100
AcDbEntity
8
0
100
AcDbCircle
10
255.58750000000003
20
-148.27250000000001
30
0
40
1.524
210
0
220
0
230
1
0
CIRCLE
5
196
100
AcDbEntity
8
0
100
AcDbCircle
10
215.42375000000004
20
-141.28749999999999
30
0
40
0.85089999999999999
210
0
220
0
230
1
0
CIRCLE
5
197
100
AcDbEntity
8
0
100
AcDbCircle
10
210.34375
20
-141.28749999999999
30
0
40
1.9939
210
0
220
0
230
1
0
CIRCLE
5
198
100
AcDbEntity
8
0
100
AcDbCircle
10
205.26375000000002
20
-141.28749999999999
30
0
40
0.85089999999999999
210
0
220
0
230
1
0
CIRCLE
5
199
100
AcDbEntity
8
0
100
AcDbCircle
10
203.51750000000004
20
-141.28749999999999
30
0
40
0.85089999999999999
210
0
220
0
230
1
0
CIRCLE
5
200
100
AcDbEntity
8
0
100
AcDbCircle
10
198.4375
20
-141.28749999999999
30
0
40
1.9939
210
0
220
0
230
1
0
CIRCLE
5
201
100
AcDbEntity
8
0
100
AcDbCircle
10
260.38175000000001
20
-133.0325
30
0
40
1.9939
210
0
220
0
230
1
0
CIRCLE
5
202
100
AcDbEntity
8
0
100
AcDbCircle
10
255.58750000000003
20
-133.0325
30
0
40
1.9939
210
0
220
0
230
1
0
CIRCLE
5
203
100
AcDbEntity
8
0
100
AcDbCircle
10
214.15375
20
-138.7475
30
0
40
0.76200000000000001
210
0
220
0
230
1
0
CIRCLE
5
204
100
AcDbEntity
8
0
100
AcDbCircle
10
202.2475
20
-138.7475
30
0
40
0.76200000000000001
210
0
220
0
230
1
0
CIRCLE
5
205
100
AcDbEntity
8
0
100
AcDbCircle
10
207.80375000000004
20
-136.20750000000001
30
0
40
0.76200000000000001
210
0
220
0
230
1
0
CIRCLE
5
206
100
AcDbEntity
8
0
100
AcDbCircle
10
334.48624999999998
20
-122.23750000000001
30
0
40
0.85089999999999999
210
0
220
0
230
1
0
CIRCLE
5
207
100
AcDbEntity
8
0
100
AcDbCircle
10
329.40625000000006
20
-122.23750000000001
30
0
40
1.9939
210
0
220
0
230
1
0
CIRCLE
5
208
100
AcDbEntity
8
0
100
AcDbCircle
10
319.88125000000002
20
-122.23750000000001
30
0
40
1.9939
210
0
220
0
230
1
0
CIRCLE
5
209
100
AcDbEntity
8
0
100
AcDbCircle
10
314.80124999999998
20
-122.23750000000001
30
0
40
0.85089999999999999
210
0
220
0
230
1
0
CIRCLE
5
210
100
AcDbEntity
8
0
100
AcDbCircle
10
313.05500000000001
20
-122.23750000000001
30
0
40
0.85089999999999999
210
0
220
0
230
1
0
CIRCLE
5
211
100
AcDbEntity
8
0
100
AcDbCircle
10
307.97500000000002
20
-122.23750000000001
30
0
40
1.9939
210
0
220
0
230
1
0
CIRCLE
5
212
100
AcDbEntity
8
0
100
AcDbCircle
10
333.21625000000006
20
-119.69750000000002
30
0
40
0.76200000000000001
210
0
220
0
230
1
0
CIRCLE
5
213
100
AcDbEntity
8
0
100
AcDbCircle
10
326.86624999999998
20
-117.1575
30
0
40
0.76200000000000001
210
0
220
0
230
1
0
CIRCLE
5
214
100
AcDbEntity
8
0
100
AcDbCircle
10
323.69125000000003
20
-119.69750000000002
30
0
40
0.76200000000000001
210
0
220
0
230
1
0
CIRCLE
5
215
100
AcDbEntity
8
0
100
AcDbCircle
10
311.78500000000003
20
-119.69750000000002
30
0
40
0.76200000000000001
210
0
220
0
230
1
0
CIRCLE
5
216
100
AcDbEntity
8
0
100
AcDbCircle
10
317.34125
20
-117.1575
30
0
40
0.76200000000000001
210
0
220
0
230
1
0
CIRCLE
5
217
100
AcDbEntity
8
0
100
AcDbCircle
10
302.89499999999998
20
-122.23750000000001
30
0
40
0.85089999999999999
210
0
220
0
230
1
0
CIRCLE
5
218
100
AcDbEntity
8
0
100
AcDbCircle
10
294.005
20
-122.23750000000001
30
0
40
0.85089999999999999
210
0
220
0
230
1
0
CIRCLE
5
219
100
AcDbEntity
8
0
100
AcDbCircle
10
288.92500000000001
20
-122.23750000000001
30
0
40
1.9939
210
0
220
0
230
1
0
CIRCLE
5
220
100
AcDbEntity
8
0
100
AcDbCircle
10
283.84500000000003
20
-122.23750000000001
30
0
40
0.85089999999999999
210
0
220
0
230
1
0
CIRCLE
5
221
100
AcDbEntity
8
0
100
AcDbCircle
10
274.95499999999998
20
-122.23750000000001
30
0
40
0.85089999999999999
210
0
220
0
230
1
0
CIRCLE
5
222
100
AcDbEntity
8
0
100
AcDbCircle
10
292.73500000000001
20
-119.69750000000002
30
0
40
0.76200000000000001
210
0
220
0
230
1
0
CIRCLE
5
223
100
AcDbEntity
8
0
100
AcDbCircle
10
305.435
20
-117.1575
30
0
40
0.76200000000000001
210
0
220
0
230
1
0
CIRCLE
5
224
100
AcDbEntity
8
0
100
AcDbCircle
10
273.685
20
-119.69750000000002
30
0
40
0.76200000000000001
210
0
220
0
230
1
0
CIRCLE
5
225
100
AcDbEntity
8
0
100
AcDbCircle
10
286.38499999999999
20
-117.1575
30
0
40
0.76200000000000001
210
0
220
0
230
1
0
CIRCLE
5
226
100
AcDbEntity
8
0
100
AcDbCircle
10
331.81925000000001
20
-115.2525
30
0
40
1.524
210
0
220
0
230
1
0
CIRCLE
5
227
100
AcDbEntity
8
0
100
AcDbCircle
10
324.80250000000007
20
-112.45850000000002
30
0
40
0.38100000000000001
210
0
220
0
230
1
0
CIRCLE
5
228
100
AcDbEntity
8
0
100
AcDbCircle
10
324.80250000000007
20
-109.91849999999999
30
0
40
0.38100000000000001
210
0
220
0
230
1
0
CIRCLE
5
229
100
AcDbEntity
8
0
100
AcDbCircle
10
322.26249999999999
20
-112.45850000000002
30
0
40
0.38100000000000001
210
0
220
0
230
1
0
CIRCLE
5
230
100
AcDbEntity
8
0
100
AcDbCircle
10
319.72250000000003
20
-112.45850000000002
30
0
40
0.38100000000000001
210
0
220
0
230
1
0
CIRCLE
5
231
100
AcDbEntity
8
0
100
AcDbCircle
10
307.94325000000003
20
-115.2525
30
0
40
1.524
210
0
220
0
230
1
0
CIRCLE
5
232
100
AcDbEntity
8
0
100
AcDbCircle
10
322.26249999999999
20
-109.91849999999999
30
0
40
0.38100000000000001
210
0
220
0
230
1
0
CIRCLE
5
233
100
AcDbEntity
8
0
100
AcDbCircle
10
319.72250000000003
20
-109.91849999999999
30
0
40
0.38100000000000001
210
0
220
0
230
1
0
CIRCLE
5
234
100
AcDbEntity
8
0
100
AcDbCircle
10
334.48624999999998
20
-103.18750000000001
30
0
40
0.85089999999999999
210
0
220
0
230
1
0
CIRCLE
5
235
100
AcDbEntity
8
0
100
AcDbCircle
10
324.64375000000007
20
-103.18750000000001
30
0
40
1.9939
210
0
220
0
230
1
0
CIRCLE
5
236
100
AcDbEntity
8
0
100
AcDbCircle
10
319.56375000000003
20
-103.18750000000001
30
0
40
0.85089999999999999
210
0
220
0
230
1
0
CIRCLE
5
237
100
AcDbEntity
8
0
100
AcDbCircle
10
303.52999999999997
20
-103.18750000000001
30
0
40
0.85089999999999999
210
0
220
0
230
1
0
CIRCLE
5
238
100
AcDbEntity
8
0
100
AcDbCircle
10
298.44999999999999
20
-103.18750000000001
30
0
40
1.9939
210
0
220
0
230
1
0
CIRCLE
5
239
100
AcDbEntity
8
0
100
AcDbCircle
10
293.37
20
-103.18750000000001
30
0
40
0.85089999999999999
210
0
220
0
230
1
0
CIRCLE
5
240
100
AcDbEntity
8
0
100
AcDbCircle
10
284.48000000000002
20
-103.18750000000001
30
0
40
0.85089999999999999
210
0
220
0
230
1
0
CIRCLE
5
241
100
AcDbEntity
8
0
100
AcDbCircle
10
279.39999999999998
20
-103.18750000000001
30
0
40
1.9939
210
0
220
0
230
1
0
CIRCLE
5
242
100
AcDbEntity
8
0
100
AcDbCircle
10
274.32000000000005
20
-103.18750000000001
30
0
40
0.85089999999999999
210
0
220
0
230
1
0
CIRCLE
5
243
100
AcDbEntity
8
0
100
AcDbCircle
10
269.875
20
-122.23750000000001
30
0
40
1.9939
210
0
220
0
230
1
0
CIRCLE
5
244
100
AcDbEntity
8
0
100
AcDbCircle
10
264.79500000000002
20
-122.23750000000001
30
0
40
0.85089999999999999
210
0
220
0
230
1
0
CIRCLE
5
245
100
AcDbEntity
8
0
100
AcDbCircle
10
255.90500000000003
20
-122.23750000000001
30
0
40
0.85089999999999999
210
0
220
0
230
1
0
CIRCLE
5
246
100
AcDbEntity
8
0
100
AcDbCircle
10
250.82499999999999
20
-122.23750000000001
30
0
40
1.9939
210
0
220
0
230
1
0
CIRCLE
5
247
100
AcDbEntity
8
0
100
AcDbCircle
10
245.745
20
-122.23750000000001
30
0
40
0.85089999999999999
210
0
220
0
230
1
0
CIRCLE
5
248
100
AcDbEntity
8
0
100
AcDbCircle
10
236.85500000000002
20
-122.23750000000001
30
0
40
0.85089999999999999
210
0
220
0
230
1
0
CIRCLE
5
249
100
AcDbEntity
8
0
100
AcDbCircle
10
254.63499999999999
20
-119.69750000000002
30
0
40
0.76200000000000001
210
0
220
0
230
1
0
CIRCLE
5
250
100
AcDbEntity
8
0
100
AcDbCircle
10
267.33499999999998
20
-117.1575
30
0
40
0.76200000000000001
210
0
220
0
230
1
0
CIRCLE
5
251
100
AcDbEntity
8
0
100
AcDbCircle
10
235.58500000000004
20
-119.69750000000002
30
0
40
0.76200000000000001
210
0
220
0
230
1
0
CIRCLE
5
252
100
AcDbEntity
8
0
100
AcDbCircle
10
248.28500000000003
20
-117.1575
30
0
40
0.76200000000000001
210
0
220
0
230
1
0
CIRCLE
5
253
100
AcDbEntity
8
0
100
AcDbCircle
10
231.77500000000003
20
-122.23750000000001
30
0
40
1.9939
210
0
220
0
230
1
0
CIRCLE
5
254
100
AcDbEntity
8
0
100
AcDbCircle
10
226.69499999999999
20
-122.23750000000001
30
0
40
0.85089999999999999
210
0
220
0
230
1
0
CIRCLE
5
255
100
AcDbEntity
8
0
100
AcDbCircle
10
217.80500000000004
20
-122.23750000000001
30
0
40
0.85089999999999999
210
0
220
0
230
1
0
CIRCLE
5
256
100
AcDbEntity
8
0
100
AcDbCircle
10
212.72500000000002
20
-122.23750000000001
30
0
40
1.9939
210
0
220
0
230
1
0
CIRCLE
5
257
100
AcDbEntity
8
0
100
AcDbCircle
10
207.64500000000001
20
-122.23750000000001
30
0
40
0.85089999999999999
210
0
220
0
230
1
0
CIRCLE
5
258
100
AcDbEntity
8
0
100
AcDbCircle
10
198.75500000000002
20
-122.23750000000001
30
0
40
0.85089999999999999
210
0
220
0
230
1
0
CIRCLE
5
259
100
AcDbEntity
8
0
100
AcDbCircle
10
216.53500000000003
20
-119.69750000000002
30
0
40
0.76200000000000001
210
0
220
0
230
1
0
CIRCLE
5
260
100
AcDbEntity
8
0
100
AcDbCircle
10
229.23500000000004
20
-117.1575
30
0
40
0.76200000000000001
210
0
220
0
230
1
0
CIRCLE
5
261
100
AcDbEntity
8
0
100
AcDbCircle
10
210.18500000000003
20
-117.1575
30
0
40
0.76200000000000001
210
0
220
0
230
1
0
CIRCLE
5
262
100
AcDbEntity
8
0
100
AcDbCircle
10
265.43000000000001
20
-103.18750000000001
30
0
40
0.85089999999999999
210
0
220
0
230
1
0
CIRCLE
5
263
100
AcDbEntity
8
0
100
AcDbCircle
10
260.35000000000002
20
-103.18750000000001
30
0
40
1.9939
210
0
220
0
230
1
0
CIRCLE
5
264
100
AcDbEntity
8
0
100
AcDbCircle
10
255.27000000000001
20
-103.18750000000001
30
0
40
0.85089999999999999
210
0
220
0
230
1
0
CIRCLE
5
265
100
AcDbEntity
8
0
100
AcDbCircle
10
246.38000000000002
20
-103.18750000000001
30
0
40
0.85089999999999999
210
0
220
0
230
1
0
CIRCLE
5
266
100
AcDbEntity
8
0
100
AcDbCircle
10
241.30000000000001
20
-103.18750000000001
30
0
40
1.9939
210
0
220
0
230
1
0
CIRCLE
5
267
100
AcDbEntity
8
0
100
AcDbCircle
10
236.22
20
-103.18750000000001
30
0
40
0.85089999999999999
210
0
220
0
230
1
0
CIRCLE
5
268
100
AcDbEntity
8
0
100
AcDbCircle
10
227.33000000000004
20
-103.18750000000001
30
0
40
0.85089999999999999
210
0
220
0
230
1
0
CIRCLE
5
269
100
AcDbEntity
8
0
100
AcDbCircle
10
222.25
20
-103.18750000000001
30
0
40
1.9939
210
0
220
0
230
1
0
CIRCLE
5
270
100
AcDbEntity
8
0
100
AcDbCircle
10
217.16999999999999
20
-103.18750000000001
30
0
40
0.85089999999999999
210
0
220
0
230
1
0
CIRCLE
5
271
100
AcDbEntity
8
0
100
AcDbCircle
10
208.28000000000003
20
-103.18750000000001
30
0
40
0.85089999999999999
210
0
220
0
230
1
0
CIRCLE
5
272
100
AcDbEntity
8
0
100
AcDbCircle
10
203.19999999999999
20
-103.18750000000001
30
0
40
1.9939
210
0
220
0
230
1
0
CIRCLE
5
273
100
AcDbEntity
8
0
100
AcDbCircle
10
193.35750000000002
20
-141.28749999999999
30
0
40
0.85089999999999999
210
0
220
0
230
1
0
CIRCLE
5
274
100
AcDbEntity
8
0
100
AcDbCircle
10
160.30574999999999
20
-148.27250000000001
30
0
40
1.524
210
0
220
0
230
1
0
CIRCLE
5
275
100
AcDbEntity
8
0
100
AcDbCircle
10
141.28749999999999
20
-148.27250000000001
30
0
40
1.524
210
0
220
0
230
1
0
CIRCLE
5
276
100
AcDbEntity
8
0
100
AcDbCircle
10
143.98625000000004
20
-141.28749999999999
30
0
40
0.85089999999999999
210
0
220
0
230
1
0
CIRCLE
5
277
100
AcDbEntity
8
0
100
AcDbCircle
10
138.90625
20
-141.28749999999999
30
0
40
1.9939
210
0
220
0
230
1
0
CIRCLE
5
278
100
AcDbEntity
8
0
100
AcDbCircle
10
133.82624999999999
20
-141.28749999999999
30
0
40
0.85089999999999999
210
0
220
0
230
1
0
CIRCLE
5
279
100
AcDbEntity
8
0
100
AcDbCircle
10
195.89750000000004
20
-136.20750000000001
30
0
40
0.76200000000000001
210
0
220
0
230
1
0
CIRCLE
5
280
100
AcDbEntity
8
0
100
AcDbCircle
10
142.71625
20
-138.7475
30
0
40
0.76200000000000001
210
0
220
0
230
1
0
CIRCLE
5
281
100
AcDbEntity
8
0
100
AcDbCircle
10
136.36625000000004
20
-136.20750000000001
30
0
40
0.76200000000000001
210
0
220
0
230
1
0
CIRCLE
5
282
100
AcDbEntity
8
0
100
AcDbCircle
10
160.30574999999999
20
-133.0325
30
0
40
1.9939
210
0
220
0
230
1
0
CIRCLE
5
283
100
AcDbEntity
8
0
100
AcDbCircle
10
141.28749999999999
20
-133.0325
30
0
40
1.9939
210
0
220
0
230
1
0
CIRCLE
5
284
100
AcDbEntity
8
0
100
AcDbCircle
10
122.55500000000001
20
-141.28749999999999
30
0
40
0.85089999999999999
210
0
220
0
230
1
0
CIRCLE
5
285
100
AcDbEntity
8
0
100
AcDbCircle
10
110.01375000000002
20
-141.28749999999999
30
0
40
0.85089999999999999
210
0
220
0
230
1
0
CIRCLE
5
286
100
AcDbEntity
8
0
100
AcDbCircle
10
98.742500000000021
20
-141.28749999999999
30
0
40
0.85089999999999999
210
0
220
0
230
1
0
CIRCLE
5
287
100
AcDbEntity
8
0
100
AcDbCircle
10
86.201250000000002
20
-141.28749999999999
30
0
40
0.85089999999999999
210
0
220
0
230
1
0
CIRCLE
5
288
100
AcDbEntity
8
0
100
AcDbCircle
10
74.930000000000007
20
-141.28749999999999
30
0
40
0.85089999999999999
210
0
220
0
230
1
0
CIRCLE
5
289
100
AcDbEntity
8
0
100
AcDbCircle
10
62.388750000000002
20
-141.28749999999999
30
0
40
0.85089999999999999
210
0
220
0
230
1
0
CIRCLE
5
290
100
AcDbEntity
8
0
100
AcDbCircle
10
121.28500000000001
20
-138.7475
30
0
40
0.76200000000000001
210
0
220
0
230
1
0
CIRCLE
5
291
100
AcDbEntity
8
0
100
AcDbCircle
10
118.90375
20
-138.7475
30
0
40
0.76200000000000001
210
0
220
0
230
1
0
CIRCLE
5
292
100
AcDbEntity
8
0
100
AcDbCircle
10
114.935
20
-136.20750000000001
30
0
40
0.76200000000000001
210
0
220
0
230
1
0
CIRCLE
5
293
100
AcDbEntity
8
0
100
AcDbCircle
10
112.55375000000001
20
-136.20750000000001
30
0
40
0.76200000000000001
210
0
220
0
230
1
0
CIRCLE
5
294
100
AcDbEntity
8
0
100
AcDbCircle
10
97.472500000000011
20
-138.7475
30
0
40
0.76200000000000001
210
0
220
0
230
1
0
CIRCLE
5
295
100
AcDbEntity
8
0
100
AcDbCircle
10
95.091250000000002
20
-138.7475
30
0
40
0.76200000000000001
210
0
220
0
230
1
0
CIRCLE
5
296
100
AcDbEntity
8
0
100
AcDbCircle
10
91.122500000000016
20
-136.20750000000001
30
0
40
0.76200000000000001
210
0
220
0
230
1
0
CIRCLE
5
297
100
AcDbEntity
8
0
100
AcDbCircle
10
93.694249999999997
20
-130.49250000000001
30
0
40
1.9939
210
0
220
0
230
1
0
CIRCLE
5
298
100
AcDbEntity
8
0
100
AcDbCircle
10
73.659999999999997
20
-138.7475
30
0
40
0.76200000000000001
210
0
220
0
230
1
0
CIRCLE
5
299
100
AcDbEntity
8
0
100
AcDbCircle
10
88.741249999999994
20
-136.20750000000001
30
0
40
0.76200000000000001
210
0
220
0
230
1
0
CIRCLE
5
300
100
AcDbEntity
8
0
100
AcDbCircle
10
71.278750000000002
20
-138.7475
30
0
40
0.76200000000000001
210
0
220
0
230
1
0
CIRCLE
5
301
100
AcDbEntity
8
0
100
AcDbCircle
10
67.310000000000002
20
-136.20750000000001
30
0
40
0.76200000000000001
210
0
220
0
230
1
0
CIRCLE
5
302
100
AcDbEntity
8
0
100
AcDbCircle
10
64.928749999999994
20
-136.20750000000001
30
0
40
0.76200000000000001
210
0
220
0
230
1
0
CIRCLE
5
303
100
AcDbEntity
8
0
100
AcDbCircle
10
69.818250000000006
20
-130.49250000000001
30
0
40
1.9939
210
0
220
0
230
1
0
CIRCLE
5
304
100
AcDbEntity
8
0
100
AcDbCircle
10
193.67500000000004
20
-122.23750000000001
30
0
40
1.9939
210
0
220
0
230
1
0
CIRCLE
5
305
100
AcDbEntity
8
0
100
AcDbCircle
10
188.595
20
-122.23750000000001
30
0
40
0.85089999999999999
210
0
220
0
230
1
0
CIRCLE
5
306
100
AcDbEntity
8
0
100
AcDbCircle
10
179.70500000000001
20
-122.23750000000001
30
0
40
0.85089999999999999
210
0
220
0
230
1
0
CIRCLE
5
307
100
AcDbEntity
8
0
100
AcDbCircle
10
174.62500000000003
20
-122.23750000000001
30
0
40
1.9939
210
0
220
0
230
1
0
CIRCLE
5
308
100
AcDbEntity
8
0
100
AcDbCircle
10
169.54499999999999
20
-122.23750000000001
30
0
40
0.85089999999999999
210
0
220
0
230
1
0
CIRCLE
5
309
100
AcDbEntity
8
0
100
AcDbCircle
10
197.48500000000004
20
-119.69750000000002
30
0
40
0.76200000000000001
210
0
220
0
230
1
0
CIRCLE
5
310
100
AcDbEntity
8
0
100
AcDbCircle
10
191.13499999999999
20
-117.1575
30
0
40
0.76200000000000001
210
0
220
0
230
1
0
CIRCLE
5
311
100
AcDbEntity
8
0
100
AcDbCircle
10
178.43500000000003
20
-119.69750000000002
30
0
40
0.76200000000000001
210
0
220
0
230
1
0
CIRCLE
5
312
100
AcDbEntity
8
0
100
AcDbCircle
10
172.08500000000001
20
-117.1575
30
0
40
0.76200000000000001
210
0
220
0
230
1
0
CIRCLE
5
313
100
AcDbEntity
8
0
100
AcDbCircle
10
160.655
20
-122.23750000000001
30
0
40
0.85089999999999999
210
0
220
0
230
1
0
CIRCLE
5
314
100
AcDbEntity
8
0
100
AcDbCircle
10
155.57499999999999
20
-122.23750000000001
30
0
40
1.9939
210
0
220
0
230
1
0
CIRCLE
5
315
100
AcDbEntity
8
0
100
AcDbCircle
10
150.495
20
-122.23750000000001
30
0
40
0.85089999999999999
210
0
220
0
230
1
0
CIRCLE
5
316
100
AcDbEntity
8
0
100
AcDbCircle
10
141.60499999999999
20
-122.23750000000001
30
0
40
0.85089999999999999
210
0
220
0
230
1
0
CIRCLE
5
317
100
AcDbEntity
8
0
100
AcDbCircle
10
136.52500000000001
20
-122.23750000000001
30
0
40
1.9939
210
0
220
0
230
1
0
CIRCLE
5
318
100
AcDbEntity
8
0
100
AcDbCircle
10
131.44499999999999
20
-122.23750000000001
30
0
40
0.85089999999999999
210
0
220
0
230
1
0
CIRCLE
5
319
100
AcDbEntity
8
0
100
AcDbCircle
10
159.38499999999999
20
-119.69750000000002
30
0
40
0.76200000000000001
210
0
220
0
230
1
0
CIRCLE
5
320
100
AcDbEntity
8
0
100
AcDbCircle
10
153.035
20
-117.1575
30
0
40
0.76200000000000001
210
0
220
0
230
1
0
CIRCLE
5
321
100
AcDbEntity
8
0
100
AcDbCircle
10
140.33500000000001
20
-119.69750000000002
30
0
40
0.76200000000000001
210
0
220
0
230
1
0
CIRCLE
5
322
100
AcDbEntity
8
0
100
AcDbCircle
10
133.98500000000001
20
-117.1575
30
0
40
0.76200000000000001
210
0
220
0
230
1
0
CIRCLE
5
323
100
AcDbEntity
8
0
100
AcDbCircle
10
198.12
20
-103.18750000000001
30
0
40
0.85089999999999999
210
0
220
0
230
1
0
CIRCLE
5
324
100
AcDbEntity
8
0
100
AcDbCircle
10
189.22999999999999
20
-103.18750000000001
30
0
40
0.85089999999999999
210
0
220
0
230
1
0
CIRCLE
5
325
100
AcDbEntity
8
0
100
AcDbCircle
10
184.15000000000003
20
-103.18750000000001
30
0
40
1.9939
210
0
220
0
230
1
0
CIRCLE
5
326
100
AcDbEntity
8
0
100
AcDbCircle
10
179.06999999999999
20
-103.18750000000001
30
0
40
0.85089999999999999
210
0
220
0
230
1
0
CIRCLE
5
327
100
AcDbEntity
8
0
100
AcDbCircle
10
170.18000000000001
20
-103.18750000000001
30
0
40
0.85089999999999999
210
0
220
0
230
1
0
CIRCLE
5
328
100
AcDbEntity
8
0
100
AcDbCircle
10
165.10000000000002
20
-103.18750000000001
30
0
40
1.9939
210
0
220
0
230
1
0
CIRCLE
5
329
100
AcDbEntity
8
0
100
AcDbCircle
10
160.02000000000004
20
-103.18750000000001
30
0
40
0.85089999999999999
210
0
220
0
230
1
0
CIRCLE
5
330
100
AcDbEntity
8
0
100
AcDbCircle
10
151.13
20
-103.18750000000001
30
0
40
0.85089999999999999
210
0
220
0
230
1
0
CIRCLE
5
331
100
AcDbEntity
8
0
100
AcDbCircle
10
146.05000000000001
20
-103.18750000000001
30
0
40
1.9939
210
0
220
0
230
1
0
CIRCLE
5
332
100
AcDbEntity
8
0
100
AcDbCircle
10
140.97000000000003
20
-103.18750000000001
30
0
40
0.85089999999999999
210
0
220
0
230
1
0
CIRCLE
5
333
100
AcDbEntity
8
0
100
AcDbCircle
10
132.08000000000001
20
-103.18750000000001
30
0
40
0.85089999999999999
210
0
220
0
230
1
0
CIRCLE
5
334
100
AcDbEntity
8
0
100
AcDbCircle
10
127.00000000000001
20
-103.18750000000001
30
0
40
1.9939
210
0
220
0
230
1
0
CIRCLE
5
335
100
AcDbEntity
8
0
100
AcDbCircle
10
122.55500000000001
20
-122.23750000000001
30
0
40
0.85089999999999999
210
0
220
0
230
1
0
CIRCLE
5
336
100
AcDbEntity
8
0
100
AcDbCircle
10
117.47500000000001
20
-122.23750000000001
30
0
40
1.9939
210
0
220
0
230
1
0
CIRCLE
5
337
100
AcDbEntity
8
0
100
AcDbCircle
10
112.395
20
-122.23750000000001
30
0
40
0.85089999999999999
210
0
220
0
230
1
0
CIRCLE
5
338
100
AcDbEntity
8
0
100
AcDbCircle
10
96.361249999999998
20
-122.23750000000001
30
0
40
0.85089999999999999
210
0
220
0
230
1
0
CIRCLE
5
339
100
AcDbEntity
8
0
100
AcDbCircle
10
91.28125
20
-122.23750000000001
30
0
40
1.9939
210
0
220
0
230
1
0
CIRCLE
5
340
100
AcDbEntity
8
0
100
AcDbCircle
10
121.28500000000001
20
-119.69750000000002
30
0
40
0.76200000000000001
210
0
220
0
230
1
0
CIRCLE
5
341
100
AcDbEntity
8
0
100
AcDbCircle
10
114.935
20
-117.1575
30
0
40
0.76200000000000001
210
0
220
0
230
1
0
CIRCLE
5
342
100
AcDbEntity
8
0
100
AcDbCircle
10
95.091250000000002
20
-119.69750000000002
30
0
40
0.76200000000000001
210
0
220
0
230
1
0
CIRCLE
5
343
100
AcDbEntity
8
0
100
AcDbCircle
10
81.756249999999994
20
-122.23750000000001
30
0
40
1.9939
210
0
220
0
230
1
0
CIRCLE
5
344
100
AcDbEntity
8
0
100
AcDbCircle
10
76.676249999999996
20
-122.23750000000001
30
0
40
0.85089999999999999
210
0
220
0
230
1
0
CIRCLE
5
345
100
AcDbEntity
8
0
100
AcDbCircle
10
70.167500000000004
20
-122.23750000000001
30
0
40
0.85089999999999999
210
0
220
0
230
1
0
CIRCLE
5
346
100
AcDbEntity
8
0
100
AcDbCircle
10
65.087500000000006
20
-122.23750000000001
30
0
40
1.9939
210
0
220
0
230
1
0
CIRCLE
5
347
100
AcDbEntity
8
0
100
AcDbCircle
10
60.0075
20
-122.23750000000001
30
0
40
0.85089999999999999
210
0
220
0
230
1
0
CIRCLE
5
348
100
AcDbEntity
8
0
100
AcDbCircle
10
85.566249999999997
20
-119.69750000000002
30
0
40
0.76200000000000001
210
0
220
0
230
1
0
CIRCLE
5
349
100
AcDbEntity
8
0
100
AcDbCircle
10
88.741249999999994
20
-117.1575
30
0
40
0.76200000000000001
210
0
220
0
230
1
0
CIRCLE
5
350
100
AcDbEntity
8
0
100
AcDbCircle
10
79.216250000000002
20
-117.1575
30
0
40
0.76200000000000001
210
0
220
0
230
1
0
CIRCLE
5
351
100
AcDbEntity
8
0
100
AcDbCircle
10
68.897499999999994
20
-119.69750000000002
30
0
40
0.76200000000000001
210
0
220
0
230
1
0
CIRCLE
5
352
100
AcDbEntity
8
0
100
AcDbCircle
10
62.547500000000007
20
-117.1575
30
0
40
0.76200000000000001
210
0
220
0
230
1
0
CIRCLE
5
353
100
AcDbEntity
8
0
100
AcDbCircle
10
93.694249999999997
20
-115.2525
30
0
40
1.524
210
0
220
0
230
1
0
CIRCLE
5
354
100
AcDbEntity
8
0
100
AcDbCircle
10
121.92
20
-103.18750000000001
30
0
40
0.85089999999999999
210
0
220
0
230
1
0
CIRCLE
5
355
100
AcDbEntity
8
0
100
AcDbCircle
10
113.03
20
-103.18750000000001
30
0
40
0.85089999999999999
210
0
220
0
230
1
0
CIRCLE
5
356
100
AcDbEntity
8
0
100
AcDbCircle
10
107.95000000000002
20
-103.18750000000001
30
0
40
1.9939
210
0
220
0
230
1
0
CIRCLE
5
357
100
AcDbEntity
8
0
100
AcDbCircle
10
102.87
20
-103.18750000000001
30
0
40
0.85089999999999999
210
0
220
0
230
1
0
CIRCLE
5
358
100
AcDbEntity
8
0
100
AcDbCircle
10
93.980000000000018
20
-103.18750000000001
30
0
40
0.85089999999999999
210
0
220
0
230
1
0
CIRCLE
5
359
100
AcDbEntity
8
0
100
AcDbCircle
10
88.931749999999994
20
-110.17250000000001
30
0
40
1.524
210
0
220
0
230
1
0
CIRCLE
5
360
100
AcDbEntity
8
0
100
AcDbCircle
10
69.818250000000006
20
-115.2525
30
0
40
1.524
210
0
220
0
230
1
0
CIRCLE
5
361
100
AcDbEntity
8
0
100
AcDbCircle
10
65.055750000000003
20
-110.17250000000001
30
0
40
1.524
210
0
220
0
230
1
0
CIRCLE
5
362
100
AcDbEntity
8
0
100
AcDbCircle
10
88.900000000000006
20
-103.18750000000001
30
0
40
1.9939
210
0
220
0
230
1
0
CIRCLE
5
363
100
AcDbEntity
8
0
100
AcDbCircle
10
83.819999999999993
20
-103.18750000000001
30
0
40
0.85089999999999999
210
0
220
0
230
1
0
CIRCLE
5
364
100
AcDbEntity
8
0
100
AcDbCircle
10
82.073750000000004
20
-103.18750000000001
30
0
40
0.85089999999999999
210
0
220
0
230
1
0
CIRCLE
5
365
100
AcDbEntity
8
0
100
AcDbCircle
10
71.913749999999993
20
-103.18750000000001
30
0
40
0.85089999999999999
210
0
220
0
230
1
0
CIRCLE
5
366
100
AcDbEntity
8
0
100
AcDbCircle
10
60.483750000000001
20
-105.60050000000001
30
0
40
1.524
210
0
220
0
230
1
0
CIRCLE
5
367
100
AcDbEntity
8
0
100
AcDbCircle
10
333.21625000000006
20
-100.64750000000001
30
0
40
0.76200000000000001
210
0
220
0
230
1
0
CIRCLE
5
368
100
AcDbEntity
8
0
100
AcDbCircle
10
326.86624999999998
20
-98.107500000000002
30
0
40
0.76200000000000001
210
0
220
0
230
1
0
CIRCLE
5
369
100
AcDbEntity
8
0
100
AcDbCircle
10
322.10374999999999
20
-98.107500000000002
30
0
40
0.76200000000000001
210
0
220
0
230
1
0
CIRCLE
5
370
100
AcDbEntity
8
0
100
AcDbCircle
10
302.25999999999999
20
-100.64750000000001
30
0
40
0.76200000000000001
210
0
220
0
230
1
0
CIRCLE
5
371
100
AcDbEntity
8
0
100
AcDbCircle
10
295.91000000000003
20
-98.107500000000002
30
0
40
0.76200000000000001
210
0
220
0
230
1
0
CIRCLE
5
372
100
AcDbEntity
8
0
100
AcDbCircle
10
283.20999999999998
20
-100.64750000000001
30
0
40
0.76200000000000001
210
0
220
0
230
1
0
CIRCLE
5
373
100
AcDbEntity
8
0
100
AcDbCircle
10
276.86000000000001
20
-98.107500000000002
30
0
40
0.76200000000000001
210
0
220
0
230
1
0
CIRCLE
5
374
100
AcDbEntity
8
0
100
AcDbCircle
10
332.10500000000002
20
-84.137500000000003
30
0
40
0.85089999999999999
210
0
220
0
230
1
0
CIRCLE
5
375
100
AcDbEntity
8
0
100
AcDbCircle
10
327.02499999999998
20
-84.137500000000003
30
0
40
1.9939
210
0
220
0
230
1
0
CIRCLE
5
376
100
AcDbEntity
8
0
100
AcDbCircle
10
330.83500000000004
20
-81.597500000000011
30
0
40
0.76200000000000001
210
0
220
0
230
1
0
CIRCLE
5
377
100
AcDbEntity
8
0
100
AcDbCircle
10
324.48500000000001
20
-79.057500000000005
30
0
40
0.76200000000000001
210
0
220
0
230
1
0
CIRCLE
5
378
100
AcDbEntity
8
0
100
AcDbCircle
10
321.94499999999999
20
-84.137500000000003
30
0
40
0.85089999999999999
210
0
220
0
230
1
0
CIRCLE
5
379
100
AcDbEntity
8
0
100
AcDbCircle
10
308.29250000000002
20
-84.137500000000003
30
0
40
0.85089999999999999
210
0
220
0
230
1
0
CIRCLE
5
380
100
AcDbEntity
8
0
100
AcDbCircle
10
307.02249999999998
20
-81.597500000000011
30
0
40
0.76200000000000001
210
0
220
0
230
1
0
CIRCLE
5
381
100
AcDbEntity
8
0
100
AcDbCircle
10
303.21249999999998
20
-84.137500000000003
30
0
40
1.9939
210
0
220
0
230
1
0
CIRCLE
5
382
100
AcDbEntity
8
0
100
AcDbCircle
10
298.13249999999999
20
-84.137500000000003
30
0
40
0.85089999999999999
210
0
220
0
230
1
0
CIRCLE
5
383
100
AcDbEntity
8
0
100
AcDbCircle
10
289.24250000000001
20
-84.137500000000003
30
0
40
0.85089999999999999
210
0
220
0
230
1
0
CIRCLE
5
384
100
AcDbEntity
8
0
100
AcDbCircle
10
300.67250000000001
20
-79.057500000000005
30
0
40
0.76200000000000001
210
0
220
0
230
1
0
CIRCLE
5
385
100
AcDbEntity
8
0
100
AcDbCircle
10
284.16250000000002
20
-84.137500000000003
30
0
40
1.9939
210
0
220
0
230
1
0
CIRCLE
5
386
100
AcDbEntity
8
0
100
AcDbCircle
10
279.08249999999998
20
-84.137500000000003
30
0
40
0.85089999999999999
210
0
220
0
230
1
0
CIRCLE
5
387
100
AcDbEntity
8
0
100
AcDbCircle
10
287.97250000000008
20
-81.597500000000011
30
0
40
0.76200000000000001
210
0
220
0
230
1
0
CIRCLE
5
388
100
AcDbEntity
8
0
100
AcDbCircle
10
281.6225
20
-79.057500000000005
30
0
40
0.76200000000000001
210
0
220
0
230
1
0
CIRCLE
5
389
100
AcDbEntity
8
0
100
AcDbCircle
10
264.16000000000003
20
-100.64750000000001
30
0
40
0.76200000000000001
210
0
220
0
230
1
0
CIRCLE
5
390
100
AcDbEntity
8
0
100
AcDbCircle
10
257.81
20
-98.107500000000002
30
0
40
0.76200000000000001
210
0
220
0
230
1
0
CIRCLE
5
391
100
AcDbEntity
8
0
100
AcDbCircle
10
245.11000000000001
20
-100.64750000000001
30
0
40
0.76200000000000001
210
0
220
0
230
1
0
CIRCLE
5
392
100
AcDbEntity
8
0
100
AcDbCircle
10
238.76000000000002
20
-98.107500000000002
30
0
40
0.76200000000000001
210
0
220
0
230
1
0
CIRCLE
5
393
100
AcDbEntity
8
0
100
AcDbCircle
10
226.06
20
-100.64750000000001
30
0
40
0.76200000000000001
210
0
220
0
230
1
0
CIRCLE
5
394
100
AcDbEntity
8
0
100
AcDbCircle
10
219.71000000000004
20
-98.107500000000002
30
0
40
0.76200000000000001
210
0
220
0
230
1
0
CIRCLE
5
395
100
AcDbEntity
8
0
100
AcDbCircle
10
207.00999999999999
20
-100.64750000000001
30
0
40
0.76200000000000001
210
0
220
0
230
1
0
CIRCLE
5
396
100
AcDbEntity
8
0
100
AcDbCircle
10
200.66000000000003
20
-98.107500000000002
30
0
40
0.76200000000000001
210
0
220
0
230
1
0
CIRCLE
5
397
100
AcDbEntity
8
0
100
AcDbCircle
10
270.1925
20
-84.137500000000003
30
0
40
0.85089999999999999
210
0
220
0
230
1
0
CIRCLE
5
398
100
AcDbEntity
8
0
100
AcDbCircle
10
265.11250000000007
20
-84.137500000000003
30
0
40
1.9939
210
0
220
0
230
1
0
CIRCLE
5
399
100
AcDbEntity
8
0
100
AcDbCircle
10
260.03250000000003
20
-84.137500000000003
30
0
40
0.85089999999999999
210
0
220
0
230
1
0
CIRCLE
5
400
100
AcDbEntity
8
0
100
AcDbCircle
10
268.92250000000001
20
-81.597500000000011
30
0
40
0.76200000000000001
210
0
220
0
230
1
0
CIRCLE
5
401
100
AcDbEntity
8
0
100
AcDbCircle
10
262.57249999999999
20
-79.057500000000005
30
0
40
0.76200000000000001
210
0
220
0
230
1
0
CIRCLE
5
402
100
AcDbEntity
8
0
100
AcDbCircle
10
251.14250000000001
20
-84.137500000000003
30
0
40
0.85089999999999999
210
0
220
0
230
1
0
CIRCLE
5
403
100
AcDbEntity
8
0
100
AcDbCircle
10
246.06250000000003
20
-84.137500000000003
30
0
40
1.9939
210
0
220
0
230
1
0
CIRCLE
5
404
100
AcDbEntity
8
0
100
AcDbCircle
10
240.98250000000002
20
-84.137500000000003
30
0
40
0.85089999999999999
210
0
220
0
230
1
0
CIRCLE
5
405
100
AcDbEntity
8
0
100
AcDbCircle
10
249.87250000000003
20
-81.597500000000011
30
0
40
0.76200000000000001
210
0
220
0
230
1
0
CIRCLE
5
406
100
AcDbEntity
8
0
100
AcDbCircle
10
243.52250000000001
20
-79.057500000000005
30
0
40
0.76200000000000001
210
0
220
0
230
1
0
CIRCLE
5
407
100
AcDbEntity
8
0
100
AcDbCircle
10
232.0925
20
-84.137500000000003
30
0
40
0.85089999999999999
210
0
220
0
230
1
0
CIRCLE
5
408
100
AcDbEntity
8
0
100
AcDbCircle
10
227.01250000000002
20
-84.137500000000003
30
0
40
1.9939
210
0
220
0
230
1
0
CIRCLE
5
409
100
AcDbEntity
8
0
100
AcDbCircle
10
221.93250000000003
20
-84.137500000000003
30
0
40
0.85089999999999999
210
0
220
0
230
1
0
CIRCLE
5
410
100
AcDbEntity
8
0
100
AcDbCircle
10
230.82250000000002
20
-81.597500000000011
30
0
40
0.76200000000000001
210
0
220
0
230
1
0
CIRCLE
5
411
100
AcDbEntity
8
0
100
AcDbCircle
10
224.4725
20
-79.057500000000005
30
0
40
0.76200000000000001
210
0
220
0
230
1
0
CIRCLE
5
412
100
AcDbEntity
8
0
100
AcDbCircle
10
213.04249999999999
20
-84.137500000000003
30
0
40
0.85089999999999999
210
0
220
0
230
1
0
CIRCLE
5
413
100
AcDbEntity
8
0
100
AcDbCircle
10
207.96250000000001
20
-84.137500000000003
30
0
40
1.9939
210
0
220
0
230
1
0
CIRCLE
5
414
100
AcDbEntity
8
0
100
AcDbCircle
10
202.88250000000002
20
-84.137500000000003
30
0
40
0.85089999999999999
210
0
220
0
230
1
0
CIRCLE
5
415
100
AcDbEntity
8
0
100
AcDbCircle
10
211.77250000000001
20
-81.597500000000011
30
0
40
0.76200000000000001
210
0
220
0
230
1
0
CIRCLE
5
416
100
AcDbEntity
8
0
100
AcDbCircle
10
205.42250000000001
20
-79.057500000000005
30
0
40
0.76200000000000001
210
0
220
0
230
1
0
CIRCLE
5
417
100
AcDbEntity
8
0
100
AcDbCircle
10
336.86750000000006
20
-65.087500000000006
30
0
40
0.85089999999999999
210
0
220
0
230
1
0
CIRCLE
5
418
100
AcDbEntity
8
0
100
AcDbCircle
10
331.78750000000002
20
-65.087500000000006
30
0
40
1.9939
210
0
220
0
230
1
0
CIRCLE
5
419
100
AcDbEntity
8
0
100
AcDbCircle
10
326.70749999999998
20
-65.087500000000006
30
0
40
0.85089999999999999
210
0
220
0
230
1
0
CIRCLE
5
420
100
AcDbEntity
8
0
100
AcDbCircle
10
335.59750000000003
20
-62.547500000000007
30
0
40
0.76200000000000001
210
0
220
0
230
1
0
CIRCLE
5
421
100
AcDbEntity
8
0
100
AcDbCircle
10
317.8175
20
-65.087500000000006
30
0
40
0.85089999999999999
210
0
220
0
230
1
0
CIRCLE
5
422
100
AcDbEntity
8
0
100
AcDbCircle
10
312.73750000000001
20
-65.087500000000006
30
0
40
1.9939
210
0
220
0
230
1
0
CIRCLE
5
423
100
AcDbEntity
8
0
100
AcDbCircle
10
307.65750000000003
20
-65.087500000000006
30
0
40
0.85089999999999999
210
0
220
0
230
1
0
CIRCLE
5
424
100
AcDbEntity
8
0
100
AcDbCircle
10
316.54750000000001
20
-62.547500000000007
30
0
40
0.76200000000000001
210
0
220
0
230
1
0
CIRCLE
5
425
100
AcDbEntity
8
0
100
AcDbCircle
10
329.24750000000006
20
-60.0075
30
0
40
0.76200000000000001
210
0
220
0
230
1
0
CIRCLE
5
426
100
AcDbEntity
8
0
100
AcDbCircle
10
310.19749999999999
20
-60.0075
30
0
40
0.76200000000000001
210
0
220
0
230
1
0
CIRCLE
5
427
100
AcDbEntity
8
0
100
AcDbCircle
10
298.76750000000004
20
-65.087500000000006
30
0
40
0.85089999999999999
210
0
220
0
230
1
0
CIRCLE
5
428
100
AcDbEntity
8
0
100
AcDbCircle
10
293.6875
20
-65.087500000000006
30
0
40
1.9939
210
0
220
0
230
1
0
CIRCLE
5
429
100
AcDbEntity
8
0
100
AcDbCircle
10
288.60750000000002
20
-65.087500000000006
30
0
40
0.85089999999999999
210
0
220
0
230
1
0
CIRCLE
5
430
100
AcDbEntity
8
0
100
AcDbCircle
10
297.4975
20
-62.547500000000007
30
0
40
0.76200000000000001
210
0
220
0
230
1
0
CIRCLE
5
431
100
AcDbEntity
8
0
100
AcDbCircle
10
279.71749999999997
20
-65.087500000000006
30
0
40
0.85089999999999999
210
0
220
0
230
1
0
CIRCLE
5
432
100
AcDbEntity
8
0
100
AcDbCircle
10
274.63749999999999
20
-65.087500000000006
30
0
40
1.9939
210
0
220
0
230
1
0
CIRCLE
5
433
100
AcDbEntity
8
0
100
AcDbCircle
10
278.44749999999999
20
-62.547500000000007
30
0
40
0.76200000000000001
210
0
220
0
230
1
0
CIRCLE
5
434
100
AcDbEntity
8
0
100
AcDbCircle
10
291.14750000000004
20
-60.0075
30
0
40
0.76200000000000001
210
0
220
0
230
1
0
CIRCLE
5
435
100
AcDbEntity
8
0
100
AcDbCircle
10
272.09750000000003
20
-60.0075
30
0
40
0.76200000000000001
210
0
220
0
230
1
0
CIRCLE
5
436
100
AcDbEntity
8
0
100
AcDbCircle
10
269.5575
20
-65.087500000000006
30
0
40
0.85089999999999999
210
0
220
0
230
1
0
CIRCLE
5
437
100
AcDbEntity
8
0
100
AcDbCircle
10
260.66750000000002
20
-65.087500000000006
30
0
40
0.85089999999999999
210
0
220
0
230
1
0
CIRCLE
5
438
100
AcDbEntity
8
0
100
AcDbCircle
10
255.58750000000003
20
-65.087500000000006
30
0
40
1.9939
210
0
220
0
230
1
0
CIRCLE
5
439
100
AcDbEntity
8
0
100
AcDbCircle
10
259.39749999999998
20
-62.547500000000007
30
0
40
0.76200000000000001
210
0
220
0
230
1
0
CIRCLE
5
440
100
AcDbEntity
8
0
100
AcDbCircle
10
250.50749999999999
20
-65.087500000000006
30
0
40
0.85089999999999999
210
0
220
0
230
1
0
CIRCLE
5
441
100
AcDbEntity
8
0
100
AcDbCircle
10
241.61750000000001
20
-65.087500000000006
30
0
40
0.85089999999999999
210
0
220
0
230
1
0
CIRCLE
5
442
100
AcDbEntity
8
0
100
AcDbCircle
10
236.53750000000002
20
-65.087500000000006
30
0
40
1.9939
210
0
220
0
230
1
0
CIRCLE
5
443
100
AcDbEntity
8
0
100
AcDbCircle
10
240.34750000000003
20
-62.547500000000007
30
0
40
0.76200000000000001
210
0
220
0
230
1
0
CIRCLE
5
444
100
AcDbEntity
8
0
100
AcDbCircle
10
253.04750000000001
20
-60.0075
30
0
40
0.76200000000000001
210
0
220
0
230
1
0
CIRCLE
5
445
100
AcDbEntity
8
0
100
AcDbCircle
10
231.45750000000004
20
-65.087500000000006
30
0
40
0.85089999999999999
210
0
220
0
230
1
0
CIRCLE
5
446
100
AcDbEntity
8
0
100
AcDbCircle
10
222.5675
20
-65.087500000000006
30
0
40
0.85089999999999999
210
0
220
0
230
1
0
CIRCLE
5
447
100
AcDbEntity
8
0
100
AcDbCircle
10
217.48750000000001
20
-65.087500000000006
30
0
40
1.9939
210
0
220
0
230
1
0
CIRCLE
5
448
100
AcDbEntity
8
0
100
AcDbCircle
10
221.29750000000001
20
-62.547500000000007
30
0
40
0.76200000000000001
210
0
220
0
230
1
0
CIRCLE
5
449
100
AcDbEntity
8
0
100
AcDbCircle
10
212.40750000000003
20
-65.087500000000006
30
0
40
0.85089999999999999
210
0
220
0
230
1
0
CIRCLE
5
450
100
AcDbEntity
8
0
100
AcDbCircle
10
203.51750000000004
20
-65.087500000000006
30
0
40
0.85089999999999999
210
0
220
0
230
1
0
CIRCLE
5
451
100
AcDbEntity
8
0
100
AcDbCircle
10
198.4375
20
-65.087500000000006
30
0
40
1.9939
210
0
220
0
230
1
0
CIRCLE
5
452
100
AcDbEntity
8
0
100
AcDbCircle
10
202.2475
20
-62.547500000000007
30
0
40
0.76200000000000001
210
0
220
0
230
1
0
CIRCLE
5
453
100
AcDbEntity
8
0
100
AcDbCircle
10
233.9975
20
-60.0075
30
0
40
0.76200000000000001
210
0
220
0
230
1
0
CIRCLE
5
454
100
AcDbEntity
8
0
100
AcDbCircle
10
214.94749999999999
20
-60.0075
30
0
40
0.76200000000000001
210
0
220
0
230
1
0
CIRCLE
5
455
100
AcDbEntity
8
0
100
AcDbCircle
10
187.96000000000004
20
-100.64750000000001
30
0
40
0.76200000000000001
210
0
220
0
230
1
0
CIRCLE
5
456
100
AcDbEntity
8
0
100
AcDbCircle
10
181.61000000000001
20
-98.107500000000002
30
0
40
0.76200000000000001
210
0
220
0
230
1
0
CIRCLE
5
457
100
AcDbEntity
8
0
100
AcDbCircle
10
168.91000000000003
20
-100.64750000000001
30
0
40
0.76200000000000001
210
0
220
0
230
1
0
CIRCLE
5
458
100
AcDbEntity
8
0
100
AcDbCircle
10
162.56
20
-98.107500000000002
30
0
40
0.76200000000000001
210
0
220
0
230
1
0
CIRCLE
5
459
100
AcDbEntity
8
0
100
AcDbCircle
10
149.86000000000001
20
-100.64750000000001
30
0
40
0.76200000000000001
210
0
220
0
230
1
0
CIRCLE
5
460
100
AcDbEntity
8
0
100
AcDbCircle
10
130.81
20
-100.64750000000001
30
0
40
0.76200000000000001
210
0
220
0
230
1
0
CIRCLE
5
461
100
AcDbEntity
8
0
100
AcDbCircle
10
143.50999999999999
20
-98.107500000000002
30
0
40
0.76200000000000001
210
0
220
0
230
1
0
CIRCLE
5
462
100
AcDbEntity
8
0
100
AcDbCircle
10
193.99250000000001
20
-84.137500000000003
30
0
40
0.85089999999999999
210
0
220
0
230
1
0
CIRCLE
5
463
100
AcDbEntity
8
0
100
AcDbCircle
10
188.91249999999999
20
-84.137500000000003
30
0
40
1.9939
210
0
220
0
230
1
0
CIRCLE
5
464
100
AcDbEntity
8
0
100
AcDbCircle
10
183.83250000000001
20
-84.137500000000003
30
0
40
0.85089999999999999
210
0
220
0
230
1
0
CIRCLE
5
465
100
AcDbEntity
8
0
100
AcDbCircle
10
192.7225
20
-81.597500000000011
30
0
40
0.76200000000000001
210
0
220
0
230
1
0
CIRCLE
5
466
100
AcDbEntity
8
0
100
AcDbCircle
10
186.3725
20
-79.057500000000005
30
0
40
0.76200000000000001
210
0
220
0
230
1
0
CIRCLE
5
467
100
AcDbEntity
8
0
100
AcDbCircle
10
174.9425
20
-84.137500000000003
30
0
40
0.85089999999999999
210
0
220
0
230
1
0
CIRCLE
5
468
100
AcDbEntity
8
0
100
AcDbCircle
10
169.86250000000001
20
-84.137500000000003
30
0
40
1.9939
210
0
220
0
230
1
0
CIRCLE
5
469
100
AcDbEntity
8
0
100
AcDbCircle
10
164.7825
20
-84.137500000000003
30
0
40
0.85089999999999999
210
0
220
0
230
1
0
CIRCLE
5
470
100
AcDbEntity
8
0
100
AcDbCircle
10
173.67250000000001
20
-81.597500000000011
30
0
40
0.76200000000000001
210
0
220
0
230
1
0
CIRCLE
5
471
100
AcDbEntity
8
0
100
AcDbCircle
10
167.32249999999999
20
-79.057500000000005
30
0
40
0.76200000000000001
210
0
220
0
230
1
0
CIRCLE
5
472
100
AcDbEntity
8
0
100
AcDbCircle
10
155.89250000000001
20
-84.137500000000003
30
0
40
0.85089999999999999
210
0
220
0
230
1
0
CIRCLE
5
473
100
AcDbEntity
8
0
100
AcDbCircle
10
150.8125
20
-84.137500000000003
30
0
40
1.9939
210
0
220
0
230
1
0
CIRCLE
5
474
100
AcDbEntity
8
0
100
AcDbCircle
10
145.73249999999999
20
-84.137500000000003
30
0
40
0.85089999999999999
210
0
220
0
230
1
0
CIRCLE
5
475
100
AcDbEntity
8
0
100
AcDbCircle
10
154.6225
20
-81.597500000000011
30
0
40
0.76200000000000001
210
0
220
0
230
1
0
CIRCLE
5
476
100
AcDbEntity
8
0
100
AcDbCircle
10
148.27250000000001
20
-79.057500000000005
30
0
40
0.76200000000000001
210
0
220
0
230
1
0
CIRCLE
5
477
100
AcDbEntity
8
0
100
AcDbCircle
10
136.8425
20
-84.137500000000003
30
0
40
0.85089999999999999
210
0
220
0
230
1
0
CIRCLE
5
478
100
AcDbEntity
8
0
100
AcDbCircle
10
131.76249999999999
20
-84.137500000000003
30
0
40
1.9939
210
0
220
0
230
1
0
CIRCLE
5
479
100
AcDbEntity
8
0
100
AcDbCircle
10
126.6825
20
-84.137500000000003
30
0
40
0.85089999999999999
210
0
220
0
230
1
0
CIRCLE
5
480
100
AcDbEntity
8
0
100
AcDbCircle
10
135.57249999999999
20
-81.597500000000011
30
0
40
0.76200000000000001
210
0
220
0
230
1
0
CIRCLE
5
481
100
AcDbEntity
8
0
100
AcDbCircle
10
129.2225
20
-79.057500000000005
30
0
40
0.76200000000000001
210
0
220
0
230
1
0
CIRCLE
5
482
100
AcDbEntity
8
0
100
AcDbCircle
10
111.76000000000002
20
-100.64750000000001
30
0
40
0.76200000000000001
210
0
220
0
230
1
0
CIRCLE
5
483
100
AcDbEntity
8
0
100
AcDbCircle
10
124.45999999999999
20
-98.107500000000002
30
0
40
0.76200000000000001
210
0
220
0
230
1
0
CIRCLE
5
484
100
AcDbEntity
8
0
100
AcDbCircle
10
92.709999999999994
20
-100.64750000000001
30
0
40
0.76200000000000001
210
0
220
0
230
1
0
CIRCLE
5
485
100
AcDbEntity
8
0
100
AcDbCircle
10
105.41
20
-98.107500000000002
30
0
40
0.76200000000000001
210
0
220
0
230
1
0
CIRCLE
5
486
100
AcDbEntity
8
0
100
AcDbCircle
10
80.803750000000008
20
-100.64750000000001
30
0
40
0.76200000000000001
210
0
220
0
230
1
0
CIRCLE
5
487
100
AcDbEntity
8
0
100
AcDbCircle
10
86.360000000000014
20
-98.107500000000002
30
0
40
0.76200000000000001
210
0
220
0
230
1
0
CIRCLE
5
488
100
AcDbEntity
8
0
100
AcDbCircle
10
74.453749999999999
20
-98.107500000000002
30
0
40
0.76200000000000001
210
0
220
0
230
1
0
CIRCLE
5
489
100
AcDbEntity
8
0
100
AcDbCircle
10
88.931749999999994
20
-94.932500000000019
30
0
40
1.9939
210
0
220
0
230
1
0
CIRCLE
5
490
100
AcDbEntity
8
0
100
AcDbCircle
10
72.548749999999998
20
-93.662499999999994
30
0
40
0.85089999999999999
210
0
220
0
230
1
0
CIRCLE
5
491
100
AcDbEntity
8
0
100
AcDbCircle
10
71.278750000000002
20
-91.122500000000016
30
0
40
0.76200000000000001
210
0
220
0
230
1
0
CIRCLE
5
492
100
AcDbEntity
8
0
100
AcDbCircle
10
62.388750000000002
20
-93.662499999999994
30
0
40
0.85089999999999999
210
0
220
0
230
1
0
CIRCLE
5
493
100
AcDbEntity
8
0
100
AcDbCircle
10
117.79250000000002
20
-84.137500000000003
30
0
40
0.85089999999999999
210
0
220
0
230
1
0
CIRCLE
5
494
100
AcDbEntity
8
0
100
AcDbCircle
10
112.71250000000002
20
-84.137500000000003
30
0
40
1.9939
210
0
220
0
230
1
0
CIRCLE
5
495
100
AcDbEntity
8
0
100
AcDbCircle
10
116.52250000000001
20
-81.597500000000011
30
0
40
0.76200000000000001
210
0
220
0
230
1
0
CIRCLE
5
496
100
AcDbEntity
8
0
100
AcDbCircle
10
110.17250000000001
20
-79.057500000000005
30
0
40
0.76200000000000001
210
0
220
0
230
1
0
CIRCLE
5
497
100
AcDbEntity
8
0
100
AcDbCircle
10
107.63249999999999
20
-84.137500000000003
30
0
40
0.85089999999999999
210
0
220
0
230
1
0
CIRCLE
5
498
100
AcDbEntity
8
0
100
AcDbCircle
10
98.742500000000021
20
-84.137500000000003
30
0
40
0.85089999999999999
210
0
220
0
230
1
0
CIRCLE
5
499
100
AcDbEntity
8
0
100
AcDbCircle
10
93.662499999999994
20
-84.137500000000003
30
0
40
1.9939
210
0
220
0
230
1
0
CIRCLE
5
500
100
AcDbEntity
8
0
100
AcDbCircle
10
97.472500000000011
20
-81.597500000000011
30
0
40
0.76200000000000001
210
0
220
0
230
1
0
CIRCLE
5
501
100
AcDbEntity
8
0
100
AcDbCircle
10
91.122500000000016
20
-79.057500000000005
30
0
40
0.76200000000000001
210
0
220
0
230
1
0
CIRCLE
5
502
100
AcDbEntity
8
0
100
AcDbCircle
10
64.928749999999994
20
-88.582499999999996
30
0
40
0.76200000000000001
210
0
220
0
230
1
0
CIRCLE
5
503
100
AcDbEntity
8
0
100
AcDbCircle
10
88.582499999999996
20
-84.137500000000003
30
0
40
0.85089999999999999
210
0
220
0
230
1
0
CIRCLE
5
504
100
AcDbEntity
8
0
100
AcDbCircle
10
69.849999999999994
20
-84.137500000000003
30
0
40
1.9939
210
0
220
0
230
1
0
CIRCLE
5
505
100
AcDbEntity
8
0
100
AcDbCircle
10
64.77000000000001
20
-84.137500000000003
30
0
40
0.85089999999999999
210
0
220
0
230
1
0
CIRCLE
5
506
100
AcDbEntity
8
0
100
AcDbCircle
10
67.310000000000002
20
-79.057500000000005
30
0
40
0.76200000000000001
210
0
220
0
230
1
0
CIRCLE
5
507
100
AcDbEntity
8
0
100
AcDbCircle
10
60.483750000000001
20
-81.724500000000006
30
0
40
1.524
210
0
220
0
230
1
0
CIRCLE
5
508
100
AcDbEntity
8
0
100
AcDbCircle
10
193.35750000000002
20
-65.087500000000006
30
0
40
0.85089999999999999
210
0
220
0
230
1
0
CIRCLE
5
509
100
AcDbEntity
8
0
100
AcDbCircle
10
184.46750000000003
20
-65.087500000000006
30
0
40
0.85089999999999999
210
0
220
0
230
1
0
CIRCLE
5
510
100
AcDbEntity
8
0
100
AcDbCircle
10
183.19749999999999
20
-62.547500000000007
30
0
40
0.76200000000000001
210
0
220
0
230
1
0
CIRCLE
5
511
100
AcDbEntity
8
0
100
AcDbCircle
10
179.38749999999999
20
-65.087500000000006
30
0
40
1.9939
210
0
220
0
230
1
0
CIRCLE
5
512
100
AcDbEntity
8
0
100
AcDbCircle
10
174.3075
20
-65.087500000000006
30
0
40
0.85089999999999999
210
0
220
0
230
1
0
CIRCLE
5
513
100
AcDbEntity
8
0
100
AcDbCircle
10
165.41750000000002
20
-65.087500000000006
30
0
40
0.85089999999999999
210
0
220
0
230
1
0
CIRCLE
5
514
100
AcDbEntity
8
0
100
AcDbCircle
10
164.14750000000001
20
-62.547500000000007
30
0
40
0.76200000000000001
210
0
220
0
230
1
0
CIRCLE
5
515
100
AcDbEntity
8
0
100
AcDbCircle
10
195.89750000000004
20
-60.0075
30
0
40
0.76200000000000001
210
0
220
0
230
1
0
CIRCLE
5
516
100
AcDbEntity
8
0
100
AcDbCircle
10
176.84750000000003
20
-60.0075
30
0
40
0.76200000000000001
210
0
220
0
230
1
0
CIRCLE
5
517
100
AcDbEntity
8
0
100
AcDbCircle
10
160.33750000000001
20
-65.087500000000006
30
0
40
1.9939
210
0
220
0
230
1
0
CIRCLE
5
518
100
AcDbEntity
8
0
100
AcDbCircle
10
155.25749999999999
20
-65.087500000000006
30
0
40
0.85089999999999999
210
0
220
0
230
1
0
CIRCLE
5
519
100
AcDbEntity
8
0
100
AcDbCircle
10
146.36750000000001
20
-65.087500000000006
30
0
40
0.85089999999999999
210
0
220
0
230
1
0
CIRCLE
5
520
100
AcDbEntity
8
0
100
AcDbCircle
10
145.0975
20
-62.547500000000007
30
0
40
0.76200000000000001
210
0
220
0
230
1
0
CIRCLE
5
521
100
AcDbEntity
8
0
100
AcDbCircle
10
141.28749999999999
20
-65.087500000000006
30
0
40
1.9939
210
0
220
0
230
1
0
CIRCLE
5
522
100
AcDbEntity
8
0
100
AcDbCircle
10
136.20750000000001
20
-65.087500000000006
30
0
40
0.85089999999999999
210
0
220
0
230
1
0
CIRCLE
5
523
100
AcDbEntity
8
0
100
AcDbCircle
10
127.3175
20
-65.087500000000006
30
0
40
0.85089999999999999
210
0
220
0
230
1
0
CIRCLE
5
524
100
AcDbEntity
8
0
100
AcDbCircle
10
157.79750000000001
20
-60.0075
30
0
40
0.76200000000000001
210
0
220
0
230
1
0
CIRCLE
5
525
100
AcDbEntity
8
0
100
AcDbCircle
10
138.7475
20
-60.0075
30
0
40
0.76200000000000001
210
0
220
0
230
1
0
CIRCLE
5
526
100
AcDbEntity
8
0
100
AcDbCircle
10
86.550500000000014
20
-73.342500000000001
30
0
40
1.9939
210
0
220
0
230
1
0
CIRCLE
5
527
100
AcDbEntity
8
0
100
AcDbCircle
10
62.674500000000002
20
-73.342500000000001
30
0
40
1.9939
210
0
220
0
230
1
0
CIRCLE
5
528
100
AcDbEntity
8
0
100
AcDbCircle
10
122.23750000000001
20
-65.087500000000006
30
0
40
1.9939
210
0
220
0
230
1
0
CIRCLE
5
529
100
AcDbEntity
8
0
100
AcDbCircle
10
117.1575
20
-65.087500000000006
30
0
40
0.85089999999999999
210
0
220
0
230
1
0
CIRCLE
5
530
100
AcDbEntity
8
0
100
AcDbCircle
10
126.04750000000001
20
-62.547500000000007
30
0
40
0.76200000000000001
210
0
220
0
230
1
0
CIRCLE
5
531
100
AcDbEntity
8
0
100
AcDbCircle
10
108.26750000000001
20
-65.087500000000006
30
0
40
0.85089999999999999
210
0
220
0
230
1
0
CIRCLE
5
532
100
AcDbEntity
8
0
100
AcDbCircle
10
103.18750000000001
20
-65.087500000000006
30
0
40
1.9939
210
0
220
0
230
1
0
CIRCLE
5
533
100
AcDbEntity
8
0
100
AcDbCircle
10
98.107500000000002
20
-65.087500000000006
30
0
40
0.85089999999999999
210
0
220
0
230
1
0
CIRCLE
5
534
100
AcDbEntity
8
0
100
AcDbCircle
10
106.99750000000002
20
-62.547500000000007
30
0
40
0.76200000000000001
210
0
220
0
230
1
0
CIRCLE
5
535
100
AcDbEntity
8
0
100
AcDbCircle
10
119.69750000000002
20
-60.0075
30
0
40
0.76200000000000001
210
0
220
0
230
1
0
CIRCLE
5
536
100
AcDbEntity
8
0
100
AcDbCircle
10
100.64750000000001
20
-60.0075
30
0
40
0.76200000000000001
210
0
220
0
230
1
0
CIRCLE
5
537
100
AcDbEntity
8
0
100
AcDbCircle
10
89.217500000000015
20
-65.087500000000006
30
0
40
0.85089999999999999
210
0
220
0
230
1
0
CIRCLE
5
538
100
AcDbEntity
8
0
100
AcDbCircle
10
84.137500000000003
20
-65.087500000000006
30
0
40
1.9939
210
0
220
0
230
1
0
CIRCLE
5
539
100
AcDbEntity
8
0
100
AcDbCircle
10
74.612499999999997
20
-65.087500000000006
30
0
40
1.9939
210
0
220
0
230
1
0
CIRCLE
5
540
100
AcDbEntity
8
0
100
AcDbCircle
10
87.947500000000005
20
-62.547500000000007
30
0
40
0.76200000000000001
210
0
220
0
230
1
0
CIRCLE
5
541
100
AcDbEntity
8
0
100
AcDbCircle
10
78.422499999999999
20
-62.547500000000007
30
0
40
0.76200000000000001
210
0
220
0
230
1
0
CIRCLE
5
542
100
AcDbEntity
8
0
100
AcDbCircle
10
65.087500000000006
20
-65.087500000000006
30
0
40
1.9939
210
0
220
0
230
1
0
CIRCLE
5
543
100
AcDbEntity
8
0
100
AcDbCircle
10
60.0075
20
-65.087500000000006
30
0
40
0.85089999999999999
210
0
220
0
230
1
0
CIRCLE
5
544
100
AcDbEntity
8
0
100
AcDbCircle
10
68.897499999999994
20
-62.547500000000007
30
0
40
0.76200000000000001
210
0
220
0
230
1
0
CIRCLE
5
545
100
AcDbEntity
8
0
100
AcDbCircle
10
86.550500000000014
20
-58.102499999999999
30
0
40
1.524
210
0
220
0
230
1
0
CIRCLE
5
546
100
AcDbEntity
8
0
100
AcDbCircle
10
81.597500000000011
20
-60.0075
30
0
40
0.76200000000000001
210
0
220
0
230
1
0
CIRCLE
5
547
100
AcDbEntity
8
0
100
AcDbCircle
10
72.072500000000005
20
-60.0075
30
0
40
0.76200000000000001
210
0
220
0
230
1
0
ENDSEC
0
SECTION
2
OBJECTS
0
DICTIONARY
5
C
100
AcDbDictionary
3
ACAD_GROUP
350
D
3
ACAD_MLINESTYLE
350
17
0
DICTIONARY
5
D
100
AcDbDictionary
0
DICTIONARY
5
1A
330
C
100
AcDbDictionary
0
DICTIONARY
5
17
100
AcDbDictionary
0
ENDSEC
0
EOF
